*
G04 Mass Parameters ***
*
G04 Image ***
*
%INC:\USERS\RAJ\DOCUMENTS\CATAGORIES\SENSORS, MODULES\OPA381 LIGHT SENSOR\EL\LAYOUT\FINAL.DRD*%
%ICAS*%
%MOIN*%
%IPPOS*%
%ASAXBY*%
G74*%FSLAN2X34Y34*%
*
G04 Aperture Definitions ***
*
%ADD10R,0.0500X0.0500*%
%ADD11O,0.0600X0.0160*%
%ADD12R,0.0600X0.0160*%
%ADD13O,0.0630X0.0630*%
%ADD14R,0.0630X0.0630*%
%ADD15C,0.0800*%
%ADD16R,0.0800X0.0800*%
%ADD17O,0.0590X0.0630*%
%ADD18R,0.0590X0.0787*%
%ADD19C,0.0650*%
%ADD20R,0.0650X0.0650*%
%ADD21C,0.0100*%
%ADD22C,0.0177*%
%ADD23C,0.0250*%
%ADD24C,0.0150*%
%ADD25C,0.0900*%
%ADD26R,0.0900X0.0900*%
%ADD27C,0.0118*%
%ADD28C,0.0059*%
%ADD29C,0.0079*%
%ADD30C,0.0050*%
%ADD31C,0.0039*%
%ADD32C,0.0080*%
%ADD33C,0.0047*%
%ADD34C,0.0060*%
*
G04 Plot Data ***
*
G54D21*
G01X0024708Y-0009833D02*
X0024042D01*
X0024708Y-0009167D01*
Y-0009000D01*
X0024625Y-0008833D01*
X0024125D01*
X0024042Y-0009000D01*
X0023342Y-0009833D02*
X0023175Y-0009667D01*
X0023092Y-0009500D01*
Y-0009167D01*
X0023175Y-0009000D01*
X0023342Y-0008833D01*
X0023508D01*
X0023675Y-0009000D01*
X0023758Y-0009167D01*
Y-0009500D01*
X0023675Y-0009667D01*
X0023508Y-0009833D01*
X0023342D01*
X0022808D02*
X0022475D01*
X0022642D02*
Y-0008833D01*
X0022475Y-0009000D01*
X0012312Y-0009833D02*
X0011729D01*
Y-0008833D01*
X0011446Y-0009500D02*
X0010779D01*
X0011446Y-0009833D02*
Y-0009333D01*
X0011196Y-0008833D01*
X0011029D01*
X0010779Y-0009333D01*
Y-0009833D01*
X0010162D02*
Y-0008833D01*
X0010496D02*
X0009829D01*
X0008962Y-0009833D02*
X0008879Y-0009667D01*
Y-0009000D01*
X0008962Y-0008833D01*
X0009462D01*
X0009546Y-0009000D01*
Y-0009667D01*
X0009462Y-0009833D01*
X0008962D01*
X0008262D02*
Y-0008833D01*
X0008596D02*
X0007929D01*
X0024430Y-0007972D02*
X0024319Y-0007861D01*
X0024264Y-0007750D01*
Y-0007528D01*
X0024319Y-0007417D01*
X0024430Y-0007306D01*
X0024542D01*
X0024653Y-0007417D01*
X0024708Y-0007528D01*
Y-0007750D01*
X0024653Y-0007861D01*
X0024542Y-0007972D01*
X0024430D01*
X0023953Y-0007639D02*
X0023619D01*
X0023564Y-0007528D01*
Y-0007417D01*
X0023619Y-0007306D01*
X0023953D01*
X0024008Y-0007417D01*
Y-0007528D01*
X0023786Y-0007972D01*
X0010869D02*
Y-0007639D01*
X0011092Y-0007972D02*
Y-0007639D01*
X0011036Y-0007528D01*
X0010925D01*
X0010869Y-0007639D01*
X0010814Y-0007528D01*
X0010703D01*
X0010647Y-0007639D01*
Y-0007972D01*
X0010169D02*
Y-0007639D01*
X0010392Y-0007972D02*
Y-0007639D01*
X0010336Y-0007528D01*
X0010225D01*
X0010169Y-0007639D01*
X0010114Y-0007528D01*
X0010003D01*
X0009947Y-0007639D01*
Y-0007972D01*
X0008464D02*
X0008353Y-0007861D01*
X0008297Y-0007750D01*
Y-0007528D01*
X0008353Y-0007417D01*
X0008464Y-0007306D01*
X0008575D01*
X0008686Y-0007417D01*
X0008742Y-0007528D01*
Y-0007750D01*
X0008686Y-0007861D01*
X0008575Y-0007972D01*
X0008464D01*
X0007764D02*
X0007653Y-0007861D01*
X0007597Y-0007750D01*
Y-0007528D01*
X0007653Y-0007417D01*
X0007764Y-0007306D01*
X0007875D01*
X0007986Y-0007417D01*
X0008042Y-0007528D01*
Y-0007750D01*
X0007986Y-0007861D01*
X0007875Y-0007972D01*
X0007764D01*
X0007064D02*
X0006953Y-0007861D01*
X0006897Y-0007750D01*
Y-0007528D01*
X0006953Y-0007417D01*
X0007064Y-0007306D01*
X0007175D01*
X0007286Y-0007417D01*
X0007342Y-0007528D01*
Y-0007750D01*
X0007286Y-0007861D01*
X0007175Y-0007972D01*
X0007064D01*
X0006531D02*
X0006642D01*
Y-0007861D01*
X0006531D01*
Y-0007972D01*
X0006164D02*
X0005942D01*
X0006053D02*
Y-0007306D01*
X0005942Y-0007417D01*
X0024708Y-0006250D02*
X0024264D01*
X0024486Y-0005806D01*
X0024597D01*
Y-0006472D01*
X0010869D02*
Y-0006139D01*
X0011092Y-0006472D02*
Y-0006139D01*
X0011036Y-0006028D01*
X0010925D01*
X0010869Y-0006139D01*
X0010814Y-0006028D01*
X0010703D01*
X0010647Y-0006139D01*
Y-0006472D01*
X0010169D02*
Y-0006139D01*
X0010392Y-0006472D02*
Y-0006139D01*
X0010336Y-0006028D01*
X0010225D01*
X0010169Y-0006139D01*
X0010114Y-0006028D01*
X0010003D01*
X0009947Y-0006139D01*
Y-0006472D01*
X0008464D02*
X0008353Y-0006361D01*
X0008297Y-0006250D01*
Y-0006028D01*
X0008353Y-0005917D01*
X0008464Y-0005806D01*
X0008575D01*
X0008686Y-0005917D01*
X0008742Y-0006028D01*
Y-0006250D01*
X0008686Y-0006361D01*
X0008575Y-0006472D01*
X0008464D01*
X0007764D02*
X0007653Y-0006361D01*
X0007597Y-0006250D01*
Y-0006028D01*
X0007653Y-0005917D01*
X0007764Y-0005806D01*
X0007875D01*
X0007986Y-0005917D01*
X0008042Y-0006028D01*
Y-0006250D01*
X0007986Y-0006361D01*
X0007875Y-0006472D01*
X0007764D01*
X0007286Y-0006139D02*
X0007342Y-0006028D01*
Y-0005917D01*
X0007286Y-0005806D01*
X0006953D01*
X0006897Y-0005917D01*
Y-0006028D01*
X0006953Y-0006139D01*
X0007286D01*
X0007342Y-0006250D01*
Y-0006361D01*
X0007286Y-0006472D01*
X0006953D01*
X0006897Y-0006361D01*
Y-0006250D01*
X0006953Y-0006139D01*
X0006531Y-0006472D02*
X0006642D01*
Y-0006361D01*
X0006531D01*
Y-0006472D01*
X0005886D02*
X0005775Y-0006361D01*
X0005719Y-0006250D01*
Y-0006028D01*
X0005775Y-0005917D01*
X0005886Y-0005806D01*
X0005997D01*
X0006108Y-0005917D01*
X0006164Y-0006028D01*
Y-0006250D01*
X0006108Y-0006361D01*
X0005997Y-0006472D01*
X0005886D01*
X0024653Y-0004639D02*
X0024708Y-0004528D01*
Y-0004417D01*
X0024653Y-0004306D01*
X0024319D01*
X0024264Y-0004417D01*
Y-0004528D01*
X0024319Y-0004639D01*
X0024653D01*
X0024708Y-0004750D01*
Y-0004861D01*
X0024653Y-0004972D01*
X0024319D01*
X0024264Y-0004861D01*
Y-0004750D01*
X0024319Y-0004639D01*
X0010869Y-0004972D02*
Y-0004639D01*
X0011092Y-0004972D02*
Y-0004639D01*
X0011036Y-0004528D01*
X0010925D01*
X0010869Y-0004639D01*
X0010814Y-0004528D01*
X0010703D01*
X0010647Y-0004639D01*
Y-0004972D01*
X0010169D02*
Y-0004639D01*
X0010392Y-0004972D02*
Y-0004639D01*
X0010336Y-0004528D01*
X0010225D01*
X0010169Y-0004639D01*
X0010114Y-0004528D01*
X0010003D01*
X0009947Y-0004639D01*
Y-0004972D01*
X0008464D02*
X0008353Y-0004861D01*
X0008297Y-0004750D01*
Y-0004528D01*
X0008353Y-0004417D01*
X0008464Y-0004306D01*
X0008575D01*
X0008686Y-0004417D01*
X0008742Y-0004528D01*
Y-0004750D01*
X0008686Y-0004861D01*
X0008575Y-0004972D01*
X0008464D01*
X0007597Y-0004861D02*
X0007653Y-0004972D01*
X0007986D01*
X0008042Y-0004861D01*
Y-0004639D01*
X0007930Y-0004528D01*
X0007597D01*
Y-0004306D01*
X0008042D01*
X0007342Y-0004972D02*
X0006897D01*
X0007342Y-0004528D01*
Y-0004417D01*
X0007286Y-0004306D01*
X0006953D01*
X0006897Y-0004417D01*
X0006531Y-0004972D02*
X0006642D01*
Y-0004861D01*
X0006531D01*
Y-0004972D01*
X0005886D02*
X0005775Y-0004861D01*
X0005719Y-0004750D01*
Y-0004528D01*
X0005775Y-0004417D01*
X0005886Y-0004306D01*
X0005997D01*
X0006108Y-0004417D01*
X0006164Y-0004528D01*
Y-0004750D01*
X0006108Y-0004861D01*
X0005997Y-0004972D01*
X0005886D01*
X0033112Y-0002833D02*
X0032612D01*
X0033279Y-0003333D02*
X0032612D01*
Y-0002333D01*
X0033279D01*
X0031996Y-0003333D02*
Y-0002333D01*
X0032329D02*
X0031662D01*
X0030796Y-0003333D02*
X0030712Y-0003167D01*
Y-0002500D01*
X0030796Y-0002333D01*
X0031296D01*
X0031379Y-0002500D01*
Y-0003167D01*
X0031296Y-0003333D01*
X0030796D01*
X0030429Y-0002333D02*
Y-0003333D01*
X0030262Y-0003167D01*
X0029929Y-0002500D01*
X0029762Y-0002333D01*
Y-0003333D01*
X0023925D02*
Y-0002833D01*
X0024258Y-0002333D02*
X0024008Y-0002833D01*
X0023842D01*
X0023592Y-0002333D01*
X0022975Y-0003333D02*
Y-0002333D01*
X0023308D02*
X0022642D01*
X0022025Y-0003000D02*
X0022358Y-0003333D01*
X0021692Y-0003167D02*
X0021775Y-0003333D01*
X0022108D01*
X0022192Y-0003167D01*
X0022358Y-0003000D01*
Y-0002500D01*
X0022275Y-0002333D01*
X0021775D01*
X0021692Y-0002500D01*
Y-0003167D01*
X0017408Y-0003333D02*
X0016825D01*
Y-0002333D01*
X0015958Y-0003333D02*
X0015875Y-0003167D01*
Y-0002500D01*
X0015958Y-0002333D01*
X0016458D01*
X0016542Y-0002500D01*
Y-0003167D01*
X0016458Y-0003333D01*
X0015958D01*
X0015258D02*
Y-0002333D01*
X0015592D02*
X0014925D01*
X0009587Y-0003333D02*
Y-0002333D01*
X0009421Y-0002500D01*
X0009254Y-0002833D01*
X0009087Y-0002500D01*
X0008921Y-0002333D01*
Y-0003333D01*
X0008637Y-0003000D02*
X0007971D01*
X0008637Y-0003333D02*
Y-0002833D01*
X0008387Y-0002333D01*
X0008221D01*
X0007971Y-0002833D01*
Y-0003333D01*
X0007687D02*
X0007354D01*
X0007521D02*
Y-0002333D01*
X0007687D02*
X0007354D01*
X0006321Y-0003333D02*
Y-0002333D01*
X0006237Y-0003333D02*
X0006737D01*
X0006904Y-0003000D01*
Y-0002667D01*
X0006737Y-0002333D01*
X0006237D01*
X0003150Y-0003333D02*
Y-0002333D01*
X0002983Y-0002500D01*
X0002817Y-0002833D01*
X0002650Y-0002500D01*
X0002483Y-0002333D01*
Y-0003333D01*
X0001867D02*
Y-0002833D01*
X0002200Y-0002333D02*
X0001950Y-0002833D01*
X0001783D01*
X0001533Y-0002333D01*
X0001250Y-0002500D02*
X0001167Y-0002333D01*
X0000667D01*
X0000583Y-0002500D01*
Y-0002667D01*
X0000667Y-0002833D01*
X0001167D01*
X0001250Y-0003000D01*
Y-0003167D01*
X0001167Y-0003333D01*
X0000667D01*
X0000583Y-0003167D01*
X0023437Y-0001333D02*
Y-0000333D01*
X0023771D02*
X0023104D01*
X0022571Y-0000833D02*
X0022821Y-0001333D01*
X0022154Y-0000833D02*
X0022654D01*
X0022821Y-0000667D01*
Y-0000500D01*
X0022654Y-0000333D01*
X0022154D01*
Y-0001333D01*
X0021871Y-0001000D02*
X0021204D01*
X0021871Y-0001333D02*
Y-0000833D01*
X0021621Y-0000333D01*
X0021454D01*
X0021204Y-0000833D01*
Y-0001333D01*
X0020921Y-0000833D02*
X0020254D01*
X0020921Y-0001333D02*
Y-0000333D01*
X0020254Y-0001333D02*
Y-0000333D01*
X0019971Y-0001167D02*
X0019887Y-0001333D01*
X0019387D01*
X0019304Y-0001167D01*
Y-0000500D01*
X0019387Y-0000333D01*
X0019887D01*
X0019971Y-0000500D01*
X0017696Y-0001333D02*
X0017112D01*
Y-0000333D01*
X0016829Y-0001333D02*
X0016246D01*
Y-0000333D01*
X0015962Y-0001333D02*
X0015629D01*
X0015796D02*
Y-0000333D01*
X0015962D02*
X0015629D01*
X0014929Y-0000833D02*
X0015179Y-0001333D01*
X0014512Y-0000833D02*
X0015012D01*
X0015179Y-0000667D01*
Y-0000500D01*
X0015012Y-0000333D01*
X0014512D01*
Y-0001333D01*
X0013646D02*
Y-0000333D01*
X0013562Y-0001333D02*
X0014062D01*
X0014229Y-0001000D01*
Y-0000667D01*
X0014062Y-0000333D01*
X0013562D01*
X0001575Y-0007500D02*
Y-0008000D01*
X0002075Y-0007500D02*
X0001575D01*
X0002075Y-0008000D02*
Y-0007500D01*
X0001575Y-0008000D02*
X0002075D01*
Y-0007500D02*
X0001575Y-0008000D01*
X0002075D02*
X0001575Y-0007500D01*
Y-0006000D02*
Y-0006250D01*
X0001825Y-0006000D02*
X0001575D01*
X0001825Y-0006500D02*
Y-0006000D01*
X0002075Y-0006500D02*
X0001825D01*
X0002075Y-0006250D02*
Y-0006500D01*
X0001575Y-0006250D02*
X0002075D01*
Y-0004500D02*
X0001575Y-0005000D01*
X0002075D02*
X0001575Y-0004500D01*
X0037300Y-0010550D02*
X-0000050D01*
X0037250Y-0010500D02*
X0000000D01*
X0037250Y-0008500D02*
X0000000D01*
X0037250Y-0007000D02*
X0000000D01*
X0037250Y-0005500D02*
X0000000D01*
X0037250Y-0004000D02*
X0000000D01*
X0037250Y-0003950D02*
X0000000D01*
X0037250Y-0002000D02*
X0000000D01*
X0037250Y-0001950D02*
X0000000D01*
X0037250Y0000000D02*
X0000000D01*
X0037300Y0000050D02*
X-0000050D01*
X0037300Y-0010500D02*
Y0000000D01*
X0037250Y-0010500D02*
Y0000000D01*
X0025708Y-0010500D02*
Y-0002000D01*
X0020158Y-0010500D02*
Y-0002000D01*
X0012092Y-0008500D02*
Y-0002000D01*
X0003700Y-0008500D02*
Y-0002000D01*
X0003650Y-0008500D02*
Y-0002000D01*
X-0000050Y-0010500D02*
Y0000000D01*
X0000000Y-0010500D02*
Y0000000D01*
X0009062Y0040187D02*
Y0051437D01*
X0026625D01*
Y0040187D01*
X0009062D01*
X0020625Y0046062D02*
Y0045562D01*
X0021125Y0046062D02*
X0020625D01*
X0021125Y0045562D02*
Y0046062D01*
X0020625Y0045562D02*
X0021125D01*
Y0046062D02*
X0020625Y0045562D01*
X0021125D02*
X0020625Y0046062D01*
X0021625D02*
Y0045562D01*
X0022125Y0046062D02*
X0021625D01*
X0022125Y0045562D02*
Y0046062D01*
X0021625Y0045562D02*
X0022125D01*
Y0046062D02*
X0021625Y0045562D01*
X0022125D02*
X0021625Y0046062D01*
X0022625D02*
Y0045562D01*
X0023125Y0046062D02*
X0022625D01*
X0023125Y0045562D02*
Y0046062D01*
X0022625Y0045562D02*
X0023125D01*
Y0046062D02*
X0022625Y0045562D01*
X0023125D02*
X0022625Y0046062D01*
X0023625D02*
Y0045562D01*
X0024125Y0046062D02*
X0023625D01*
X0024125Y0045562D02*
Y0046062D01*
X0023625Y0045562D02*
X0024125D01*
Y0046062D02*
X0023625Y0045562D01*
X0024125D02*
X0023625Y0046062D01*
X0024625D02*
Y0045562D01*
X0025125Y0046062D02*
X0024625D01*
X0025125Y0045562D02*
Y0046062D01*
X0024625Y0045562D02*
X0025125D01*
Y0046062D02*
X0024625Y0045562D01*
X0025125D02*
X0024625Y0046062D01*
X0025625D02*
Y0045562D01*
X0026125Y0046062D02*
X0025625D01*
X0026125Y0045562D02*
Y0046062D01*
X0025625Y0045562D02*
X0026125D01*
Y0046062D02*
X0025625Y0045562D01*
X0026125D02*
X0025625Y0046062D01*
Y0048062D02*
Y0047562D01*
X0026125Y0048062D02*
X0025625D01*
X0026125Y0047562D02*
Y0048062D01*
X0025625Y0047562D02*
X0026125D01*
Y0048062D02*
X0025625Y0047562D01*
X0026125D02*
X0025625Y0048062D01*
Y0047062D02*
Y0046562D01*
X0026125Y0047062D02*
X0025625D01*
X0026125Y0046562D02*
Y0047062D01*
X0025625Y0046562D02*
X0026125D01*
Y0047062D02*
X0025625Y0046562D01*
X0026125D02*
X0025625Y0047062D01*
X0024625Y0048062D02*
Y0047562D01*
X0025125Y0048062D02*
X0024625D01*
X0025125Y0047562D02*
Y0048062D01*
X0024625Y0047562D02*
X0025125D01*
Y0048062D02*
X0024625Y0047562D01*
X0025125D02*
X0024625Y0048062D01*
Y0047062D02*
Y0046562D01*
X0025125Y0047062D02*
X0024625D01*
X0025125Y0046562D02*
Y0047062D01*
X0024625Y0046562D02*
X0025125D01*
Y0047062D02*
X0024625Y0046562D01*
X0025125D02*
X0024625Y0047062D01*
X0023625Y0048062D02*
Y0047562D01*
X0024125Y0048062D02*
X0023625D01*
X0024125Y0047562D02*
Y0048062D01*
X0023625Y0047562D02*
X0024125D01*
Y0048062D02*
X0023625Y0047562D01*
X0024125D02*
X0023625Y0048062D01*
Y0047062D02*
Y0046562D01*
X0024125Y0047062D02*
X0023625D01*
X0024125Y0046562D02*
Y0047062D01*
X0023625Y0046562D02*
X0024125D01*
Y0047062D02*
X0023625Y0046562D01*
X0024125D02*
X0023625Y0047062D01*
X0022625Y0048062D02*
Y0047562D01*
X0023125Y0048062D02*
X0022625D01*
X0023125Y0047562D02*
Y0048062D01*
X0022625Y0047562D02*
X0023125D01*
Y0048062D02*
X0022625Y0047562D01*
X0023125D02*
X0022625Y0048062D01*
Y0047062D02*
Y0046562D01*
X0023125Y0047062D02*
X0022625D01*
X0023125Y0046562D02*
Y0047062D01*
X0022625Y0046562D02*
X0023125D01*
Y0047062D02*
X0022625Y0046562D01*
X0023125D02*
X0022625Y0047062D01*
X0021625Y0048062D02*
Y0047562D01*
X0022125Y0048062D02*
X0021625D01*
X0022125Y0047562D02*
Y0048062D01*
X0021625Y0047562D02*
X0022125D01*
Y0048062D02*
X0021625Y0047562D01*
X0022125D02*
X0021625Y0048062D01*
Y0047062D02*
Y0046562D01*
X0022125Y0047062D02*
X0021625D01*
X0022125Y0046562D02*
Y0047062D01*
X0021625Y0046562D02*
X0022125D01*
Y0047062D02*
X0021625Y0046562D01*
X0022125D02*
X0021625Y0047062D01*
X0025625Y0044812D02*
Y0044312D01*
X0026125Y0044812D02*
X0025625D01*
X0026125Y0044312D02*
Y0044812D01*
X0025625Y0044312D02*
X0026125D01*
Y0044812D02*
X0025625Y0044312D01*
X0026125D02*
X0025625Y0044812D01*
Y0043812D02*
Y0043312D01*
X0026125Y0043812D02*
X0025625D01*
X0026125Y0043312D02*
Y0043812D01*
X0025625Y0043312D02*
X0026125D01*
Y0043812D02*
X0025625Y0043312D01*
X0026125D02*
X0025625Y0043812D01*
X0024625Y0044812D02*
Y0044312D01*
X0025125Y0044812D02*
X0024625D01*
X0025125Y0044312D02*
Y0044812D01*
X0024625Y0044312D02*
X0025125D01*
Y0044812D02*
X0024625Y0044312D01*
X0025125D02*
X0024625Y0044812D01*
Y0043812D02*
Y0043312D01*
X0025125Y0043812D02*
X0024625D01*
X0025125Y0043312D02*
Y0043812D01*
X0024625Y0043312D02*
X0025125D01*
Y0043812D02*
X0024625Y0043312D01*
X0025125D02*
X0024625Y0043812D01*
X0023625Y0044812D02*
Y0044312D01*
X0024125Y0044812D02*
X0023625D01*
X0024125Y0044312D02*
Y0044812D01*
X0023625Y0044312D02*
X0024125D01*
Y0044812D02*
X0023625Y0044312D01*
X0024125D02*
X0023625Y0044812D01*
Y0043812D02*
Y0043312D01*
X0024125Y0043812D02*
X0023625D01*
X0024125Y0043312D02*
Y0043812D01*
X0023625Y0043312D02*
X0024125D01*
Y0043812D02*
X0023625Y0043312D01*
X0024125D02*
X0023625Y0043812D01*
X0022625Y0044812D02*
Y0044312D01*
X0023125Y0044812D02*
X0022625D01*
X0023125Y0044312D02*
Y0044812D01*
X0022625Y0044312D02*
X0023125D01*
Y0044812D02*
X0022625Y0044312D01*
X0023125D02*
X0022625Y0044812D01*
Y0043812D02*
Y0043312D01*
X0023125Y0043812D02*
X0022625D01*
X0023125Y0043312D02*
Y0043812D01*
X0022625Y0043312D02*
X0023125D01*
Y0043812D02*
X0022625Y0043312D01*
X0023125D02*
X0022625Y0043812D01*
X0021625Y0044812D02*
Y0044312D01*
X0022125Y0044812D02*
X0021625D01*
X0022125Y0044312D02*
Y0044812D01*
X0021625Y0044312D02*
X0022125D01*
Y0044812D02*
X0021625Y0044312D01*
X0022125D02*
X0021625Y0044812D01*
Y0043812D02*
Y0043312D01*
X0022125Y0043812D02*
X0021625D01*
X0022125Y0043312D02*
Y0043812D01*
X0021625Y0043312D02*
X0022125D01*
Y0043812D02*
X0021625Y0043312D01*
X0022125D02*
X0021625Y0043812D01*
X0010562Y0051062D02*
Y0050562D01*
X0011062Y0051062D02*
X0010562D01*
X0011062Y0050562D02*
Y0051062D01*
X0010562Y0050562D02*
X0011062D01*
Y0051062D02*
X0010562Y0050562D01*
X0011062D02*
X0010562Y0051062D01*
X0011562D02*
Y0050562D01*
X0012062Y0051062D02*
X0011562D01*
X0012062Y0050562D02*
Y0051062D01*
X0011562Y0050562D02*
X0012062D01*
Y0051062D02*
X0011562Y0050562D01*
X0012062D02*
X0011562Y0051062D01*
X0012562D02*
Y0050562D01*
X0013062Y0051062D02*
X0012562D01*
X0013062Y0050562D02*
Y0051062D01*
X0012562Y0050562D02*
X0013062D01*
Y0051062D02*
X0012562Y0050562D01*
X0013062D02*
X0012562Y0051062D01*
X0013562D02*
Y0050562D01*
X0014062Y0051062D02*
X0013562D01*
X0014062Y0050562D02*
Y0051062D01*
X0013562Y0050562D02*
X0014062D01*
Y0051062D02*
X0013562Y0050562D01*
X0014062D02*
X0013562Y0051062D01*
X0014562D02*
Y0050562D01*
X0015062Y0051062D02*
X0014562D01*
X0015062Y0050562D02*
Y0051062D01*
X0014562Y0050562D02*
X0015062D01*
Y0051062D02*
X0014562Y0050562D01*
X0015062D02*
X0014562Y0051062D01*
X0015562D02*
Y0050562D01*
X0016062Y0051062D02*
X0015562D01*
X0016062Y0050562D02*
Y0051062D01*
X0015562Y0050562D02*
X0016062D01*
Y0051062D02*
X0015562Y0050562D01*
X0016062D02*
X0015562Y0051062D01*
X0016562D02*
Y0050562D01*
X0017062Y0051062D02*
X0016562D01*
X0017062Y0050562D02*
Y0051062D01*
X0016562Y0050562D02*
X0017062D01*
Y0051062D02*
X0016562Y0050562D01*
X0017062D02*
X0016562Y0051062D01*
X0017562D02*
Y0050562D01*
X0018062Y0051062D02*
X0017562D01*
X0018062Y0050562D02*
Y0051062D01*
X0017562Y0050562D02*
X0018062D01*
Y0051062D02*
X0017562Y0050562D01*
X0018062D02*
X0017562Y0051062D01*
X0018562D02*
Y0050562D01*
X0019062Y0051062D02*
X0018562D01*
X0019062Y0050562D02*
Y0051062D01*
X0018562Y0050562D02*
X0019062D01*
Y0051062D02*
X0018562Y0050562D01*
X0019062D02*
X0018562Y0051062D01*
X0019562D02*
Y0050562D01*
X0020062Y0051062D02*
X0019562D01*
X0020062Y0050562D02*
Y0051062D01*
X0019562Y0050562D02*
X0020062D01*
Y0051062D02*
X0019562Y0050562D01*
X0020062D02*
X0019562Y0051062D01*
X0020562D02*
Y0050562D01*
X0021062Y0051062D02*
X0020562D01*
X0021062Y0050562D02*
Y0051062D01*
X0020562Y0050562D02*
X0021062D01*
Y0051062D02*
X0020562Y0050562D01*
X0021062D02*
X0020562Y0051062D01*
X0021562D02*
Y0050562D01*
X0022062Y0051062D02*
X0021562D01*
X0022062Y0050562D02*
Y0051062D01*
X0021562Y0050562D02*
X0022062D01*
Y0051062D02*
X0021562Y0050562D01*
X0022062D02*
X0021562Y0051062D01*
X0022562D02*
Y0050562D01*
X0023062Y0051062D02*
X0022562D01*
X0023062Y0050562D02*
Y0051062D01*
X0022562Y0050562D02*
X0023062D01*
Y0051062D02*
X0022562Y0050562D01*
X0023062D02*
X0022562Y0051062D01*
X0023562D02*
Y0050562D01*
X0024062Y0051062D02*
X0023562D01*
X0024062Y0050562D02*
Y0051062D01*
X0023562Y0050562D02*
X0024062D01*
Y0051062D02*
X0023562Y0050562D01*
X0024062D02*
X0023562Y0051062D01*
X0024562D02*
Y0050562D01*
X0025062Y0051062D02*
X0024562D01*
X0025062Y0050562D02*
Y0051062D01*
X0024562Y0050562D02*
X0025062D01*
Y0051062D02*
X0024562Y0050562D01*
X0025062D02*
X0024562Y0051062D01*
X0010562Y0041062D02*
Y0040562D01*
X0011062Y0041062D02*
X0010562D01*
X0011062Y0040562D02*
Y0041062D01*
X0010562Y0040562D02*
X0011062D01*
Y0041062D02*
X0010562Y0040562D01*
X0011062D02*
X0010562Y0041062D01*
X0011562D02*
Y0040562D01*
X0012062Y0041062D02*
X0011562D01*
X0012062Y0040562D02*
Y0041062D01*
X0011562Y0040562D02*
X0012062D01*
Y0041062D02*
X0011562Y0040562D01*
X0012062D02*
X0011562Y0041062D01*
X0012562D02*
Y0040562D01*
X0013062Y0041062D02*
X0012562D01*
X0013062Y0040562D02*
Y0041062D01*
X0012562Y0040562D02*
X0013062D01*
Y0041062D02*
X0012562Y0040562D01*
X0013062D02*
X0012562Y0041062D01*
X0013562D02*
Y0040562D01*
X0014062Y0041062D02*
X0013562D01*
X0014062Y0040562D02*
Y0041062D01*
X0013562Y0040562D02*
X0014062D01*
Y0041062D02*
X0013562Y0040562D01*
X0014062D02*
X0013562Y0041062D01*
X0014562D02*
Y0040562D01*
X0015062Y0041062D02*
X0014562D01*
X0015062Y0040562D02*
Y0041062D01*
X0014562Y0040562D02*
X0015062D01*
Y0041062D02*
X0014562Y0040562D01*
X0015062D02*
X0014562Y0041062D01*
X0015562D02*
Y0040562D01*
X0016062Y0041062D02*
X0015562D01*
X0016062Y0040562D02*
Y0041062D01*
X0015562Y0040562D02*
X0016062D01*
Y0041062D02*
X0015562Y0040562D01*
X0016062D02*
X0015562Y0041062D01*
X0016562D02*
Y0040562D01*
X0017062Y0041062D02*
X0016562D01*
X0017062Y0040562D02*
Y0041062D01*
X0016562Y0040562D02*
X0017062D01*
Y0041062D02*
X0016562Y0040562D01*
X0017062D02*
X0016562Y0041062D01*
X0017562D02*
Y0040562D01*
X0018062Y0041062D02*
X0017562D01*
X0018062Y0040562D02*
Y0041062D01*
X0017562Y0040562D02*
X0018062D01*
Y0041062D02*
X0017562Y0040562D01*
X0018062D02*
X0017562Y0041062D01*
X0018562D02*
Y0040562D01*
X0019062Y0041062D02*
X0018562D01*
X0019062Y0040562D02*
Y0041062D01*
X0018562Y0040562D02*
X0019062D01*
Y0041062D02*
X0018562Y0040562D01*
X0019062D02*
X0018562Y0041062D01*
X0019562D02*
Y0040562D01*
X0020062Y0041062D02*
X0019562D01*
X0020062Y0040562D02*
Y0041062D01*
X0019562Y0040562D02*
X0020062D01*
Y0041062D02*
X0019562Y0040562D01*
X0020062D02*
X0019562Y0041062D01*
X0020562D02*
Y0040562D01*
X0021062Y0041062D02*
X0020562D01*
X0021062Y0040562D02*
Y0041062D01*
X0020562Y0040562D02*
X0021062D01*
Y0041062D02*
X0020562Y0040562D01*
X0021062D02*
X0020562Y0041062D01*
X0021562D02*
Y0040562D01*
X0022062Y0041062D02*
X0021562D01*
X0022062Y0040562D02*
Y0041062D01*
X0021562Y0040562D02*
X0022062D01*
Y0041062D02*
X0021562Y0040562D01*
X0022062D02*
X0021562Y0041062D01*
X0022562D02*
Y0040562D01*
X0023062Y0041062D02*
X0022562D01*
X0023062Y0040562D02*
Y0041062D01*
X0022562Y0040562D02*
X0023062D01*
Y0041062D02*
X0022562Y0040562D01*
X0023062D02*
X0022562Y0041062D01*
X0023562D02*
Y0040562D01*
X0024062Y0041062D02*
X0023562D01*
X0024062Y0040562D02*
Y0041062D01*
X0023562Y0040562D02*
X0024062D01*
Y0041062D02*
X0023562Y0040562D01*
X0024062D02*
X0023562Y0041062D01*
X0024562D02*
Y0040562D01*
X0025062Y0041062D02*
X0024562D01*
X0025062Y0040562D02*
Y0041062D01*
X0024562Y0040562D02*
X0025062D01*
Y0041062D02*
X0024562Y0040562D01*
X0025062D02*
X0024562Y0041062D01*
X0010625Y0043000D02*
Y0042500D01*
X0011125Y0043000D02*
X0010625D01*
X0011125Y0042500D02*
Y0043000D01*
X0010625Y0042500D02*
X0011125D01*
Y0043000D02*
X0010625Y0042500D01*
X0011125D02*
X0010625Y0043000D01*
X0011625D02*
Y0042500D01*
X0012125Y0043000D02*
X0011625D01*
X0012125Y0042500D02*
Y0043000D01*
X0011625Y0042500D02*
X0012125D01*
Y0043000D02*
X0011625Y0042500D01*
X0012125D02*
X0011625Y0043000D01*
X0012625D02*
Y0042500D01*
X0013125Y0043000D02*
X0012625D01*
X0013125Y0042500D02*
Y0043000D01*
X0012625Y0042500D02*
X0013125D01*
Y0043000D02*
X0012625Y0042500D01*
X0013125D02*
X0012625Y0043000D01*
X0013625D02*
Y0042500D01*
X0014125Y0043000D02*
X0013625D01*
X0014125Y0042500D02*
Y0043000D01*
X0013625Y0042500D02*
X0014125D01*
Y0043000D02*
X0013625Y0042500D01*
X0014125D02*
X0013625Y0043000D01*
X0014625D02*
Y0042500D01*
X0015125Y0043000D02*
X0014625D01*
X0015125Y0042500D02*
Y0043000D01*
X0014625Y0042500D02*
X0015125D01*
Y0043000D02*
X0014625Y0042500D01*
X0015125D02*
X0014625Y0043000D01*
X0015625D02*
Y0042500D01*
X0016125Y0043000D02*
X0015625D01*
X0016125Y0042500D02*
Y0043000D01*
X0015625Y0042500D02*
X0016125D01*
Y0043000D02*
X0015625Y0042500D01*
X0016125D02*
X0015625Y0043000D01*
X0016625D02*
Y0042500D01*
X0017125Y0043000D02*
X0016625D01*
X0017125Y0042500D02*
Y0043000D01*
X0016625Y0042500D02*
X0017125D01*
Y0043000D02*
X0016625Y0042500D01*
X0017125D02*
X0016625Y0043000D01*
X0017625D02*
Y0042500D01*
X0018125Y0043000D02*
X0017625D01*
X0018125Y0042500D02*
Y0043000D01*
X0017625Y0042500D02*
X0018125D01*
Y0043000D02*
X0017625Y0042500D01*
X0018125D02*
X0017625Y0043000D01*
X0018625D02*
Y0042500D01*
X0019125Y0043000D02*
X0018625D01*
X0019125Y0042500D02*
Y0043000D01*
X0018625Y0042500D02*
X0019125D01*
Y0043000D02*
X0018625Y0042500D01*
X0019125D02*
X0018625Y0043000D01*
X0019625D02*
Y0042500D01*
X0020125Y0043000D02*
X0019625D01*
X0020125Y0042500D02*
Y0043000D01*
X0019625Y0042500D02*
X0020125D01*
Y0043000D02*
X0019625Y0042500D01*
X0020125D02*
X0019625Y0043000D01*
X0020625D02*
Y0042500D01*
X0021125Y0043000D02*
X0020625D01*
X0021125Y0042500D02*
Y0043000D01*
X0020625Y0042500D02*
X0021125D01*
Y0043000D02*
X0020625Y0042500D01*
X0021125D02*
X0020625Y0043000D01*
X0021625D02*
Y0042500D01*
X0022125Y0043000D02*
X0021625D01*
X0022125Y0042500D02*
Y0043000D01*
X0021625Y0042500D02*
X0022125D01*
Y0043000D02*
X0021625Y0042500D01*
X0022125D02*
X0021625Y0043000D01*
X0022625D02*
Y0042500D01*
X0023125Y0043000D02*
X0022625D01*
X0023125Y0042500D02*
Y0043000D01*
X0022625Y0042500D02*
X0023125D01*
Y0043000D02*
X0022625Y0042500D01*
X0023125D02*
X0022625Y0043000D01*
X0023625D02*
Y0042500D01*
X0024125Y0043000D02*
X0023625D01*
X0024125Y0042500D02*
Y0043000D01*
X0023625Y0042500D02*
X0024125D01*
Y0043000D02*
X0023625Y0042500D01*
X0024125D02*
X0023625Y0043000D01*
X0024625D02*
Y0042500D01*
X0025125Y0043000D02*
X0024625D01*
X0025125Y0042500D02*
Y0043000D01*
X0024625Y0042500D02*
X0025125D01*
Y0043000D02*
X0024625Y0042500D01*
X0025125D02*
X0024625Y0043000D01*
Y0049004D02*
Y0048504D01*
X0025125Y0049004D02*
X0024625D01*
X0025125Y0048504D02*
Y0049004D01*
X0024625Y0048504D02*
X0025125D01*
Y0049004D02*
X0024625Y0048504D01*
X0025125D02*
X0024625Y0049004D01*
X0023625Y0049000D02*
Y0048500D01*
X0024125Y0049000D02*
X0023625D01*
X0024125Y0048500D02*
Y0049000D01*
X0023625Y0048500D02*
X0024125D01*
Y0049000D02*
X0023625Y0048500D01*
X0024125D02*
X0023625Y0049000D01*
X0022625D02*
Y0048500D01*
X0023125Y0049000D02*
X0022625D01*
X0023125Y0048500D02*
Y0049000D01*
X0022625Y0048500D02*
X0023125D01*
Y0049000D02*
X0022625Y0048500D01*
X0023125D02*
X0022625Y0049000D01*
X0021625Y0049004D02*
Y0048504D01*
X0022125Y0049004D02*
X0021625D01*
X0022125Y0048504D02*
Y0049004D01*
X0021625Y0048504D02*
X0022125D01*
Y0049004D02*
X0021625Y0048504D01*
X0022125D02*
X0021625Y0049004D01*
X0020625Y0049000D02*
Y0048500D01*
X0021125Y0049000D02*
X0020625D01*
X0021125Y0048500D02*
Y0049000D01*
X0020625Y0048500D02*
X0021125D01*
Y0049000D02*
X0020625Y0048500D01*
X0021125D02*
X0020625Y0049000D01*
X0019625Y0049004D02*
Y0048504D01*
X0020125Y0049004D02*
X0019625D01*
X0020125Y0048504D02*
Y0049004D01*
X0019625Y0048504D02*
X0020125D01*
Y0049004D02*
X0019625Y0048504D01*
X0020125D02*
X0019625Y0049004D01*
X0018625Y0049000D02*
Y0048500D01*
X0019125Y0049000D02*
X0018625D01*
X0019125Y0048500D02*
Y0049000D01*
X0018625Y0048500D02*
X0019125D01*
Y0049000D02*
X0018625Y0048500D01*
X0019125D02*
X0018625Y0049000D01*
X0017625D02*
Y0048500D01*
X0018125Y0049000D02*
X0017625D01*
X0018125Y0048500D02*
Y0049000D01*
X0017625Y0048500D02*
X0018125D01*
Y0049000D02*
X0017625Y0048500D01*
X0018125D02*
X0017625Y0049000D01*
X0016629D02*
Y0048500D01*
X0017129Y0049000D02*
X0016629D01*
X0017129Y0048500D02*
Y0049000D01*
X0016629Y0048500D02*
X0017129D01*
Y0049000D02*
X0016629Y0048500D01*
X0017129D02*
X0016629Y0049000D01*
X0015625D02*
Y0048500D01*
X0016125Y0049000D02*
X0015625D01*
X0016125Y0048500D02*
Y0049000D01*
X0015625Y0048500D02*
X0016125D01*
Y0049000D02*
X0015625Y0048500D01*
X0016125D02*
X0015625Y0049000D01*
X0014625D02*
Y0048500D01*
X0015125Y0049000D02*
X0014625D01*
X0015125Y0048500D02*
Y0049000D01*
X0014625Y0048500D02*
X0015125D01*
Y0049000D02*
X0014625Y0048500D01*
X0015125D02*
X0014625Y0049000D01*
X0013625D02*
Y0048500D01*
X0014125Y0049000D02*
X0013625D01*
X0014125Y0048500D02*
Y0049000D01*
X0013625Y0048500D02*
X0014125D01*
Y0049000D02*
X0013625Y0048500D01*
X0014125D02*
X0013625Y0049000D01*
X0012625D02*
Y0048500D01*
X0013125Y0049000D02*
X0012625D01*
X0013125Y0048500D02*
Y0049000D01*
X0012625Y0048500D02*
X0013125D01*
Y0049000D02*
X0012625Y0048500D01*
X0013125D02*
X0012625Y0049000D01*
X0011625D02*
Y0048500D01*
X0012125Y0049000D02*
X0011625D01*
X0012125Y0048500D02*
Y0049000D01*
X0011625Y0048500D02*
X0012125D01*
Y0049000D02*
X0011625Y0048500D01*
X0012125D02*
X0011625Y0049000D01*
X0010625D02*
Y0048500D01*
X0011125Y0049000D02*
X0010625D01*
X0011125Y0048500D02*
Y0049000D01*
X0010625Y0048500D02*
X0011125D01*
Y0049000D02*
X0010625Y0048500D01*
X0011125D02*
X0010625Y0049000D01*
X0012125Y0044500D02*
X0011625Y0044000D01*
X0012125D02*
X0011625Y0044500D01*
X0012125Y0045340D02*
X0011625Y0044840D01*
X0012125D02*
X0011625Y0045340D01*
X0012125Y0046625D02*
X0011625Y0046125D01*
X0012125D02*
X0011625Y0046625D01*
X0012125Y0047465D02*
X0011625Y0046965D01*
X0012125D02*
X0011625Y0047465D01*
X0016437Y0046687D02*
Y0046437D01*
X0016687Y0046687D02*
X0016437D01*
X0016687Y0046187D02*
Y0046687D01*
X0016937Y0046187D02*
X0016687D01*
X0016937Y0046437D02*
Y0046187D01*
X0016437Y0046437D02*
X0016937D01*
X0016437Y0044687D02*
Y0044437D01*
X0016687Y0044687D02*
X0016437D01*
X0016687Y0044187D02*
Y0044687D01*
X0016937Y0044187D02*
X0016687D01*
X0016937Y0044437D02*
Y0044187D01*
X0016437Y0044437D02*
X0016937D01*
X0018687Y0046687D02*
Y0046437D01*
X0018937Y0046687D02*
X0018687D01*
X0018937Y0046187D02*
Y0046687D01*
X0019187Y0046187D02*
X0018937D01*
X0019187Y0046437D02*
Y0046187D01*
X0018687Y0046437D02*
X0019187D01*
X0018687Y0044687D02*
Y0044437D01*
X0018937Y0044687D02*
X0018687D01*
X0018937Y0044187D02*
Y0044687D01*
X0019187Y0044187D02*
X0018937D01*
X0019187Y0044437D02*
Y0044187D01*
X0018687Y0044437D02*
X0019187D01*
X0009937Y0044500D02*
Y0044000D01*
X0010437Y0044500D02*
X0009937D01*
X0010437Y0044000D02*
Y0044500D01*
X0009937Y0044000D02*
X0010437D01*
Y0044500D02*
X0009937Y0044000D01*
X0010437D02*
X0009937Y0044500D01*
Y0045500D02*
Y0045000D01*
X0010437Y0045500D02*
X0009937D01*
X0010437Y0045000D02*
Y0045500D01*
X0009937Y0045000D02*
X0010437D01*
Y0045500D02*
X0009937Y0045000D01*
X0010437D02*
X0009937Y0045500D01*
Y0046500D02*
Y0046000D01*
X0010437Y0046500D02*
X0009937D01*
X0010437Y0046000D02*
Y0046500D01*
X0009937Y0046000D02*
X0010437D01*
Y0046500D02*
X0009937Y0046000D01*
X0010437D02*
X0009937Y0046500D01*
Y0047500D02*
Y0047000D01*
X0010437Y0047500D02*
X0009937D01*
X0010437Y0047000D02*
Y0047500D01*
X0009937Y0047000D02*
X0010437D01*
Y0047500D02*
X0009937Y0047000D01*
X0010437D02*
X0009937Y0047500D01*
X0014375Y0046625D02*
X0013875Y0046125D01*
X0014375D02*
X0013875Y0046625D01*
X0014375Y0047465D02*
X0013875Y0046965D01*
X0014375D02*
X0013875Y0047465D01*
X0013187Y0046625D02*
X0012687Y0046125D01*
X0013187D02*
X0012687Y0046625D01*
X0013187Y0047465D02*
X0012687Y0046965D01*
X0013187D02*
X0012687Y0047465D01*
M02*
