*
G04 Mass Parameters ***
*
G04 Image ***
*
%INC:\USERS\RAJ\DOCUMENTS\CATAGORIES\SENSORS, MODULES\OPA381 LIGHT SENSOR\EL\LAYOUT\FINAL.BOT*%
%ICAS*%
%MOIN*%
%IPPOS*%
%ASAXBY*%
G74*%FSLAN2X34Y34*%
*
G04 Aperture Definitions ***
*
%ADD10R,0.0500X0.0500*%
%ADD11O,0.0600X0.0160*%
%ADD12R,0.0600X0.0160*%
%ADD13O,0.0630X0.0630*%
%ADD14R,0.0630X0.0630*%
%ADD15C,0.0800*%
%ADD16R,0.0800X0.0800*%
%ADD17O,0.0590X0.0630*%
%ADD18R,0.0590X0.0787*%
%ADD19C,0.0650*%
%ADD20R,0.0650X0.0650*%
%ADD21C,0.0100*%
%ADD22C,0.0177*%
%ADD23C,0.0250*%
%ADD24C,0.0150*%
*
G04 Plot Data ***
*
G54D21*
G01X0021875Y0048754D02*
Y0048750D01*
X0021375Y0048250D01*
X0015562D01*
X0014527Y0047215D01*
X0014125D01*
X0010187Y0046250D02*
X0010937D01*
X0011875Y0047187D01*
Y0047215D01*
Y0045090D02*
X0012222Y0045437D01*
X0015937D01*
X0016750Y0044625D01*
Y0044500D01*
X0016687Y0044437D01*
X0013875Y0048750D02*
Y0048687D01*
X0013312Y0048125D01*
X0013187D01*
X0012437Y0047375D01*
Y0046937D01*
X0011875Y0046375D01*
X0010187Y0046250D02*
Y0045250D01*
X0011875Y0044250D02*
X0011312Y0044812D01*
Y0045625D01*
X0011875Y0046187D01*
Y0046375D01*
X0014125Y0047215D02*
X0012937D01*
X0011875Y0048750D02*
Y0047215D01*
X0024515Y0048440D02*
X0024238D01*
X0026500Y0048530D02*
X0025293D01*
X0026370Y0048307D02*
X0025380D01*
Y0047317D01*
X0026370D02*
X0025380D01*
X0026370Y0048307D02*
Y0047317D01*
X0021497Y0043040D02*
X0021253D01*
X0022497D02*
X0022253D01*
X0023497D02*
X0023253D01*
X0024497D02*
X0024253D01*
X0026370Y0045057D02*
X0025380D01*
Y0044067D01*
X0026370D02*
X0025380D01*
X0026370Y0045057D02*
Y0044067D01*
X0024580Y0049160D02*
X0024170D01*
X0023497Y0051250D02*
Y0051181D01*
X0024580Y0049700D02*
X0024170D01*
X0023587Y0050309D02*
Y0049135D01*
X0023580Y0049160D02*
X0023170D01*
X0022528Y0050420D02*
X0022170D01*
X0018457Y0051250D02*
Y0051142D01*
X0021528Y0050420D02*
X0021170D01*
X0020528D02*
X0020170D01*
X0018580Y0050330D02*
X0018170D01*
X0017580Y0049160D02*
X0017174D01*
X0017467Y0051250D02*
Y0051153D01*
X0017580Y0050330D02*
X0017174D01*
X0016584D02*
X0016170D01*
X0014528Y0050420D02*
X0014170D01*
X0014580Y0050330D02*
X0014170D01*
X0013057Y0051250D02*
Y0051230D01*
X0011580Y0041510D02*
X0011170D01*
X0010567Y0049700D02*
X0009187D01*
X0010567Y0049610D02*
X0009187D01*
X0024580Y0042230D02*
X0024170D01*
X0023580Y0041240D02*
X0023170D01*
X0026500Y0042770D02*
X0025340D01*
X0022580Y0041780D02*
X0022170D01*
X0021580Y0041240D02*
X0021170D01*
X0020580D02*
X0020170D01*
X0019580D02*
X0019170D01*
X0016580Y0041330D02*
X0016170D01*
X0016580Y0042230D02*
X0016170D01*
X0015580Y0041240D02*
X0015170D01*
X0016465Y0041150D02*
X0016170D01*
X0014580Y0041240D02*
X0014170D01*
X0016580Y0042320D02*
X0016170D01*
X0013580Y0042050D02*
X0013170D01*
X0018580Y0041420D02*
X0018170D01*
X0010580Y0042050D02*
X0009187D01*
X0010328Y0041297D02*
Y0040328D01*
X0011297D02*
X0010328D01*
X0011297Y0041297D02*
Y0040328D01*
X0010410Y0048770D02*
Y0048730D01*
X0011340Y0048770D02*
Y0048730D01*
X0011410Y0048770D02*
Y0048730D01*
X0011655Y0047360D02*
X0010659D01*
X0012340Y0048770D02*
Y0048730D01*
X0012410Y0048770D02*
Y0048730D01*
X0012651Y0047900D02*
X0012095D01*
X0013340Y0048770D02*
Y0048730D01*
X0013410Y0048770D02*
Y0048730D01*
X0013316Y0048440D02*
X0013238D01*
X0014340Y0048770D02*
Y0048730D01*
X0014410Y0048770D02*
Y0048730D01*
X0015340Y0048770D02*
Y0048730D01*
X0015410Y0048770D02*
Y0048730D01*
X0015351Y0048350D02*
X0015142D01*
X0016477Y0048030D02*
Y0047007D01*
X0016340Y0048770D02*
Y0048730D01*
X0016414Y0048770D02*
Y0048730D01*
X0017344Y0048770D02*
Y0048730D01*
X0018528Y0050420D02*
X0018170D01*
X0017410Y0048770D02*
Y0048730D01*
X0018340Y0048770D02*
Y0048730D01*
X0018410Y0048770D02*
Y0048730D01*
X0019340Y0048770D02*
Y0048730D01*
X0019410Y0048773D02*
Y0048734D01*
X0020340Y0048773D02*
Y0048734D01*
X0020410Y0048770D02*
Y0048730D01*
X0021340Y0048770D02*
Y0048730D01*
X0021410Y0048773D02*
Y0048734D01*
X0011580Y0049430D02*
X0011057D01*
X0022340Y0048773D02*
Y0048734D01*
X0022410Y0048770D02*
Y0048730D01*
X0014677Y0048309D02*
Y0047676D01*
X0023340Y0048770D02*
Y0048730D01*
X0023410Y0048770D02*
Y0048730D01*
X0011655Y0047630D02*
X0010488D01*
X0024340Y0048770D02*
Y0048730D01*
X0024410Y0048773D02*
Y0048734D01*
X0011655Y0047720D02*
X0010306D01*
X0025340Y0048773D02*
Y0048734D01*
X0023587Y0043159D02*
Y0043135D01*
X0024410Y0042770D02*
Y0042730D01*
X0025340Y0042770D02*
Y0042730D01*
X0022597Y0043152D02*
Y0043143D01*
X0023410Y0042770D02*
Y0042730D01*
X0023580Y0042320D02*
X0023170D01*
X0024340Y0042770D02*
Y0042730D01*
X0022517Y0043220D02*
X0022232D01*
X0022410Y0042770D02*
Y0042730D01*
X0023340Y0042770D02*
Y0042730D01*
X0022237Y0043225D02*
Y0043061D01*
X0021410Y0042770D02*
Y0042730D01*
X0022340Y0042770D02*
Y0042730D01*
X0020410Y0042770D02*
Y0042730D01*
X0021340Y0042770D02*
Y0042730D01*
X0019410Y0042770D02*
Y0042730D01*
X0020340Y0042770D02*
Y0042730D01*
X0018410Y0042770D02*
Y0042730D01*
X0019340Y0042770D02*
Y0042730D01*
X0017410Y0042770D02*
Y0042730D01*
X0013580Y0049790D02*
X0013170D01*
X0018340Y0042770D02*
Y0042730D01*
X0016410Y0042770D02*
Y0042730D01*
X0017340Y0042770D02*
Y0042730D01*
X0015410Y0042770D02*
Y0042730D01*
X0016340Y0042770D02*
Y0042730D01*
X0014410Y0042770D02*
Y0042730D01*
X0015340Y0042770D02*
Y0042730D01*
X0013410Y0042770D02*
Y0042730D01*
X0014340Y0042770D02*
Y0042730D01*
X0012410Y0042770D02*
Y0042730D01*
X0012580Y0041870D02*
X0012170D01*
X0013340Y0042770D02*
Y0042730D01*
X0011410Y0042770D02*
Y0042730D01*
X0012340Y0042770D02*
Y0042730D01*
X0011340Y0043314D02*
X0010410D01*
Y0042186D01*
X0012877Y0040332D02*
Y0040250D01*
X0011340Y0043314D02*
Y0042186D01*
X0011854Y0045380D02*
X0011532D01*
X0016133Y0044570D02*
X0011866D01*
X0011167Y0046169D02*
Y0045791D01*
Y0048369D02*
Y0046791D01*
X0011092Y0045020D02*
X0010614D01*
X0020390Y0045830D02*
X0011829D01*
X0012217Y0047180D02*
X0012131D01*
X0016207Y0044856D02*
Y0044745D01*
X0017257Y0047007D02*
X0016117D01*
Y0045867D01*
X0017257D02*
X0016117D01*
X0017257Y0047007D02*
Y0045867D01*
X0019507Y0047007D02*
X0018367D01*
Y0045867D01*
X0019507D02*
X0018367D01*
X0019507Y0047007D02*
Y0045867D01*
X0012967Y0047594D02*
Y0047472D01*
X0011976Y0046977D02*
X0011095Y0046096D01*
X0010717Y0048293D02*
Y0046470D01*
X0009703Y0044735D02*
Y0043765D01*
X0010672D02*
X0009703D01*
X0010672Y0044735D02*
Y0043765D01*
Y0044735D02*
X0009703D01*
X0013867Y0048265D02*
Y0047435D01*
X0015081Y0048080D02*
X0013578D01*
X0012291Y0047540D02*
X0012095D01*
X0013147Y0047774D02*
Y0047435D01*
X0009625Y0040250D02*
X0009187D01*
Y0051250D02*
Y0040250D01*
X0010447Y0050493D02*
Y0048952D01*
X0026500Y0051250D02*
Y0040250D01*
X0009625D01*
X0022777Y0040329D02*
Y0040250D01*
X0026467Y0051250D02*
Y0040250D01*
X0025634Y0043130D02*
X0025169D01*
X0024577Y0043167D02*
Y0043127D01*
X0026377Y0051250D02*
Y0040250D01*
X0026287Y0043288D02*
Y0040250D01*
X0026197Y0043187D02*
Y0040250D01*
X0026107Y0043125D02*
Y0040250D01*
X0026017Y0043088D02*
Y0040250D01*
X0025927Y0043070D02*
Y0040250D01*
X0025837Y0043069D02*
Y0040250D01*
X0025747Y0043084D02*
Y0040250D01*
X0025657Y0043118D02*
Y0040250D01*
X0026500Y0040790D02*
X0025296D01*
X0025207Y0040531D02*
Y0040250D01*
X0024580Y0042371D02*
Y0041238D01*
X0026500Y0041780D02*
X0025170D01*
X0025297Y0042536D02*
Y0040250D01*
X0026500Y0041600D02*
X0025170D01*
X0025027Y0040378D02*
Y0040250D01*
X0026500Y0041510D02*
X0025170D01*
X0025387Y0043477D02*
Y0040250D01*
X0024757Y0040331D02*
Y0040250D01*
X0024577Y0040388D02*
Y0040250D01*
X0024328Y0040790D02*
X0024296D01*
X0024217Y0040546D02*
Y0040250D01*
X0023580Y0042371D02*
Y0041238D01*
X0024580Y0041870D02*
X0024170D01*
X0026500Y0041420D02*
X0025170D01*
X0024127Y0040444D02*
Y0040250D01*
X0024037Y0040383D02*
Y0040250D01*
X0023947Y0040347D02*
Y0040250D01*
X0024397Y0040562D02*
Y0040250D01*
X0023767Y0040330D02*
Y0040250D01*
X0023587Y0040383D02*
Y0040250D01*
X0023170Y0042371D02*
Y0041139D01*
X0023227Y0040562D02*
Y0040250D01*
X0023328Y0040790D02*
X0023296D01*
X0026500Y0041330D02*
X0025170D01*
X0023426Y0040520D02*
X0023199D01*
X0023137Y0040453D02*
Y0040250D01*
X0023047Y0040388D02*
Y0040250D01*
X0026500Y0042230D02*
X0025170D01*
X0022867Y0040331D02*
Y0040250D01*
X0023407Y0040546D02*
Y0040250D01*
X0022687Y0040344D02*
Y0040250D01*
X0026500Y0042680D02*
X0025337D01*
X0022426Y0040520D02*
X0022199D01*
X0021580Y0042371D02*
Y0041238D01*
X0020617Y0040369D02*
Y0040250D01*
X0022147Y0040462D02*
Y0040250D01*
X0022332Y0040880D02*
X0022292D01*
X0021967Y0040353D02*
Y0040250D01*
X0021877Y0040332D02*
Y0040250D01*
X0021787Y0040328D02*
Y0040250D01*
X0021697Y0040341D02*
Y0040250D01*
X0021170Y0042371D02*
Y0041139D01*
X0021426Y0040520D02*
X0021199D01*
X0020580Y0042371D02*
Y0041238D01*
X0020257Y0040620D02*
Y0040250D01*
X0019627Y0040364D02*
Y0040250D01*
X0021157Y0040472D02*
Y0040250D01*
X0021067Y0040400D02*
Y0040250D01*
X0021328Y0040790D02*
X0021296D01*
X0020887Y0040333D02*
Y0040250D01*
X0020797Y0040328D02*
Y0040250D01*
X0020707Y0040339D02*
Y0040250D01*
X0020527Y0040420D02*
Y0040250D01*
X0020170Y0042371D02*
Y0041139D01*
X0019341Y0040700D02*
X0019284D01*
X0017917Y0040339D02*
Y0040250D01*
X0020426Y0040520D02*
X0020199D01*
X0018637Y0040360D02*
Y0040250D01*
X0020077Y0040406D02*
Y0040250D01*
X0019987Y0040360D02*
Y0040250D01*
X0020257Y0042466D02*
Y0041004D01*
X0019807Y0040328D02*
Y0040250D01*
X0011652Y0044120D02*
X0010672D01*
X0016117Y0046190D02*
X0014305D01*
X0019717Y0040337D02*
Y0040250D01*
X0019537Y0040413D02*
Y0040250D01*
X0018410Y0042770D02*
X0018340D01*
X0019332Y0040880D02*
X0019292D01*
X0020167Y0040482D02*
Y0040250D01*
X0019267Y0040645D02*
Y0040250D01*
X0019177Y0040493D02*
Y0040250D01*
X0018372Y0040610D02*
X0018253D01*
X0018997Y0040364D02*
Y0040250D01*
X0018704Y0040340D02*
X0017921D01*
X0018547Y0040406D02*
Y0040250D01*
X0019538Y0042410D02*
X0019212D01*
X0018170Y0042371D02*
Y0041139D01*
X0021247Y0040599D02*
Y0040250D01*
X0018277Y0040676D02*
Y0040250D01*
X0018187Y0040505D02*
Y0040250D01*
X0018426Y0040520D02*
X0018199D01*
X0017580Y0042371D02*
Y0041238D01*
X0018332Y0040880D02*
X0018292D01*
X0017827Y0040328D02*
Y0040250D01*
X0017737Y0040333D02*
Y0040250D01*
X0017557Y0040400D02*
Y0040250D01*
X0017170Y0042371D02*
Y0041139D01*
X0015937Y0048030D02*
Y0045657D01*
X0012095Y0046240D02*
Y0046187D01*
X0016580Y0042371D02*
Y0041238D01*
X0021449Y0043310D02*
X0009187D01*
X0017287Y0040716D02*
Y0040250D01*
X0017197Y0040518D02*
Y0040250D01*
X0013957Y0040350D02*
Y0040250D01*
X0017354Y0040970D02*
X0017271D01*
X0013687Y0040344D02*
Y0040250D01*
X0016837Y0040328D02*
Y0040250D01*
X0016747Y0040332D02*
Y0040250D01*
X0013597Y0040378D02*
Y0040250D01*
X0015580Y0042371D02*
Y0041238D01*
X0017107Y0040428D02*
Y0040250D01*
X0016207Y0040531D02*
Y0040250D01*
X0016341Y0040700D02*
X0016284D01*
X0017647Y0040357D02*
Y0040250D01*
X0015937Y0040344D02*
Y0040250D01*
X0015847Y0040329D02*
Y0040250D01*
X0015514Y0040430D02*
X0015110D01*
X0015577Y0040388D02*
Y0040250D01*
X0015170Y0042371D02*
Y0041139D01*
X0016297Y0042536D02*
Y0040250D01*
X0014580Y0042371D02*
Y0041238D01*
X0016117Y0040436D02*
Y0040250D01*
X0015217Y0040546D02*
Y0040250D01*
X0015372Y0040610D02*
X0015253D01*
X0015487Y0040453D02*
Y0040250D01*
X0014947Y0040347D02*
Y0040250D01*
X0014857Y0040330D02*
Y0040250D01*
X0015354Y0040970D02*
X0015271D01*
X0014587Y0040383D02*
Y0040250D01*
X0014227Y0048427D02*
Y0047452D01*
X0014170Y0042371D02*
Y0041139D01*
X0013867Y0040331D02*
Y0040250D01*
X0013580Y0042371D02*
Y0041238D01*
X0016027Y0040378D02*
Y0040250D01*
X0014227Y0040562D02*
Y0040250D01*
X0014047Y0040388D02*
Y0040250D01*
X0015307Y0042559D02*
Y0040250D01*
X0014317Y0042587D02*
Y0040250D01*
X0016387Y0040579D02*
Y0040250D01*
X0012580Y0042320D02*
X0012170D01*
X0013170Y0042371D02*
Y0041139D01*
X0010897Y0040328D02*
Y0040250D01*
X0009708Y0047180D02*
X0009187D01*
X0012580Y0042371D02*
Y0041238D01*
X0010580Y0041960D02*
X0009187D01*
X0013237Y0040579D02*
Y0040250D01*
X0013147Y0040462D02*
Y0040250D01*
X0012538Y0042410D02*
X0012212D01*
X0012337Y0040716D02*
Y0040250D01*
X0013507Y0040436D02*
Y0040250D01*
X0010717Y0040328D02*
Y0040250D01*
X0012170Y0042371D02*
Y0041139D01*
X0011580Y0041240D02*
X0011297D01*
X0011580Y0042371D02*
Y0041238D01*
X0011092Y0045470D02*
X0010619D01*
X0011092Y0045110D02*
X0010651D01*
X0012967Y0040353D02*
Y0040250D01*
X0012247Y0040599D02*
Y0040250D01*
X0012157Y0040472D02*
Y0040250D01*
X0013327Y0042622D02*
Y0040250D01*
X0010580Y0041780D02*
X0009187D01*
X0011332Y0040880D02*
X0011297D01*
X0011527Y0040420D02*
Y0040250D01*
X0011170Y0042186D02*
Y0041297D01*
X0010580Y0042186D02*
Y0041297D01*
X0011977Y0040357D02*
Y0040250D01*
X0011257Y0040328D02*
Y0040250D01*
X0011167Y0042186D02*
Y0041297D01*
X0011077Y0040328D02*
Y0040250D01*
X0010987Y0040328D02*
Y0040250D01*
X0009823Y0044930D02*
X0009187D01*
X0010580Y0041870D02*
X0009187D01*
X0011347Y0040676D02*
Y0040250D01*
X0012427Y0040518D02*
Y0040250D01*
X0010537Y0040328D02*
Y0040250D01*
X0010410Y0042680D02*
X0009187D01*
X0010267Y0043765D02*
Y0040250D01*
X0010177Y0043765D02*
Y0040250D01*
X0010087Y0043765D02*
Y0040250D01*
X0009997Y0043765D02*
Y0040250D01*
X0009907Y0043765D02*
Y0040250D01*
X0009727Y0043765D02*
Y0040250D01*
X0009637Y0051250D02*
Y0040250D01*
X0009547Y0051250D02*
Y0040250D01*
X0009457Y0051250D02*
Y0040250D01*
X0009367Y0051250D02*
Y0040250D01*
X0013885Y0046280D02*
X0013177D01*
X0010604Y0051250D02*
X0009187D01*
X0010566Y0051230D02*
X0009187D01*
X0010455Y0051140D02*
X0009187D01*
X0010390Y0051050D02*
X0009187D01*
X0010351Y0050960D02*
X0009187D01*
X0010329Y0050780D02*
X0009187D01*
X0010343Y0050690D02*
X0009187D01*
X0010377Y0050600D02*
X0009187D01*
X0011580Y0042230D02*
X0011340D01*
X0011580Y0041600D02*
X0011170D01*
X0011566Y0046190D02*
X0011188D01*
X0012528Y0050420D02*
X0012170D01*
X0012157Y0051250D02*
Y0051153D01*
X0011580Y0050330D02*
X0011057D01*
X0018457Y0048030D02*
Y0047007D01*
X0021426Y0048612D02*
X0021284Y0048470D01*
X0022580Y0050240D02*
X0022170D01*
X0018490Y0048470D02*
X0018260D01*
X0024667Y0044113D02*
Y0044012D01*
X0023677Y0044108D02*
Y0044016D01*
X0025567Y0045438D02*
Y0045057D01*
X0024667Y0045374D02*
Y0045012D01*
X0023677Y0045370D02*
Y0045016D01*
X0022687Y0045365D02*
Y0045020D01*
X0021697Y0045361D02*
Y0045024D01*
X0014580Y0050240D02*
X0014170D01*
X0009715Y0047360D02*
X0009187D01*
X0009703Y0047270D02*
X0009187D01*
X0010069Y0047720D02*
X0009187D01*
X0013990Y0046995D02*
X0013073D01*
X0011206Y0045830D02*
X0010429D01*
X0010537Y0046915D02*
Y0046585D01*
X0009746Y0047450D02*
X0009187D01*
X0009886Y0047630D02*
X0009187D01*
X0009799Y0047540D02*
X0009187D01*
X0009730Y0047090D02*
X0009187D01*
X0011655Y0047990D02*
X0009187D01*
X0009907Y0051250D02*
Y0047646D01*
X0009750Y0046460D02*
X0009187D01*
X0009727Y0047097D02*
Y0046403D01*
X0009772Y0047000D02*
X0009187D01*
X0010120Y0046730D02*
X0009187D01*
X0009899Y0046640D02*
X0009187D01*
X0009704Y0046280D02*
X0009187D01*
X0009706Y0046190D02*
X0009187D01*
X0009726Y0046100D02*
X0009187D01*
X0010455Y0048530D02*
X0009187D01*
X0020437Y0045328D02*
Y0042927D01*
X0010407Y0045818D02*
Y0045682D01*
X0010410Y0043040D02*
X0009187D01*
X0009914Y0045650D02*
X0009187D01*
X0009815Y0045560D02*
X0009187D01*
X0009703Y0044300D02*
X0009187D01*
X0009720Y0045380D02*
X0009187D01*
X0009967Y0045740D02*
X0009187D01*
X0009705Y0045200D02*
X0009187D01*
X0009723Y0045110D02*
X0009187D01*
X0009761Y0045020D02*
X0009187D01*
X0011707Y0044893D02*
Y0044728D01*
X0009817Y0043765D02*
Y0040250D01*
X0009755Y0045470D02*
X0009187D01*
X0009703Y0044660D02*
X0009187D01*
X0011101Y0044750D02*
X0009187D01*
X0009703Y0044480D02*
X0009187D01*
X0009703Y0044390D02*
X0009187D01*
X0009929Y0044840D02*
X0009187D01*
X0009703Y0044210D02*
X0009187D01*
X0009703Y0044120D02*
X0009187D01*
X0009703Y0044030D02*
X0009187D01*
X0022417Y0043374D02*
Y0042852D01*
X0021787Y0044075D02*
Y0044049D01*
X0021607Y0044146D02*
Y0043979D01*
X0021427Y0043351D02*
Y0042895D01*
X0021472Y0043850D02*
X0010672D01*
X0009703D02*
X0009187D01*
X0014580Y0042050D02*
X0014170D01*
X0026500Y0045110D02*
X0016576D01*
X0010410Y0043220D02*
X0009187D01*
X0010627Y0040328D02*
Y0040250D01*
X0010328Y0040880D02*
X0009187D01*
X0010410Y0042950D02*
X0009187D01*
X0010410Y0042860D02*
X0009187D01*
X0010410Y0042770D02*
X0009187D01*
X0009277Y0051250D02*
Y0040250D01*
X0010410Y0042590D02*
X0009187D01*
X0010410Y0042500D02*
X0009187D01*
X0010410Y0042410D02*
X0009187D01*
X0015580Y0042320D02*
X0015170D01*
X0011580D02*
X0011340D01*
X0013580Y0041870D02*
X0013170D01*
X0014407Y0040546D02*
Y0040250D01*
X0010580Y0042140D02*
X0009187D01*
X0010580Y0041297D02*
X0010328D01*
X0010580Y0042186D02*
X0010410D01*
X0011797Y0040328D02*
Y0040250D01*
X0012787Y0040328D02*
Y0040250D01*
X0010580Y0041690D02*
X0009187D01*
X0010447Y0040328D02*
Y0040250D01*
X0010357Y0040328D02*
Y0040250D01*
X0011887Y0040333D02*
Y0040250D01*
X0010328Y0041150D02*
X0009187D01*
X0013417Y0040531D02*
Y0040250D01*
X0010328Y0040970D02*
X0009187D01*
X0010580Y0041330D02*
X0009187D01*
X0010328Y0040790D02*
X0009187D01*
X0010328Y0040700D02*
X0009187D01*
X0010328Y0040610D02*
X0009187D01*
X0010328Y0040520D02*
X0009187D01*
X0013327Y0051250D02*
Y0048877D01*
X0011797Y0045799D02*
Y0045336D01*
X0021517Y0045485D02*
Y0044904D01*
X0011655Y0048080D02*
X0009187D01*
X0009842Y0046910D02*
X0009187D01*
X0010447Y0046841D02*
Y0046659D01*
X0010357Y0046796D02*
Y0046704D01*
X0010267Y0046772D02*
Y0046728D01*
X0010177Y0046765D02*
Y0046734D01*
X0010087Y0046776D02*
Y0046724D01*
X0009997Y0046804D02*
Y0046696D01*
X0009907Y0046854D02*
Y0046646D01*
X0009817Y0046937D02*
Y0046563D01*
X0009832Y0045920D02*
X0009187D01*
X0010717Y0046030D02*
Y0043314D01*
X0010537Y0045915D02*
Y0045585D01*
X0010447Y0045841D02*
Y0045659D01*
X0009704Y0045290D02*
X0009187D01*
X0011125Y0045740D02*
X0010407D01*
X0016117Y0046640D02*
X0012451D01*
X0016117Y0046730D02*
X0012541D01*
X0012967Y0048275D02*
Y0048216D01*
X0011617Y0045619D02*
Y0045108D01*
X0011257Y0044556D02*
Y0043314D01*
X0011532Y0044903D02*
X0011935Y0044501D01*
X0011094Y0045650D02*
X0010461D01*
X0012517Y0046706D02*
Y0045657D01*
X0011244Y0044570D02*
X0010672D01*
X0011092Y0045290D02*
X0010670D01*
X0011092Y0045380D02*
X0010654D01*
X0018727Y0040335D02*
Y0040250D01*
X0016927Y0040341D02*
Y0040250D01*
X0009967Y0045818D02*
Y0045682D01*
X0010627Y0045047D02*
Y0044735D01*
X0010537Y0044915D02*
Y0044735D01*
X0010447Y0044841D02*
Y0044735D01*
X0010357Y0044796D02*
Y0044735D01*
X0010267Y0044772D02*
Y0044735D01*
X0010177Y0044765D02*
Y0044735D01*
X0010087Y0044776D02*
Y0044735D01*
X0009997Y0044804D02*
Y0044735D01*
X0009907Y0044854D02*
Y0044735D01*
X0009817Y0044937D02*
Y0044735D01*
X0011092Y0044840D02*
X0010446D01*
X0016211Y0044750D02*
X0011686D01*
X0016163Y0044660D02*
X0011776D01*
X0011092Y0044930D02*
X0010551D01*
X0011154Y0044660D02*
X0010672D01*
X0011334Y0044480D02*
X0010672D01*
X0011424Y0044390D02*
X0010672D01*
X0024307Y0043321D02*
Y0042941D01*
X0009945Y0045830D02*
X0009187D01*
X0010512Y0048440D02*
X0009187D01*
X0025387Y0046727D02*
Y0045057D01*
X0024577Y0045430D02*
Y0044958D01*
X0023587Y0045422D02*
Y0044965D01*
X0018817Y0040328D02*
Y0040250D01*
X0013777Y0045217D02*
Y0043224D01*
X0014317Y0046995D02*
Y0046547D01*
X0013982Y0047000D02*
X0013080D01*
X0021375Y0048030D02*
X0015653D01*
X0014227Y0046978D02*
Y0046612D01*
X0014137Y0046957D02*
Y0046633D01*
X0014047Y0046969D02*
Y0046621D01*
X0013687Y0045217D02*
Y0043195D01*
X0012693Y0046460D02*
X0012271D01*
X0014497Y0046995D02*
Y0045657D01*
X0016117Y0046550D02*
X0014315D01*
X0016117Y0046460D02*
X0014369D01*
X0016117Y0046370D02*
X0014383D01*
X0012607Y0045217D02*
Y0043150D01*
X0013507Y0045217D02*
Y0043054D01*
X0012831Y0048080D02*
X0012095D01*
X0013057Y0047684D02*
Y0047444D01*
X0012741Y0047990D02*
X0012095D01*
X0013990Y0047435D02*
X0013073D01*
X0014018Y0047450D02*
X0013045D01*
X0013147Y0046995D02*
Y0046525D01*
X0013278Y0047905D02*
X0012817Y0047444D01*
X0013441Y0048564D02*
X0013221Y0048345D01*
X0013945Y0046190D02*
X0013118D01*
X0012561Y0047810D02*
X0012095D01*
X0013057Y0046986D02*
Y0046604D01*
X0012967Y0046958D02*
Y0046632D01*
X0012877Y0046964D02*
Y0046626D01*
X0012787Y0047005D02*
Y0046585D01*
X0013580Y0042230D02*
X0013170D01*
X0013935Y0046550D02*
X0013127D01*
X0013881Y0046460D02*
X0013181D01*
X0013867Y0046370D02*
X0013196D01*
X0022327Y0042622D02*
Y0040250D01*
X0009718Y0046370D02*
X0009187D01*
X0010410Y0048710D02*
X0009187D01*
X0011423Y0048620D02*
X0011327D01*
X0011410Y0048710D02*
X0011339D01*
X0011077Y0050406D02*
Y0049188D01*
X0011167Y0051250D02*
Y0051142D01*
X0010357Y0050645D02*
Y0047704D01*
X0010537Y0048411D02*
Y0047585D01*
X0011057Y0050394D02*
Y0049197D01*
X0011411Y0048800D02*
X0011339D01*
X0011426Y0048890D02*
X0011324D01*
X0011460Y0048980D02*
X0011290D01*
X0011520Y0049070D02*
X0011230D01*
X0011527Y0048421D02*
Y0047151D01*
X0021580Y0050387D02*
Y0049133D01*
X0019357Y0051250D02*
Y0050979D01*
X0022331Y0050870D02*
X0022293D01*
X0022351Y0050960D02*
X0022274D01*
X0022390Y0051050D02*
X0022235D01*
X0021580Y0049160D02*
X0021170D01*
X0022566Y0051230D02*
X0022058D01*
X0022604Y0051250D02*
X0022020D01*
X0014587Y0045217D02*
Y0043135D01*
X0022607Y0048350D02*
X0022137D01*
X0010447Y0048548D02*
Y0047659D01*
X0022580Y0049160D02*
X0022170D01*
X0021337Y0050716D02*
Y0048819D01*
X0022512Y0048440D02*
X0022235D01*
X0022455Y0048530D02*
X0022293D01*
X0022170Y0050485D02*
Y0049133D01*
X0022423Y0048620D02*
X0022326D01*
X0022410Y0048710D02*
X0022339D01*
X0022411Y0048800D02*
X0022339D01*
X0019267Y0048481D02*
Y0048470D01*
X0018367Y0050620D02*
Y0048470D01*
X0021543Y0047180D02*
X0014803D01*
X0021517Y0050428D02*
Y0049070D01*
X0022426Y0048890D02*
X0022325D01*
X0022460Y0048980D02*
X0022291D01*
X0022520Y0049070D02*
X0022233D01*
X0021427Y0048036D02*
Y0048023D01*
X0016297Y0048536D02*
Y0048470D01*
X0021465Y0047090D02*
X0014713D01*
X0021538Y0047450D02*
X0015073D01*
X0021729Y0048293D02*
X0021718Y0048282D01*
X0021337Y0045328D02*
Y0042819D01*
X0013957Y0046995D02*
Y0046571D01*
X0015407Y0048405D02*
X0014436Y0047435D01*
X0014317Y0048587D02*
Y0047435D01*
X0014587Y0048365D02*
Y0047586D01*
X0016567Y0048030D02*
Y0047007D01*
X0015451Y0048440D02*
X0015238D01*
X0014451Y0047450D02*
X0014232D01*
X0013867Y0046995D02*
Y0046393D01*
X0014047Y0048298D02*
Y0047461D01*
X0021674Y0047360D02*
X0014983D01*
X0014527Y0046995D02*
X0014260D01*
X0011016Y0046640D02*
X0010475D01*
X0009807Y0046550D02*
X0009187D01*
X0011196Y0046820D02*
X0010411D01*
X0010846Y0046470D02*
X0010619D01*
X0010328Y0041240D02*
X0009187D01*
X0011376Y0047000D02*
X0010602D01*
X0014580Y0050150D02*
X0014170D01*
X0012711Y0047090D02*
X0012657D01*
X0010627Y0047047D02*
Y0046470D01*
X0015653Y0048030D02*
X0014683Y0047060D01*
X0015487Y0048473D02*
Y0048457D01*
X0021389Y0047720D02*
X0015343D01*
X0011618Y0047241D02*
X0010846Y0046470D01*
X0012217Y0047270D02*
X0012127D01*
X0012709Y0047335D02*
X0012657Y0047284D01*
X0011655Y0047450D02*
X0010629D01*
X0011655Y0048170D02*
X0009187D01*
X0014580Y0050060D02*
X0014170D01*
X0011331Y0050870D02*
X0011293D01*
X0012351Y0050960D02*
X0012274D01*
X0012390Y0051050D02*
X0012235D01*
X0012517Y0050428D02*
Y0049067D01*
X0012566Y0051230D02*
X0012058D01*
X0012580Y0050387D02*
Y0049129D01*
X0012337Y0050716D02*
Y0048819D01*
X0010447Y0051250D02*
Y0051131D01*
X0011797Y0046799D02*
Y0046621D01*
X0011635Y0046280D02*
X0011278D01*
X0010411Y0048800D02*
X0009187D01*
X0011437Y0048573D02*
Y0047061D01*
X0010331Y0050870D02*
X0009187D01*
X0012157Y0046346D02*
Y0045647D01*
X0012247Y0045151D02*
Y0043048D01*
Y0046436D02*
Y0045657D01*
X0011092Y0045560D02*
X0010560D01*
X0012067Y0045593D02*
X0011815Y0045341D01*
X0016134Y0044930D02*
X0012078D01*
X0011887Y0045889D02*
Y0045413D01*
X0011707Y0045709D02*
Y0045286D01*
X0016657Y0045867D02*
Y0045029D01*
X0015937Y0045657D02*
X0012222D01*
X0011944Y0045470D02*
X0011532D01*
X0015954Y0045110D02*
X0012206D01*
X0016409Y0043940D02*
X0010672D01*
X0018659D02*
X0016966D01*
X0018539Y0044030D02*
X0017086D01*
X0018464Y0044120D02*
X0017161D01*
X0013597Y0045217D02*
Y0043143D01*
Y0046995D02*
Y0045657D01*
X0013687Y0046995D02*
Y0045657D01*
X0016093Y0045593D02*
X0016679Y0045007D01*
X0013777Y0046995D02*
Y0045657D01*
X0018415Y0044210D02*
X0017210D01*
X0018384Y0044300D02*
X0017240D01*
X0018369Y0044390D02*
X0017255D01*
X0018369Y0044480D02*
X0017256D01*
X0018383Y0044570D02*
X0017242D01*
X0018413Y0044660D02*
X0017212D01*
X0018461Y0044750D02*
X0017164D01*
X0018534Y0044840D02*
X0017091D01*
X0018651Y0044930D02*
X0016974D01*
X0016297Y0045867D02*
Y0045388D01*
X0016387Y0045867D02*
Y0045298D01*
X0016477Y0045867D02*
Y0045209D01*
X0016567Y0045867D02*
Y0045119D01*
X0013957Y0048273D02*
Y0047435D01*
X0014587Y0051250D02*
Y0051242D01*
X0009766Y0046010D02*
X0009187D01*
X0013221Y0048345D02*
X0013187D01*
X0012697Y0048301D02*
Y0047946D01*
X0012877Y0048265D02*
Y0048126D01*
X0013327Y0047905D02*
Y0047435D01*
X0012337Y0045217D02*
Y0042819D01*
X0013580Y0049340D02*
X0013170D01*
X0010528Y0050420D02*
X0009187D01*
X0012787Y0048274D02*
Y0048036D01*
X0014587Y0047003D02*
Y0045657D01*
X0015261Y0048260D02*
X0013759D01*
X0013237Y0048439D02*
Y0048361D01*
X0016207Y0045867D02*
Y0045478D01*
X0012217Y0047090D02*
X0012101D01*
X0012189Y0047000D02*
X0012018D01*
X0013032Y0048280D02*
X0012282Y0047531D01*
X0012697Y0047119D02*
Y0046470D01*
X0013406Y0048530D02*
X0013295D01*
X0012794Y0047000D02*
X0012657D01*
X0012685Y0047270D02*
X0012657D01*
X0013312Y0047905D02*
X0013278D01*
X0012657Y0047284D02*
Y0046937D01*
X0012681Y0047180D02*
X0012657D01*
X0011887Y0046889D02*
Y0046698D01*
X0011296Y0045920D02*
X0010542D01*
X0012697Y0046280D02*
X0012115D01*
X0012217Y0047375D02*
Y0047028D01*
X0012697Y0047324D02*
Y0047310D01*
X0012247Y0048452D02*
Y0047486D01*
X0012381Y0047630D02*
X0012095D01*
X0012593Y0046782D02*
X0012126Y0046315D01*
X0009727Y0045097D02*
Y0044735D01*
X0009817Y0045937D02*
Y0045563D01*
X0009907Y0045854D02*
Y0045646D01*
X0010937Y0046030D02*
X0010619D01*
X0009817Y0051250D02*
Y0047563D01*
X0009727Y0046097D02*
Y0045403D01*
X0021580Y0049790D02*
X0021170D01*
X0021427Y0051250D02*
Y0051107D01*
X0021067Y0051250D02*
Y0051224D01*
X0021157Y0051250D02*
Y0051153D01*
X0017557Y0048030D02*
Y0043109D01*
X0021344Y0048530D02*
X0021295D01*
X0014170Y0050485D02*
Y0049129D01*
X0020527Y0050420D02*
Y0049078D01*
X0020329Y0050780D02*
X0020296D01*
X0024397Y0051250D02*
Y0051063D01*
X0026500Y0049250D02*
X0025170D01*
X0026500Y0049340D02*
X0025170D01*
X0026500Y0049160D02*
X0025170D01*
X0025117Y0051250D02*
Y0051189D01*
X0025207Y0051250D02*
Y0051093D01*
X0025297Y0051250D02*
Y0048968D01*
X0022327Y0043361D02*
Y0042877D01*
X0026500Y0048440D02*
X0025235D01*
X0015580Y0041870D02*
X0015170D01*
X0024577Y0050388D02*
Y0049130D01*
X0024377Y0050600D02*
X0024248D01*
X0015864Y0045200D02*
X0012296D01*
X0011641D02*
X0011532D01*
X0011711Y0045290D02*
X0011532D01*
X0010328Y0041060D02*
X0009187D01*
X0011157Y0044657D02*
X0011624Y0044190D01*
X0011797Y0044844D02*
Y0044639D01*
X0011887Y0044832D02*
Y0044549D01*
X0011617Y0044196D02*
Y0043157D01*
X0009703Y0044570D02*
X0009187D01*
X0011092Y0045625D02*
Y0044812D01*
X0011532Y0045534D02*
Y0044903D01*
X0011092Y0045200D02*
X0010669D01*
X0011386Y0046010D02*
X0010608D01*
X0014721Y0047720D02*
X0013093D01*
X0012757Y0046190D02*
X0012095D01*
Y0048321D02*
Y0047350D01*
X0011641Y0046265D02*
X0011159Y0045782D01*
X0011810Y0044840D02*
X0011596D01*
X0011617Y0045071D02*
Y0044818D01*
X0011672Y0044930D02*
X0011532D01*
X0010897Y0046030D02*
Y0043314D01*
X0011466Y0047090D02*
X0010645D01*
X0016117Y0045920D02*
X0011919D01*
X0011617Y0046619D02*
Y0046393D01*
X0012217Y0047360D02*
X0012095D01*
X0013507Y0048009D02*
Y0047435D01*
X0012877Y0047504D02*
Y0047466D01*
X0017287Y0048508D02*
Y0048470D01*
X0014137Y0048346D02*
Y0047473D01*
X0009703Y0043940D02*
X0009187D01*
X0023580Y0049700D02*
X0023170D01*
X0024487Y0051250D02*
Y0051172D01*
X0023047Y0051250D02*
Y0051236D01*
X0023137Y0051250D02*
Y0051172D01*
X0023227Y0051250D02*
Y0051063D01*
X0019170Y0050485D02*
Y0049129D01*
X0023607Y0048350D02*
X0023142D01*
X0014436Y0047435D02*
X0014260D01*
X0022507Y0050436D02*
Y0049054D01*
X0022377Y0050600D02*
X0022248D01*
X0024580Y0049520D02*
X0024170D01*
X0016493Y0048470D02*
X0016260D01*
X0019627Y0048030D02*
Y0043163D01*
X0024613Y0048350D02*
X0024142D01*
X0023377Y0050600D02*
X0023248D01*
X0023497Y0050444D02*
Y0049041D01*
X0023587Y0051250D02*
Y0051242D01*
X0026500Y0050240D02*
X0025170D01*
X0024580Y0049790D02*
X0024170D01*
X0024580Y0049880D02*
X0024170D01*
X0026500Y0049970D02*
X0025170D01*
X0026500Y0050150D02*
X0025170D01*
X0022417Y0051250D02*
Y0051093D01*
X0026500Y0049520D02*
X0025170D01*
X0024127Y0051250D02*
Y0051181D01*
X0026500Y0050060D02*
X0025170D01*
X0014580Y0049520D02*
X0014170D01*
X0014137Y0051250D02*
Y0051172D01*
X0014227Y0051250D02*
Y0051063D01*
X0013377Y0050600D02*
X0013248D01*
X0014343Y0050690D02*
X0014281D01*
X0014580Y0049430D02*
X0014170D01*
X0014227Y0050562D02*
Y0049073D01*
X0014580Y0049160D02*
X0014170D01*
X0014047Y0051250D02*
Y0051236D01*
X0014497Y0050444D02*
Y0049041D01*
X0014580Y0049970D02*
X0014170D01*
X0014580Y0049880D02*
X0014170D01*
X0012170Y0050485D02*
Y0049129D01*
X0012423Y0048620D02*
X0012327D01*
X0011347Y0050676D02*
Y0046971D01*
X0025170Y0042371D02*
Y0041139D01*
X0026500Y0040700D02*
X0025284D01*
X0024413Y0042680D02*
X0024337D01*
X0024372Y0040610D02*
X0024253D01*
X0026500Y0042320D02*
X0025170D01*
X0026500Y0042860D02*
X0025331D01*
X0025207Y0042405D02*
Y0041093D01*
X0026500Y0040880D02*
X0025292D01*
X0026500Y0041690D02*
X0025170D01*
X0026500Y0041060D02*
X0025229D01*
X0026500Y0040340D02*
X0024921D01*
X0026500Y0040430D02*
X0025110D01*
X0026500Y0040520D02*
X0025199D01*
X0024170Y0042371D02*
Y0041139D01*
X0024341Y0040700D02*
X0024284D01*
X0023413Y0042680D02*
X0023337D01*
X0023372Y0040610D02*
X0023253D01*
X0024410Y0042770D02*
X0024340D01*
X0024419Y0042860D02*
X0024331D01*
X0024847Y0040329D02*
Y0040250D01*
X0024217Y0042416D02*
Y0041078D01*
X0024332Y0040880D02*
X0024292D01*
X0024354Y0040970D02*
X0024271D01*
X0024396Y0041060D02*
X0024229D01*
X0024704Y0040340D02*
X0023921D01*
X0024514Y0040430D02*
X0024110D01*
X0024426Y0040520D02*
X0024199D01*
X0020580Y0049880D02*
X0020170D01*
X0020437Y0051250D02*
Y0051119D01*
X0020077Y0051250D02*
Y0051218D01*
X0020167Y0051250D02*
Y0051142D01*
X0020331Y0050870D02*
X0020293D01*
X0009964Y0046820D02*
X0009187D01*
X0019537Y0050413D02*
Y0049093D01*
X0019329Y0050780D02*
X0019296D01*
X0015343Y0050690D02*
X0015281D01*
X0016329Y0050780D02*
X0016296D01*
X0016331Y0050870D02*
X0016293D01*
X0016351Y0050960D02*
X0016274D01*
X0016390Y0051050D02*
X0016235D01*
X0017580Y0049610D02*
X0017174D01*
X0016566Y0051230D02*
X0016058D01*
X0015577Y0051250D02*
Y0051236D01*
X0010537Y0051250D02*
Y0051211D01*
X0015566Y0051230D02*
X0015058D01*
X0018341Y0040700D02*
X0018284D01*
X0019580Y0042371D02*
Y0041238D01*
X0018446Y0042950D02*
X0018304D01*
X0013580Y0049520D02*
X0013170D01*
X0019497Y0043040D02*
X0019253D01*
X0019581Y0043130D02*
X0019169D01*
X0019087Y0040413D02*
Y0040250D01*
X0019580Y0041330D02*
X0019170D01*
X0018580D02*
X0018170D01*
X0019177Y0042377D02*
Y0041131D01*
X0019267Y0042481D02*
Y0040979D01*
X0019354Y0040970D02*
X0019271D01*
X0019396Y0041060D02*
X0019229D01*
X0018580Y0041780D02*
X0018170D01*
X0016328Y0040790D02*
X0016296D01*
X0017332Y0040880D02*
X0017292D01*
X0016497Y0043040D02*
X0016253D01*
X0016396Y0041060D02*
X0016229D01*
X0017581Y0043130D02*
X0017169D01*
X0017759Y0043220D02*
X0016991D01*
X0016657Y0040353D02*
Y0040250D01*
X0016567Y0042382D02*
Y0041230D01*
X0017580Y0042140D02*
X0017170D01*
X0017580Y0041960D02*
X0017170D01*
X0017580Y0041870D02*
X0017170D01*
X0017396Y0041060D02*
X0017229D01*
X0017580Y0041780D02*
X0017170D01*
X0017580Y0041240D02*
X0017170D01*
X0014137Y0040453D02*
Y0040250D01*
X0014580Y0042230D02*
X0014170D01*
X0013497Y0043040D02*
X0013253D01*
X0014704Y0040340D02*
X0013921D01*
X0014581Y0043130D02*
X0014169D01*
X0014759Y0043220D02*
X0013991D01*
X0013354Y0040970D02*
X0013271D01*
X0014396Y0041060D02*
X0014229D01*
X0013777Y0040329D02*
Y0040250D01*
X0014580Y0041600D02*
X0014170D01*
X0014465Y0041150D02*
X0014170D01*
X0014580Y0041420D02*
X0014170D01*
X0014580Y0041330D02*
X0014170D01*
X0014227Y0042427D02*
Y0041063D01*
X0012354Y0040970D02*
X0012271D01*
X0013396Y0041060D02*
X0013229D01*
X0012497Y0043040D02*
X0012253D01*
X0018580Y0042230D02*
X0018170D01*
X0013581Y0043130D02*
X0013169D01*
X0013759Y0043220D02*
X0012991D01*
X0012607Y0040373D02*
Y0040250D01*
X0012517Y0042433D02*
Y0041197D01*
X0013580Y0041240D02*
X0013170D01*
X0012580Y0042140D02*
X0012170D01*
X0012337Y0042681D02*
Y0040909D01*
X0012580Y0041240D02*
X0012170D01*
X0014580Y0041960D02*
X0014170D01*
X0014580Y0041870D02*
X0014170D01*
X0011167Y0040328D02*
Y0040250D01*
X0013580Y0041330D02*
X0013170D01*
X0010410Y0043130D02*
X0009187D01*
X0011704Y0040340D02*
X0011297D01*
X0011581Y0043130D02*
X0011340D01*
X0011759Y0043220D02*
X0011340D01*
X0010807Y0040328D02*
Y0040250D01*
X0013580Y0041690D02*
X0013170D01*
X0013580Y0041600D02*
X0013170D01*
X0013580Y0041510D02*
X0013170D01*
X0013580Y0041420D02*
X0013170D01*
X0011257Y0042186D02*
Y0041297D01*
X0012514Y0040430D02*
X0012110D01*
X0012426Y0040520D02*
X0012199D01*
X0012377Y0050600D02*
X0012248D01*
X0013343Y0050690D02*
X0013281D01*
X0013329Y0050780D02*
X0013296D01*
X0013331Y0050870D02*
X0013293D01*
X0013351Y0050960D02*
X0013274D01*
X0013390Y0051050D02*
X0013235D01*
X0013455Y0051140D02*
X0013169D01*
X0013417Y0047932D02*
Y0047435D01*
X0010328Y0040430D02*
X0009187D01*
X0012427Y0050518D02*
Y0048895D01*
X0012604Y0051250D02*
X0012020D01*
X0017514Y0040430D02*
X0017110D01*
X0018007Y0040369D02*
Y0040250D01*
X0018457Y0040482D02*
Y0040250D01*
X0017497Y0043040D02*
X0017253D01*
X0018581Y0043130D02*
X0018169D01*
X0016477Y0040462D02*
Y0040250D01*
X0016580Y0041510D02*
X0016170D01*
X0018907Y0040337D02*
Y0040250D01*
X0013580Y0049700D02*
X0013170D01*
X0013580Y0049610D02*
X0013170D01*
X0018465Y0041150D02*
X0018170D01*
X0020465D02*
X0020170D01*
X0018328Y0040790D02*
X0018296D01*
X0019704Y0040340D02*
X0018921D01*
X0020514Y0040430D02*
X0020110D01*
X0019410Y0042770D02*
X0019340D01*
X0019328Y0040790D02*
X0019296D01*
X0020419Y0042860D02*
X0020331D01*
X0020446Y0042950D02*
X0020304D01*
X0019897Y0040335D02*
Y0040250D01*
X0020580Y0041420D02*
X0020170D01*
X0020580Y0041330D02*
X0020170D01*
X0020580Y0042230D02*
X0020170D01*
X0019580Y0041780D02*
X0019170D01*
X0020372Y0040610D02*
X0020253D01*
X0022417Y0040531D02*
Y0040250D01*
X0020167Y0042369D02*
Y0041142D01*
X0011354Y0040970D02*
X0011297D01*
X0012396Y0041060D02*
X0012229D01*
X0011497Y0043040D02*
X0011340D01*
X0010328Y0040340D02*
X0009187D01*
X0012581Y0043130D02*
X0012169D01*
X0012759Y0043220D02*
X0011991D01*
X0011707Y0040339D02*
Y0040250D01*
X0020580Y0042140D02*
X0020170D01*
X0020580Y0042050D02*
X0020170D01*
X0012465Y0041150D02*
X0012170D01*
X0013057Y0040394D02*
Y0040250D01*
X0013704Y0040340D02*
X0012921D01*
X0020580Y0041870D02*
X0020170D01*
X0016584Y0049520D02*
X0016170D01*
X0016584Y0049880D02*
X0016170D01*
X0015433Y0050510D02*
X0015191D01*
X0015377Y0050600D02*
X0015248D01*
X0016207Y0050531D02*
Y0049095D01*
X0015329Y0050780D02*
X0015296D01*
X0015331Y0050870D02*
X0015293D01*
X0015351Y0050960D02*
X0015274D01*
X0011655Y0048321D02*
Y0047350D01*
X0016207Y0048030D02*
Y0047007D01*
X0010520Y0049070D02*
X0009187D01*
X0014587Y0050383D02*
Y0049135D01*
X0016297Y0051250D02*
Y0048964D01*
X0015397Y0045217D02*
Y0041063D01*
X0017580Y0049700D02*
X0017174D01*
X0016584Y0049160D02*
X0016170D01*
X0017433Y0050510D02*
X0017191D01*
X0017377Y0050600D02*
X0017248D01*
X0017343Y0050690D02*
X0017281D01*
X0017329Y0050780D02*
X0017296D01*
X0017331Y0050870D02*
X0017293D01*
X0017351Y0050960D02*
X0017274D01*
X0011580Y0049520D02*
X0011057D01*
X0017455Y0051140D02*
X0017169D01*
X0010567Y0050150D02*
X0009187D01*
X0016567Y0050394D02*
Y0049115D01*
X0014497Y0051250D02*
Y0051181D01*
X0016455Y0051140D02*
X0016169D01*
X0022580Y0042371D02*
Y0041238D01*
X0023341Y0040700D02*
X0023284D01*
X0022413Y0042680D02*
X0022337D01*
X0022372Y0040610D02*
X0022253D01*
X0023410Y0042770D02*
X0023340D01*
X0023419Y0042860D02*
X0023331D01*
X0023317Y0042587D02*
Y0040250D01*
X0023227Y0042427D02*
Y0041063D01*
X0023332Y0040880D02*
X0023292D01*
X0023354Y0040970D02*
X0023271D01*
X0023396Y0041060D02*
X0023229D01*
X0023704Y0040340D02*
X0022921D01*
X0023514Y0040430D02*
X0023110D01*
X0021580Y0049610D02*
X0021170D01*
X0019447Y0051250D02*
Y0051131D01*
X0019087Y0051250D02*
Y0051211D01*
X0019177Y0051250D02*
Y0051131D01*
X0019267Y0051250D02*
Y0050979D01*
X0018547Y0048030D02*
Y0047007D01*
X0019331Y0050870D02*
X0019293D01*
X0011655Y0047810D02*
X0009187D01*
X0018547Y0050406D02*
Y0049100D01*
X0018329Y0050780D02*
X0018296D01*
X0020704Y0040340D02*
X0019921D01*
X0021514Y0040430D02*
X0021110D01*
X0020410Y0042770D02*
X0020340D01*
X0020341Y0040700D02*
X0020284D01*
X0021419Y0042860D02*
X0021331D01*
X0021446Y0042950D02*
X0021304D01*
X0020977Y0040357D02*
Y0040250D01*
X0021580Y0041420D02*
X0021170D01*
X0021580Y0041330D02*
X0021170D01*
X0021580Y0042230D02*
X0021170D01*
X0020580Y0041690D02*
X0020170D01*
X0022170Y0042371D02*
Y0041139D01*
X0021341Y0040700D02*
X0021284D01*
X0021247Y0042452D02*
Y0041026D01*
X0021704Y0040340D02*
X0020921D01*
X0022514Y0040430D02*
X0022110D01*
X0021410Y0042770D02*
X0021340D01*
X0021372Y0040610D02*
X0021253D01*
X0022419Y0042860D02*
X0022331D01*
X0022446Y0042950D02*
X0022304D01*
X0022057Y0040394D02*
Y0040250D01*
X0022580Y0041420D02*
X0022170D01*
X0022580Y0041330D02*
X0022170D01*
X0022465Y0041150D02*
X0022170D01*
X0021337Y0042681D02*
Y0040909D01*
X0021580Y0041780D02*
X0021170D01*
X0022341Y0040700D02*
X0022284D01*
X0022328Y0040790D02*
X0022296D01*
X0015426Y0040520D02*
X0015199D01*
X0016372Y0040610D02*
X0016253D01*
X0015497Y0043040D02*
X0015253D01*
X0015580Y0042230D02*
X0015170D01*
X0016581Y0043130D02*
X0016169D01*
X0016759Y0043220D02*
X0015991D01*
X0015757Y0040331D02*
Y0040250D01*
X0016580Y0041960D02*
X0016170D01*
X0016580Y0041780D02*
X0016170D01*
X0019580Y0042230D02*
X0019170D01*
X0015580Y0041330D02*
X0015170D01*
X0017465Y0041150D02*
X0017170D01*
X0016332Y0040880D02*
X0016292D01*
X0016354Y0040970D02*
X0016271D01*
X0014514Y0040430D02*
X0014110D01*
X0017017Y0040373D02*
Y0040250D01*
X0014497Y0043040D02*
X0014253D01*
X0015704Y0040340D02*
X0014921D01*
X0015581Y0043130D02*
X0015169D01*
X0015759Y0043220D02*
X0014991D01*
X0014767Y0040330D02*
Y0040250D01*
X0015580Y0041690D02*
X0015170D01*
X0016580Y0042140D02*
X0016170D01*
X0015580Y0041510D02*
X0015170D01*
X0014580Y0041780D02*
X0014170D01*
X0015341Y0040700D02*
X0015284D01*
X0015328Y0040790D02*
X0015296D01*
X0015332Y0040880D02*
X0015292D01*
X0019528Y0050420D02*
X0019170D01*
X0015580Y0041960D02*
X0015170D01*
X0018097Y0051250D02*
Y0051204D01*
X0019537Y0048030D02*
Y0043089D01*
X0018433Y0050510D02*
X0018191D01*
X0018377Y0050600D02*
X0018248D01*
X0018343Y0050690D02*
X0018281D01*
X0017557Y0050400D02*
Y0049109D01*
X0018007Y0048030D02*
Y0043215D01*
X0017557Y0051250D02*
Y0051224D01*
X0018187Y0051250D02*
Y0051119D01*
X0018457Y0050482D02*
Y0048974D01*
X0013170Y0050485D02*
Y0049129D01*
X0021360Y0046297D02*
X0020390D01*
Y0045328D01*
X0021360D02*
X0020390D01*
X0021360Y0046297D02*
Y0045328D01*
X0020347Y0050676D02*
Y0048470D01*
X0023512Y0048440D02*
X0023238D01*
X0017580Y0042050D02*
X0017170D01*
X0016580D02*
X0016170D01*
X0016426Y0040520D02*
X0016199D01*
X0015577Y0042373D02*
Y0041236D01*
X0015487Y0042473D02*
Y0041172D01*
X0016477Y0050462D02*
Y0049004D01*
X0017377Y0040599D02*
Y0040250D01*
X0015217Y0042416D02*
Y0041078D01*
X0015465Y0041150D02*
X0015170D01*
X0019580Y0042320D02*
X0019170D01*
X0016704Y0040340D02*
X0015921D01*
X0010410Y0042230D02*
X0009187D01*
X0015037Y0040383D02*
Y0040250D01*
X0015396Y0041060D02*
X0015229D01*
X0014587Y0042365D02*
Y0041242D01*
X0014497Y0042459D02*
Y0041181D01*
X0015528Y0050420D02*
X0015170D01*
X0014580Y0041690D02*
X0014170D01*
X0015127Y0040444D02*
Y0040250D01*
X0015580Y0041420D02*
X0015170D01*
X0013507Y0042446D02*
Y0041189D01*
X0014354Y0040970D02*
X0014271D01*
X0014332Y0040880D02*
X0014292D01*
X0014328Y0040790D02*
X0014296D01*
X0014341Y0040700D02*
X0014284D01*
X0013417Y0042648D02*
Y0041093D01*
X0014372Y0040610D02*
X0014253D01*
X0014426Y0040520D02*
X0014199D01*
X0015397Y0040562D02*
Y0040250D01*
X0016567Y0040394D02*
Y0040250D01*
X0013237Y0042439D02*
Y0041045D01*
X0014580Y0041510D02*
X0014170D01*
X0013332Y0040880D02*
X0013292D01*
X0012427Y0042604D02*
Y0041107D01*
X0013328Y0040790D02*
X0013296D01*
X0013341Y0040700D02*
X0013284D01*
X0012580Y0041960D02*
X0012170D01*
X0010580Y0041600D02*
X0009187D01*
X0013426Y0040520D02*
X0013199D01*
X0013514Y0040430D02*
X0013110D01*
X0012580Y0042230D02*
X0012170D01*
X0012247Y0042452D02*
Y0041026D01*
X0014580Y0042320D02*
X0014170D01*
X0011527Y0042421D02*
Y0041204D01*
X0011437Y0042573D02*
Y0041119D01*
X0013580Y0049430D02*
X0013170D01*
X0012332Y0040880D02*
X0012292D01*
X0012517Y0040428D02*
Y0040250D01*
X0012341Y0040700D02*
X0012284D01*
X0013580Y0042320D02*
X0013170D01*
X0010537Y0042186D02*
Y0041297D01*
X0010447Y0042186D02*
Y0041297D01*
X0010357Y0043765D02*
Y0041297D01*
X0012067Y0040400D02*
Y0040250D01*
X0020580Y0041960D02*
X0020170D01*
X0011465Y0041150D02*
X0011297D01*
X0011396Y0041060D02*
X0011297D01*
X0020580Y0041780D02*
X0020170D01*
X0011437Y0040505D02*
Y0040250D01*
X0011328Y0040790D02*
X0011297D01*
X0011341Y0040700D02*
X0011297D01*
X0011372Y0040610D02*
X0011297D01*
X0011426Y0040520D02*
X0011297D01*
X0010567Y0050394D02*
Y0049118D01*
X0011257Y0050620D02*
Y0049034D01*
X0011167Y0050482D02*
Y0049131D01*
X0011257Y0051250D02*
Y0051004D01*
X0010567Y0050240D02*
X0009187D01*
X0011580Y0050150D02*
X0011057D01*
X0011580Y0050240D02*
X0011057D01*
X0010537Y0050413D02*
Y0049089D01*
X0011455Y0048530D02*
X0011295D01*
X0011512Y0048440D02*
X0011238D01*
X0011607Y0048350D02*
X0011142D01*
X0010580Y0041420D02*
X0009187D01*
X0012520Y0049070D02*
X0012230D01*
X0012460Y0048980D02*
X0012290D01*
X0012426Y0048890D02*
X0012324D01*
X0012411Y0048800D02*
X0012339D01*
X0013417Y0050531D02*
Y0048852D01*
X0011580Y0050387D02*
Y0049129D01*
X0012247Y0050599D02*
Y0049048D01*
X0012580Y0050330D02*
X0012170D01*
X0011527Y0050420D02*
Y0049078D01*
X0011437Y0050505D02*
Y0048927D01*
X0011257Y0048466D02*
Y0046881D01*
X0011437Y0051250D02*
Y0051119D01*
X0011527Y0051250D02*
Y0051204D01*
X0012455Y0048530D02*
X0012295D01*
X0012512Y0048440D02*
X0012238D01*
X0012607Y0048350D02*
X0012142D01*
X0013520Y0049070D02*
X0013230D01*
X0013460Y0048980D02*
X0013290D01*
X0013426Y0048890D02*
X0013324D01*
X0013411Y0048800D02*
X0013339D01*
X0013410Y0048710D02*
X0013339D01*
X0013423Y0048620D02*
X0013327D01*
X0012517Y0051250D02*
Y0051197D01*
X0012455Y0051140D02*
X0012169D01*
X0013237Y0050579D02*
Y0049061D01*
Y0051250D02*
Y0051045D01*
X0012337Y0051250D02*
Y0050909D01*
X0013580Y0049160D02*
X0013170D01*
X0012580D02*
X0012170D01*
X0015580Y0049520D02*
X0015170D01*
X0014520Y0049070D02*
X0014230D01*
X0014460Y0048980D02*
X0014290D01*
X0014426Y0048890D02*
X0014324D01*
X0014411Y0048800D02*
X0014339D01*
X0014410Y0048710D02*
X0014339D01*
X0014423Y0048620D02*
X0014327D01*
X0013580Y0050387D02*
Y0049129D01*
Y0049250D02*
X0013170D01*
X0014580D02*
X0014170D01*
X0011580Y0041420D02*
X0011170D01*
X0013507Y0050436D02*
Y0049054D01*
X0014455Y0048530D02*
X0014295D01*
X0014512Y0048440D02*
X0014238D01*
X0014607Y0048350D02*
X0014142D01*
X0014580Y0049610D02*
X0014170D01*
X0015520Y0049070D02*
X0015230D01*
X0015460Y0048980D02*
X0015290D01*
X0015426Y0048890D02*
X0015324D01*
X0015411Y0048800D02*
X0015339D01*
X0015410Y0048710D02*
X0015339D01*
X0015423Y0048620D02*
X0015327D01*
X0014580Y0050387D02*
Y0049129D01*
X0015217Y0050546D02*
Y0049084D01*
X0010567Y0050330D02*
X0009187D01*
X0015580Y0049340D02*
X0015170D01*
X0015580Y0049430D02*
X0015170D01*
X0015580Y0049250D02*
X0015170D01*
X0015580Y0049610D02*
X0015170D01*
X0015390Y0051050D02*
X0015235D01*
X0015455Y0051140D02*
X0015169D01*
X0015455Y0048530D02*
X0015295D01*
X0017580Y0049250D02*
X0017174D01*
X0016524Y0049070D02*
X0016230D01*
X0016464Y0048980D02*
X0016290D01*
X0016429Y0048890D02*
X0016324D01*
X0016415Y0048800D02*
X0016339D01*
X0016414Y0048710D02*
X0016339D01*
X0016427Y0048620D02*
X0016327D01*
X0015580Y0050387D02*
Y0049129D01*
Y0049790D02*
X0015170D01*
X0016584D02*
X0016170D01*
X0015580Y0049160D02*
X0015170D01*
X0016584Y0049250D02*
X0016170D01*
X0016584Y0049340D02*
X0016170D01*
X0016584Y0049430D02*
X0016170D01*
X0015577Y0050388D02*
Y0049127D01*
X0016459Y0048530D02*
X0016295D01*
X0016657Y0048030D02*
Y0047007D01*
X0018457Y0048526D02*
Y0048470D01*
X0017520Y0049070D02*
X0017234D01*
X0017460Y0048980D02*
X0017293D01*
X0017426Y0048890D02*
X0017328D01*
X0017411Y0048800D02*
X0017343D01*
X0017410Y0048710D02*
X0017343D01*
X0017423Y0048620D02*
X0017330D01*
X0016584Y0050385D02*
Y0049129D01*
X0017455Y0048530D02*
X0017298D01*
X0017377Y0050599D02*
Y0048470D01*
X0017467Y0048507D02*
Y0048470D01*
X0017287Y0050716D02*
Y0048991D01*
X0017197Y0050518D02*
Y0049108D01*
X0016528Y0050420D02*
X0016170D01*
X0017580Y0049340D02*
X0017174D01*
X0017580Y0049430D02*
X0017174D01*
X0017580Y0049520D02*
X0017174D01*
X0017490Y0048470D02*
X0017264D01*
X0018170Y0050485D02*
Y0049129D01*
X0018277Y0050676D02*
Y0049003D01*
X0018187Y0050505D02*
Y0049114D01*
X0015580Y0042050D02*
X0015170D01*
X0018520Y0049070D02*
X0018230D01*
X0018460Y0048980D02*
X0018290D01*
X0018426Y0048890D02*
X0018324D01*
X0018411Y0048800D02*
X0018339D01*
X0018410Y0048710D02*
X0018339D01*
X0018423Y0048620D02*
X0018327D01*
X0017580Y0050387D02*
Y0049129D01*
X0017528Y0050420D02*
X0017174D01*
X0018580Y0049340D02*
X0018170D01*
X0018580Y0049430D02*
X0018170D01*
X0018331Y0050870D02*
X0018293D01*
X0018455Y0048530D02*
X0018295D01*
X0022580Y0049970D02*
X0022170D01*
X0020437Y0048573D02*
Y0048470D01*
X0018580Y0049250D02*
X0018170D01*
X0019517Y0049070D02*
X0019230D01*
X0019458Y0048980D02*
X0019290D01*
X0019425Y0048890D02*
X0019324D01*
X0019411Y0048800D02*
X0019339D01*
X0019411Y0048710D02*
X0019339D01*
X0019424Y0048620D02*
X0019327D01*
X0019492Y0048470D02*
X0019260D01*
X0019457Y0048530D02*
X0019295D01*
X0019357Y0048030D02*
Y0047007D01*
Y0050645D02*
Y0048470D01*
X0018580Y0050387D02*
Y0049129D01*
X0019267Y0050645D02*
Y0049019D01*
X0019177Y0050493D02*
Y0049123D01*
X0020580Y0049970D02*
X0020170D01*
X0019580Y0049340D02*
X0019170D01*
X0019580Y0049430D02*
X0019170D01*
X0019580Y0049520D02*
X0019170D01*
X0019580Y0050330D02*
X0019170D01*
X0019580Y0049250D02*
X0019170D01*
X0020520Y0049070D02*
X0020233D01*
X0020460Y0048980D02*
X0020291D01*
X0020426Y0048890D02*
X0020325D01*
X0020411Y0048800D02*
X0020339D01*
X0020410Y0048710D02*
X0020339D01*
X0020423Y0048620D02*
X0020326D01*
X0019580Y0050387D02*
Y0049133D01*
X0020257Y0050620D02*
Y0049038D01*
X0020167Y0050482D02*
Y0049135D01*
X0021580Y0049880D02*
X0021170D01*
X0020580Y0049520D02*
X0020170D01*
X0020580Y0050330D02*
X0020170D01*
X0020580Y0049700D02*
X0020170D01*
X0020580Y0049790D02*
X0020170D01*
X0021247Y0051250D02*
Y0051026D01*
X0020490Y0048470D02*
X0020258D01*
X0020455Y0048530D02*
X0020293D01*
X0020527Y0048030D02*
Y0046297D01*
X0020580Y0049250D02*
X0020170D01*
X0021517Y0049070D02*
X0021230D01*
X0021458Y0048980D02*
X0021290D01*
X0021425Y0048890D02*
X0021324D01*
X0021411Y0048800D02*
X0021339D01*
X0021411Y0048710D02*
X0021339D01*
X0021424Y0048620D02*
X0021327D01*
X0021329Y0050780D02*
X0021296D01*
X0020580Y0050387D02*
Y0049129D01*
X0021247Y0050599D02*
Y0049048D01*
X0022580Y0049790D02*
X0022170D01*
X0021580Y0049340D02*
X0021170D01*
X0021580Y0049430D02*
X0021170D01*
X0022580Y0050330D02*
X0022170D01*
X0021580D02*
X0021170D01*
X0021580Y0049700D02*
X0021170D01*
X0018367Y0051250D02*
Y0051004D01*
X0021331Y0050870D02*
X0021293D01*
X0022580Y0050150D02*
X0022170D01*
X0021284Y0048470D02*
X0021260D01*
X0026500Y0050600D02*
X0025248D01*
X0022417Y0050531D02*
Y0048852D01*
X0020580Y0049340D02*
X0020170D01*
X0024307Y0051250D02*
Y0048941D01*
X0022580Y0049250D02*
X0022170D01*
X0022580Y0049340D02*
X0022170D01*
X0022580Y0049430D02*
X0022170D01*
X0022580Y0049520D02*
X0022170D01*
X0022580Y0049610D02*
X0022170D01*
X0022580Y0049700D02*
X0022170D01*
X0024528Y0050420D02*
X0024170D01*
X0023520Y0049070D02*
X0023230D01*
X0023460Y0048980D02*
X0023290D01*
X0023426Y0048890D02*
X0023324D01*
X0023411Y0048800D02*
X0023339D01*
X0023410Y0048710D02*
X0023339D01*
X0023423Y0048620D02*
X0023327D01*
X0026500Y0049610D02*
X0025170D01*
X0022580Y0050387D02*
Y0049129D01*
X0023227Y0050562D02*
Y0049073D01*
X0023571Y0050330D02*
X0023170D01*
X0023580Y0049250D02*
X0023170D01*
X0023580Y0049340D02*
X0023170D01*
X0023580Y0049430D02*
X0023170D01*
X0023580Y0049520D02*
X0023170D01*
X0023580Y0049610D02*
X0023170D01*
X0023317Y0051250D02*
Y0048913D01*
X0023343Y0050690D02*
X0023281D01*
X0023455Y0048530D02*
X0023295D01*
X0023580Y0049790D02*
X0023170D01*
X0024517Y0049070D02*
X0024230D01*
X0024458Y0048980D02*
X0024290D01*
X0024425Y0048890D02*
X0024324D01*
X0024411Y0048800D02*
X0024339D01*
X0024411Y0048710D02*
X0024339D01*
X0024424Y0048620D02*
X0024327D01*
X0024217Y0051250D02*
Y0051078D01*
X0024580Y0050240D02*
X0024170D01*
X0024217Y0050546D02*
Y0049084D01*
X0023580Y0050318D02*
Y0049129D01*
X0023528Y0050420D02*
X0023170D01*
X0024580Y0050330D02*
X0024170D01*
X0024580Y0049340D02*
X0024170D01*
X0026500Y0050420D02*
X0025170D01*
X0024580Y0049610D02*
X0024170D01*
X0024457Y0048530D02*
X0024295D01*
X0024580Y0049430D02*
X0024170D01*
X0026500D02*
X0025170D01*
X0026500Y0049070D02*
X0025233D01*
X0026500Y0048980D02*
X0025291D01*
X0026500Y0048890D02*
X0025325D01*
X0026500Y0048800D02*
X0025339D01*
X0026500Y0048710D02*
X0025339D01*
X0026500Y0048620D02*
X0025326D01*
X0024580Y0050387D02*
Y0049133D01*
X0025207Y0050531D02*
Y0049098D01*
X0024037Y0051250D02*
Y0051242D01*
X0022327Y0051250D02*
Y0048881D01*
X0023407Y0051250D02*
Y0051078D01*
X0022237Y0051250D02*
Y0051045D01*
X0026500Y0050780D02*
X0025296D01*
X0026500Y0047360D02*
X0026370D01*
X0021421Y0043760D02*
X0009187D01*
X0024937Y0044071D02*
Y0044053D01*
X0026500Y0043130D02*
X0026116D01*
X0022237Y0040579D02*
Y0040250D01*
X0024580Y0041690D02*
X0024170D01*
X0026500Y0042410D02*
X0025212D01*
X0026500Y0042950D02*
X0025304D01*
X0025170Y0050485D02*
Y0049133D01*
X0021411Y0044390D02*
X0019505D01*
X0021392Y0043670D02*
X0009187D01*
X0025207Y0043195D02*
Y0043095D01*
X0025117Y0044131D02*
Y0043994D01*
X0025027Y0044091D02*
Y0044033D01*
X0023947Y0044073D02*
Y0044052D01*
X0024847Y0044068D02*
Y0044056D01*
X0024757Y0044081D02*
Y0044043D01*
X0024487Y0040453D02*
Y0040250D01*
X0023497Y0040444D02*
Y0040250D01*
X0025517Y0043220D02*
X0025232D01*
X0024581Y0043130D02*
X0024169D01*
X0024538Y0042410D02*
X0024212D01*
X0023580Y0041690D02*
X0023170D01*
X0024446Y0042950D02*
X0024304D01*
X0024170Y0050437D02*
Y0049129D01*
X0021455Y0044300D02*
X0019490D01*
X0021380Y0043580D02*
X0009187D01*
X0024217Y0043205D02*
Y0043084D01*
X0024127Y0044136D02*
Y0043988D01*
X0024037Y0044095D02*
Y0044030D01*
X0022957Y0044074D02*
Y0044050D01*
X0023857Y0044068D02*
Y0044057D01*
X0023767Y0044079D02*
Y0044045D01*
X0024667Y0040350D02*
Y0040250D01*
X0024432Y0042590D02*
X0024318D01*
X0024471Y0042500D02*
X0024279D01*
X0024517Y0043220D02*
X0024232D01*
X0023581Y0043130D02*
X0023169D01*
X0023538Y0042410D02*
X0023212D01*
X0023465Y0041150D02*
X0023170D01*
X0023446Y0042950D02*
X0023304D01*
X0023170Y0050485D02*
Y0049129D01*
X0022507Y0043231D02*
Y0043054D01*
X0021527Y0044210D02*
X0019460D01*
X0021555Y0043940D02*
X0019216D01*
X0023227Y0043215D02*
Y0043073D01*
X0023137Y0044142D02*
Y0043982D01*
X0023047Y0044098D02*
Y0044026D01*
X0023517Y0043220D02*
X0023232D01*
X0022867Y0044067D02*
Y0044057D01*
X0022777Y0044077D02*
Y0044048D01*
X0022687Y0044104D02*
Y0044020D01*
X0023677Y0040347D02*
Y0040250D01*
X0023432Y0042590D02*
X0023318D01*
X0023471Y0042500D02*
X0023279D01*
X0021385Y0043490D02*
X0009187D01*
X0022581Y0043130D02*
X0022169D01*
X0021580Y0049520D02*
X0021170D01*
X0021517Y0043220D02*
Y0043067D01*
X0022580Y0041870D02*
X0022170D01*
X0011655Y0047900D02*
X0009187D01*
X0012580Y0049340D02*
X0012170D01*
X0021407Y0043400D02*
X0009187D01*
X0022147Y0044149D02*
Y0043976D01*
X0022057Y0044102D02*
Y0044022D01*
X0021967Y0044076D02*
Y0044049D01*
X0021877Y0044067D02*
Y0044057D01*
X0021653Y0044120D02*
X0019411D01*
X0021697Y0044100D02*
Y0044024D01*
X0022410Y0042770D02*
X0022340D01*
X0022597Y0040378D02*
Y0040250D01*
X0022432Y0042590D02*
X0022318D01*
X0022538Y0042410D02*
X0022212D01*
X0022471Y0042500D02*
X0022279D01*
X0021713Y0044030D02*
X0019336D01*
X0021581Y0043130D02*
X0021169D01*
X0022507Y0040436D02*
Y0040250D01*
X0021170Y0050485D02*
Y0049129D01*
X0020390Y0045920D02*
X0019507D01*
X0012030Y0046032D02*
X0011532Y0045534D01*
X0021247Y0045328D02*
Y0043048D01*
X0021157Y0045328D02*
Y0043139D01*
X0021067Y0045328D02*
Y0043193D01*
X0020977Y0045328D02*
Y0043223D01*
X0020887Y0045328D02*
Y0043234D01*
X0020797Y0045328D02*
Y0043228D01*
X0020707Y0045328D02*
Y0043203D01*
X0020617Y0045328D02*
Y0043157D01*
X0021607Y0040373D02*
Y0040250D01*
X0021413Y0042680D02*
X0021337D01*
X0021432Y0042590D02*
X0021318D01*
X0021471Y0042500D02*
X0021279D01*
X0021538Y0042410D02*
X0021212D01*
X0022580Y0041240D02*
X0022170D01*
X0020759Y0043220D02*
X0019991D01*
X0020581Y0043130D02*
X0020169D01*
X0020497Y0043040D02*
X0020253D01*
X0020170Y0050485D02*
Y0049133D01*
X0020347Y0048030D02*
Y0040949D01*
X0020257Y0048030D02*
Y0043034D01*
X0020167Y0048030D02*
Y0043131D01*
X0020077Y0048030D02*
Y0043188D01*
X0019987Y0048030D02*
Y0043221D01*
X0019897Y0048030D02*
Y0043234D01*
X0019807Y0048030D02*
Y0043230D01*
X0019717Y0048030D02*
Y0043207D01*
X0019447Y0044183D02*
Y0042952D01*
X0021427Y0040518D02*
Y0040250D01*
X0020413Y0042680D02*
X0020337D01*
X0020432Y0042590D02*
X0020318D01*
X0020471Y0042500D02*
X0020279D01*
X0020538Y0042410D02*
X0020212D01*
X0021580Y0042320D02*
X0021170D01*
X0019759Y0043220D02*
X0018991D01*
X0019446Y0042950D02*
X0019304D01*
X0019419Y0042860D02*
X0019331D01*
X0019267Y0043972D02*
Y0043019D01*
X0019177Y0043920D02*
Y0043123D01*
X0019087Y0043887D02*
Y0043183D01*
X0018997Y0043870D02*
Y0043218D01*
X0018907Y0043868D02*
Y0043233D01*
X0018817Y0043880D02*
Y0043231D01*
X0018727Y0043907D02*
Y0043211D01*
X0018637Y0043953D02*
Y0043169D01*
X0018547Y0044022D02*
Y0043100D01*
X0018457Y0044130D02*
Y0042974D01*
X0020347Y0040676D02*
Y0040250D01*
X0019413Y0042680D02*
X0019337D01*
X0019432Y0042590D02*
X0019318D01*
X0019471Y0042500D02*
X0019279D01*
X0024465Y0041150D02*
X0024170D01*
X0018367Y0048030D02*
Y0041004D01*
X0018277Y0048030D02*
Y0043003D01*
X0018187Y0048030D02*
Y0043114D01*
X0018097Y0048030D02*
Y0043178D01*
X0020580Y0042320D02*
X0020170D01*
X0018759Y0043220D02*
X0017991D01*
X0017390Y0051050D02*
X0017235D01*
X0017827Y0048030D02*
Y0043232D01*
X0017737Y0048030D02*
Y0043214D01*
X0017647Y0048030D02*
Y0043175D01*
X0018497Y0043040D02*
X0018253D01*
X0019170Y0042371D02*
Y0041139D01*
X0018419Y0042860D02*
X0018331D01*
X0019357Y0040645D02*
Y0040250D01*
X0018413Y0042680D02*
X0018337D01*
X0018432Y0042590D02*
X0018318D01*
X0018471Y0042500D02*
X0018279D01*
X0018538Y0042410D02*
X0018212D01*
X0018097Y0040420D02*
Y0040250D01*
X0017174Y0050489D02*
Y0049129D01*
X0017197Y0044183D02*
Y0043105D01*
X0017107Y0044052D02*
Y0043172D01*
X0017017Y0043972D02*
Y0043212D01*
X0016927Y0043920D02*
Y0043232D01*
X0016837Y0043887D02*
Y0043233D01*
X0016747Y0043870D02*
Y0043217D01*
X0016657Y0043868D02*
Y0043180D01*
X0016567Y0043880D02*
Y0043118D01*
X0016477Y0043907D02*
Y0043011D01*
X0014497Y0040444D02*
Y0040250D01*
X0017446Y0042950D02*
X0017304D01*
X0017419Y0042860D02*
X0017331D01*
X0017410Y0042770D02*
X0017340D01*
X0017413Y0042680D02*
X0017337D01*
X0017432Y0042590D02*
X0017318D01*
X0017471Y0042500D02*
X0017279D01*
X0017538Y0042410D02*
X0017212D01*
X0016297Y0044022D02*
Y0042964D01*
X0016207Y0044130D02*
Y0043095D01*
X0016170Y0050485D02*
Y0049129D01*
X0016044Y0045020D02*
X0012124D01*
X0016117Y0044946D02*
Y0043166D01*
X0016027Y0045036D02*
Y0043209D01*
X0015937Y0045126D02*
Y0043230D01*
X0015847Y0045216D02*
Y0043234D01*
X0015757Y0045217D02*
Y0043219D01*
X0015667Y0045217D02*
Y0043186D01*
X0016514Y0040430D02*
X0016110D01*
X0016446Y0042950D02*
X0016304D01*
X0016419Y0042860D02*
X0016331D01*
X0016410Y0042770D02*
X0016340D01*
X0016413Y0042680D02*
X0016337D01*
X0016432Y0042590D02*
X0016318D01*
X0016471Y0042500D02*
X0016279D01*
X0016538Y0042410D02*
X0016212D01*
X0015170Y0050485D02*
Y0049129D01*
X0014407Y0045217D02*
Y0041078D01*
X0015487Y0045217D02*
Y0043026D01*
X0015217Y0045217D02*
Y0043084D01*
X0015127Y0045217D02*
Y0043160D01*
X0015037Y0045217D02*
Y0043205D01*
X0014947Y0045217D02*
Y0043229D01*
X0014857Y0045217D02*
Y0043234D01*
X0014767Y0045217D02*
Y0043222D01*
X0014677Y0045217D02*
Y0043190D01*
X0015667Y0040350D02*
Y0040250D01*
X0015446Y0042950D02*
X0015304D01*
X0015419Y0042860D02*
X0015331D01*
X0015410Y0042770D02*
X0015340D01*
X0015413Y0042680D02*
X0015337D01*
X0015432Y0042590D02*
X0015318D01*
X0015471Y0042500D02*
X0015279D01*
X0015538Y0042410D02*
X0015212D01*
X0015307Y0045217D02*
Y0042941D01*
X0014497Y0045217D02*
Y0043041D01*
X0014227Y0045217D02*
Y0043073D01*
X0014137Y0045217D02*
Y0043154D01*
X0014047Y0045217D02*
Y0043201D01*
X0013957Y0045217D02*
Y0043227D01*
X0010460Y0048980D02*
X0009187D01*
X0012679Y0046370D02*
X0012181D01*
X0013867Y0045217D02*
Y0043235D01*
X0014580Y0049340D02*
X0014170D01*
X0014677Y0040347D02*
Y0040250D01*
X0014446Y0042950D02*
X0014304D01*
X0014419Y0042860D02*
X0014331D01*
X0014410Y0042770D02*
X0014340D01*
X0014413Y0042680D02*
X0014337D01*
X0014432Y0042590D02*
X0014318D01*
X0014471Y0042500D02*
X0014279D01*
X0014538Y0042410D02*
X0014212D01*
X0017580Y0042320D02*
X0017170D01*
X0010426Y0048890D02*
X0009187D01*
X0015846Y0045217D02*
X0016255Y0044809D01*
X0013237Y0045217D02*
Y0043061D01*
X0013147Y0045217D02*
Y0043146D01*
X0013057Y0045217D02*
Y0043197D01*
X0012967Y0045217D02*
Y0043225D01*
X0013417Y0045217D02*
Y0042852D01*
X0014991Y0047990D02*
X0013488D01*
X0013372Y0040610D02*
X0013253D01*
X0013446Y0042950D02*
X0013304D01*
X0013419Y0042860D02*
X0013331D01*
X0013410Y0042770D02*
X0013340D01*
X0013413Y0042680D02*
X0013337D01*
X0013432Y0042590D02*
X0013318D01*
X0013471Y0042500D02*
X0013279D01*
X0012877Y0045217D02*
Y0043235D01*
X0013538Y0042410D02*
X0013212D01*
X0012787Y0045217D02*
Y0043226D01*
X0012580Y0041780D02*
X0012170D01*
X0012410Y0048710D02*
X0012339D01*
X0013327Y0045217D02*
Y0042877D01*
X0012427Y0045217D02*
Y0042895D01*
X0012067Y0044077D02*
Y0043193D01*
X0011977Y0044013D02*
Y0043223D01*
X0011887Y0043992D02*
Y0043234D01*
X0011797Y0044004D02*
Y0043228D01*
X0011707Y0044053D02*
Y0043203D01*
X0011167Y0044646D02*
Y0043314D01*
X0012517Y0045217D02*
Y0043067D01*
X0012328Y0040790D02*
X0012296D01*
X0012446Y0042950D02*
X0012304D01*
X0012419Y0042860D02*
X0012331D01*
X0012410Y0042770D02*
X0012340D01*
X0012413Y0042680D02*
X0012337D01*
X0012432Y0042590D02*
X0012318D01*
X0012471Y0042500D02*
X0012279D01*
X0012372Y0040610D02*
X0012253D01*
X0012704Y0040340D02*
X0011921D01*
X0011514Y0040430D02*
X0011297D01*
X0011347Y0044466D02*
Y0040949D01*
X0011437Y0044376D02*
Y0042927D01*
X0011077Y0046080D02*
Y0043314D01*
X0010987Y0046036D02*
Y0043314D01*
X0010627Y0043765D02*
Y0043314D01*
X0010537Y0043765D02*
Y0043314D01*
X0010447Y0043765D02*
Y0043314D01*
X0011617Y0040369D02*
Y0040250D01*
X0011446Y0042950D02*
X0011340D01*
X0011419Y0042860D02*
X0011340D01*
X0011410Y0042770D02*
X0011340D01*
X0011413Y0042680D02*
X0011340D01*
X0011432Y0042590D02*
X0011340D01*
X0011471Y0042500D02*
X0011340D01*
X0011538Y0042410D02*
X0011340D01*
X0010410Y0042320D02*
X0009187D01*
X0011514Y0044300D02*
X0010672D01*
X0011527Y0044286D02*
Y0043078D01*
X0012697Y0045217D02*
Y0043199D01*
X0012580Y0049250D02*
X0012170D01*
X0011977Y0045979D02*
Y0045503D01*
X0016224Y0044840D02*
X0011940D01*
X0012313Y0045217D02*
X0012126Y0045030D01*
X0012580Y0049430D02*
X0012170D01*
X0025567Y0043174D02*
Y0040250D01*
X0010580Y0041510D02*
X0009187D01*
X0012067Y0044917D02*
Y0044422D01*
X0011977Y0044853D02*
Y0044487D01*
X0016119Y0044480D02*
X0011993D01*
X0016119Y0044390D02*
X0012092D01*
X0016134Y0044300D02*
X0012128D01*
X0016165Y0044210D02*
X0012130D01*
X0016214Y0044120D02*
X0012098D01*
X0016289Y0044030D02*
X0012010D01*
X0011604Y0044210D02*
X0010672D01*
X0011740Y0044030D02*
X0010672D01*
X0012034Y0045560D02*
X0011558D01*
X0012067Y0047042D02*
Y0046878D01*
X0011977Y0046978D02*
Y0046788D01*
X0011286Y0046910D02*
X0010533D01*
X0017197Y0045867D02*
Y0044692D01*
X0017107Y0045867D02*
Y0044823D01*
X0017017Y0045867D02*
Y0044902D01*
X0016927Y0045867D02*
Y0044954D01*
X0016837Y0045867D02*
Y0044987D01*
X0016747Y0045867D02*
Y0045004D01*
X0015307Y0047684D02*
Y0045657D01*
X0016687Y0045007D02*
X0016679D01*
X0011580Y0049340D02*
X0011057D01*
X0017197Y0048030D02*
Y0047007D01*
X0017107Y0048030D02*
Y0047007D01*
X0017017Y0048030D02*
Y0047007D01*
X0016927Y0048030D02*
Y0047007D01*
X0016837Y0048030D02*
Y0047007D01*
X0016747Y0048030D02*
Y0047007D01*
X0016297Y0048030D02*
Y0047007D01*
X0017467Y0050472D02*
Y0048993D01*
X0016387Y0048030D02*
Y0047007D01*
X0018367Y0046910D02*
X0017257D01*
X0018367Y0046820D02*
X0017257D01*
X0018367Y0046730D02*
X0017257D01*
X0018367Y0046640D02*
X0017257D01*
X0018367Y0046100D02*
X0017257D01*
X0018367Y0046010D02*
X0017257D01*
X0018367Y0045920D02*
X0017257D01*
X0018367Y0047000D02*
X0017257D01*
X0018367Y0046550D02*
X0017257D01*
X0018367Y0046460D02*
X0017257D01*
X0018367Y0046370D02*
X0017257D01*
X0018367Y0046280D02*
X0017257D01*
X0018367Y0046190D02*
X0017257D01*
X0019447Y0045867D02*
Y0044692D01*
X0019357Y0045867D02*
Y0044823D01*
X0019267Y0045867D02*
Y0044902D01*
X0019177Y0045867D02*
Y0044954D01*
X0019087Y0045867D02*
Y0044987D01*
X0018997Y0045867D02*
Y0045004D01*
X0018907Y0045867D02*
Y0045006D01*
X0018817Y0045867D02*
Y0044994D01*
X0018727Y0045867D02*
Y0044967D01*
X0018637Y0045867D02*
Y0044922D01*
X0018547Y0045867D02*
Y0044853D01*
X0018457Y0045867D02*
Y0044745D01*
X0024397Y0043432D02*
Y0041063D01*
X0023407Y0043400D02*
Y0041078D01*
X0023317Y0043340D02*
Y0042913D01*
X0021517Y0043220D02*
X0020991D01*
X0021543Y0044930D02*
X0019224D01*
X0021465Y0044840D02*
X0019341D01*
X0021417Y0044750D02*
X0019414D01*
X0021390Y0044660D02*
X0019462D01*
X0021380Y0044570D02*
X0019492D01*
X0025477Y0043267D02*
Y0040250D01*
X0025297Y0043304D02*
Y0042964D01*
X0017377Y0048030D02*
Y0041026D01*
X0019580Y0049160D02*
X0019170D01*
X0015577Y0045217D02*
Y0043127D01*
X0018277Y0048497D02*
Y0048470D01*
X0019267Y0048030D02*
Y0047007D01*
X0019177Y0048030D02*
Y0047007D01*
X0019087Y0048030D02*
Y0047007D01*
X0018997Y0048030D02*
Y0047007D01*
X0018907Y0048030D02*
Y0047007D01*
X0018817Y0048030D02*
Y0047007D01*
X0018727Y0048030D02*
Y0047007D01*
X0019447Y0048030D02*
Y0047007D01*
X0022597Y0045415D02*
Y0044972D01*
X0021607Y0045408D02*
Y0044979D01*
X0014497Y0048459D02*
Y0047496D01*
X0016117Y0047000D02*
X0014574D01*
X0021686Y0047270D02*
X0014893D01*
X0021417Y0047000D02*
X0019507D01*
X0021390Y0046910D02*
X0019507D01*
X0021380Y0046820D02*
X0019507D01*
X0016117Y0046100D02*
X0012077D01*
X0020390Y0046280D02*
X0019507D01*
X0020390Y0046190D02*
X0019507D01*
X0020390Y0046100D02*
X0019507D01*
X0020390Y0046010D02*
X0019507D01*
X0011617Y0048343D02*
Y0047241D01*
X0010807Y0046030D02*
Y0043314D01*
X0010627Y0048337D02*
Y0047453D01*
X0016117Y0046910D02*
X0012656D01*
X0016117Y0046820D02*
X0012623D01*
X0013417Y0051250D02*
Y0051093D01*
X0011655Y0048260D02*
X0009187D01*
X0011707Y0046709D02*
Y0046571D01*
X0011623Y0047270D02*
X0010672D01*
X0011829Y0046640D02*
X0011639D01*
X0011556Y0047180D02*
X0010667D01*
X0016117Y0046010D02*
X0012009D01*
X0016170Y0042371D02*
Y0041139D01*
X0010567Y0050060D02*
X0009187D01*
X0010607Y0048350D02*
X0009187D01*
X0010267Y0051250D02*
Y0047728D01*
X0010177Y0051250D02*
Y0047734D01*
X0010087Y0051250D02*
Y0047724D01*
X0009997Y0051250D02*
Y0047696D01*
X0012747Y0046550D02*
X0012361D01*
X0010807Y0048270D02*
Y0046470D01*
X0011106Y0046730D02*
X0010254D01*
X0014407Y0050546D02*
Y0047435D01*
X0016387Y0050579D02*
Y0048470D01*
X0016117Y0046280D02*
X0014365D01*
X0010926Y0046550D02*
X0010568D01*
X0022485Y0046100D02*
X0022265D01*
X0022432Y0046010D02*
X0022317D01*
X0022327Y0046611D02*
Y0045986D01*
X0022237Y0046475D02*
Y0046134D01*
X0022656Y0045380D02*
X0022094D01*
X0022396Y0045740D02*
X0022354D01*
X0022418Y0045650D02*
X0022332D01*
X0022461Y0045560D02*
X0022289D01*
X0022402Y0045920D02*
X0022347D01*
X0021427Y0046601D02*
Y0045998D01*
X0022147Y0046399D02*
Y0046213D01*
X0022057Y0046352D02*
Y0046261D01*
X0021967Y0046326D02*
Y0046288D01*
X0021877Y0046317D02*
Y0046297D01*
X0021787Y0046325D02*
Y0046289D01*
X0021697Y0046350D02*
Y0046263D01*
X0021607Y0046396D02*
Y0046216D01*
X0021517Y0046470D02*
Y0046139D01*
X0022507Y0045496D02*
Y0044894D01*
X0021391Y0045830D02*
X0021360D01*
X0021748Y0046280D02*
X0021360D01*
X0021571Y0046190D02*
X0021360D01*
X0021485Y0046100D02*
X0021360D01*
X0021432Y0046010D02*
X0021360D01*
X0017917Y0048030D02*
Y0043233D01*
X0021337Y0048030D02*
Y0046297D01*
X0022237Y0045490D02*
Y0044900D01*
X0021396Y0045740D02*
X0021360D01*
X0021418Y0045650D02*
X0021360D01*
X0021461Y0045560D02*
X0021360D01*
X0021532Y0045470D02*
X0021360D01*
X0020437Y0048030D02*
Y0046297D01*
X0021247Y0048030D02*
Y0046297D01*
X0021157Y0048030D02*
Y0046297D01*
X0021067Y0048030D02*
Y0046297D01*
X0018637Y0048030D02*
Y0047007D01*
X0020887Y0048030D02*
Y0046297D01*
X0020797Y0048030D02*
Y0046297D01*
X0020707Y0048030D02*
Y0046297D01*
X0020617Y0048030D02*
Y0046297D01*
X0022327Y0047611D02*
Y0047013D01*
X0022237Y0047475D02*
Y0047150D01*
X0021427Y0047601D02*
Y0047023D01*
X0022147Y0047399D02*
Y0047226D01*
X0022057Y0047352D02*
Y0047272D01*
X0021967Y0047326D02*
Y0047299D01*
X0021877Y0047317D02*
Y0047307D01*
X0021787Y0047325D02*
Y0047299D01*
X0021697Y0047350D02*
Y0047274D01*
X0021607Y0047396D02*
Y0047229D01*
X0021517Y0047470D02*
Y0047154D01*
X0022686Y0047270D02*
X0022064D01*
X0022543Y0047180D02*
X0022206D01*
X0022465Y0047090D02*
X0022285D01*
X0022417Y0047000D02*
X0022333D01*
X0022390Y0046910D02*
X0022360D01*
X0022380Y0046820D02*
X0022370D01*
X0022387Y0046730D02*
X0022363D01*
X0022411Y0046640D02*
X0022339D01*
X0022455Y0046550D02*
X0022295D01*
X0022527Y0046460D02*
X0022223D01*
X0022653Y0046370D02*
X0022097D01*
X0022327Y0048626D02*
Y0048013D01*
X0022237Y0048442D02*
Y0048150D01*
X0020977Y0048030D02*
Y0046297D01*
X0022147Y0048357D02*
Y0048226D01*
X0022057Y0048306D02*
Y0048272D01*
X0021337Y0048681D02*
Y0048523D01*
X0022580Y0049880D02*
X0022170D01*
X0022580Y0050060D02*
X0022170D01*
X0022664Y0048260D02*
X0022086D01*
X0022533Y0048170D02*
X0022217D01*
X0022459Y0048080D02*
X0022291D01*
X0022413Y0047990D02*
X0022337D01*
X0022388Y0047900D02*
X0022362D01*
X0022380Y0047810D02*
X0022370D01*
X0022389Y0047720D02*
X0022361D01*
X0022415Y0047630D02*
X0022335D01*
X0022462Y0047540D02*
X0022288D01*
X0022538Y0047450D02*
X0022212D01*
X0022674Y0047360D02*
X0022076D01*
X0011580Y0049250D02*
X0011057D01*
X0023317Y0047590D02*
Y0047034D01*
X0022417Y0047624D02*
Y0047001D01*
X0023227Y0047465D02*
Y0047160D01*
X0023137Y0047392D02*
Y0047232D01*
X0023047Y0047348D02*
Y0047276D01*
X0022957Y0047324D02*
Y0047300D01*
X0022867Y0047317D02*
Y0047307D01*
X0022777Y0047327D02*
Y0047298D01*
X0022687Y0047354D02*
Y0047270D01*
X0022597Y0047402D02*
Y0047222D01*
X0022507Y0047481D02*
Y0047144D01*
X0023686Y0047270D02*
X0023064D01*
X0023543Y0047180D02*
X0023206D01*
X0023465Y0047090D02*
X0023285D01*
X0023417Y0047000D02*
X0023333D01*
X0023390Y0046910D02*
X0023360D01*
X0023380Y0046820D02*
X0023370D01*
X0023387Y0046730D02*
X0023363D01*
X0023411Y0046640D02*
X0023339D01*
X0023455Y0046550D02*
X0023295D01*
X0023527Y0046460D02*
X0023223D01*
X0023653Y0046370D02*
X0023097D01*
X0023317Y0048587D02*
Y0048034D01*
X0022417Y0048648D02*
Y0048001D01*
X0023227Y0048427D02*
Y0048160D01*
X0023137Y0048346D02*
Y0048232D01*
X0023047Y0048298D02*
Y0048276D01*
X0022687Y0048305D02*
Y0048270D01*
X0022597Y0048357D02*
Y0048222D01*
X0022507Y0048446D02*
Y0048144D01*
X0023664Y0048260D02*
X0023086D01*
X0023533Y0048170D02*
X0023217D01*
X0023459Y0048080D02*
X0023291D01*
X0023413Y0047990D02*
X0023337D01*
X0023388Y0047900D02*
X0023362D01*
X0023380Y0047810D02*
X0023370D01*
X0023389Y0047720D02*
X0023361D01*
X0023415Y0047630D02*
X0023335D01*
X0023462Y0047540D02*
X0023288D01*
X0023538Y0047450D02*
X0023212D01*
X0023674Y0047360D02*
X0023076D01*
X0023407Y0047650D02*
Y0046974D01*
X0024307Y0047571D02*
Y0047053D01*
X0024217Y0047455D02*
Y0047170D01*
X0024127Y0047386D02*
Y0047238D01*
X0024037Y0047345D02*
Y0047280D01*
X0023947Y0047323D02*
Y0047302D01*
X0023857Y0047318D02*
Y0047307D01*
X0023767Y0047329D02*
Y0047295D01*
X0023677Y0047358D02*
Y0047266D01*
X0023587Y0047409D02*
Y0047215D01*
X0023497Y0047492D02*
Y0047132D01*
X0024686Y0047270D02*
X0024064D01*
X0024543Y0047180D02*
X0024206D01*
X0024465Y0047090D02*
X0024285D01*
X0024417Y0047000D02*
X0024333D01*
X0024390Y0046910D02*
X0024360D01*
X0024380Y0046820D02*
X0024370D01*
X0024387Y0046730D02*
X0024363D01*
X0024411Y0046640D02*
X0024339D01*
X0024455Y0046550D02*
X0024295D01*
X0024527Y0046460D02*
X0024223D01*
X0024653Y0046370D02*
X0024097D01*
X0023407Y0050546D02*
Y0047974D01*
X0024307Y0048559D02*
Y0048053D01*
X0024217Y0048416D02*
Y0048170D01*
X0024127Y0048340D02*
Y0048238D01*
X0024037Y0048295D02*
Y0048280D01*
X0023677Y0048309D02*
Y0048266D01*
X0023587Y0048365D02*
Y0048215D01*
X0023497Y0048459D02*
Y0048132D01*
X0024664Y0048260D02*
X0024086D01*
X0024533Y0048170D02*
X0024217D01*
X0024459Y0048080D02*
X0024291D01*
X0024413Y0047990D02*
X0024337D01*
X0024388Y0047900D02*
X0024362D01*
X0024380Y0047810D02*
X0024370D01*
X0024389Y0047720D02*
X0024361D01*
X0024415Y0047630D02*
X0024335D01*
X0024462Y0047540D02*
X0024288D01*
X0024538Y0047450D02*
X0024212D01*
X0024674Y0047360D02*
X0024076D01*
X0024397Y0047682D02*
Y0046942D01*
X0025297Y0047554D02*
Y0047070D01*
X0025207Y0047445D02*
Y0047179D01*
X0025117Y0047381D02*
Y0047244D01*
X0025027Y0047341D02*
Y0047283D01*
X0024937Y0047321D02*
Y0047303D01*
X0024847Y0047318D02*
Y0047306D01*
X0024757Y0047331D02*
Y0047293D01*
X0024667Y0047363D02*
Y0047262D01*
X0024577Y0047417D02*
Y0047208D01*
X0024487Y0047504D02*
Y0047120D01*
X0025686Y0047270D02*
X0025064D01*
X0025543Y0047180D02*
X0025206D01*
X0025465Y0047090D02*
X0025285D01*
X0025417Y0047000D02*
X0025333D01*
X0025390Y0046910D02*
X0025360D01*
X0025380Y0046820D02*
X0025370D01*
X0025387Y0046730D02*
X0025363D01*
X0025411Y0046640D02*
X0025339D01*
X0025455Y0046550D02*
X0025295D01*
X0025527Y0046460D02*
X0025223D01*
X0025653Y0046370D02*
X0025097D01*
X0024397Y0050562D02*
Y0047942D01*
X0025297Y0048539D02*
Y0048070D01*
X0025207Y0048409D02*
Y0048179D01*
X0025117Y0048337D02*
Y0048244D01*
X0025027Y0048295D02*
Y0048283D01*
X0024667Y0048318D02*
Y0048262D01*
X0024577Y0048377D02*
Y0048208D01*
X0024487Y0048477D02*
Y0048120D01*
X0025380Y0048260D02*
X0025086D01*
X0025380Y0048170D02*
X0025217D01*
X0025380Y0048080D02*
X0025291D01*
X0025380Y0047990D02*
X0025337D01*
X0025380Y0047900D02*
X0025362D01*
X0025380Y0047810D02*
X0025370D01*
X0025380Y0047720D02*
X0025361D01*
X0025380Y0047630D02*
X0025335D01*
X0025380Y0047540D02*
X0025288D01*
X0025380Y0047450D02*
X0025212D01*
X0025380Y0047360D02*
X0025076D01*
X0026287Y0047317D02*
Y0047086D01*
X0026197Y0047317D02*
Y0047188D01*
X0026107Y0047317D02*
Y0047249D01*
X0026017Y0047317D02*
Y0047286D01*
X0025927Y0047317D02*
Y0047304D01*
X0025837Y0047317D02*
Y0047306D01*
X0025747Y0047317D02*
Y0047291D01*
X0025657Y0047317D02*
Y0047257D01*
X0025567Y0047317D02*
Y0047200D01*
X0025477Y0047317D02*
Y0047107D01*
X0025387Y0047317D02*
Y0046897D01*
X0026500Y0045920D02*
X0026347D01*
X0026500Y0047270D02*
X0026064D01*
X0026500Y0047180D02*
X0026206D01*
X0026500Y0047090D02*
X0026285D01*
X0026500Y0047000D02*
X0026333D01*
X0026500Y0046910D02*
X0026360D01*
X0026500Y0046820D02*
X0026370D01*
X0026500Y0046730D02*
X0026363D01*
X0026500Y0046640D02*
X0026339D01*
X0026500Y0046550D02*
X0026295D01*
X0026500Y0046460D02*
X0026223D01*
X0026500Y0046370D02*
X0026097D01*
X0026287Y0051250D02*
Y0048307D01*
X0026197Y0051250D02*
Y0048307D01*
X0026107Y0051250D02*
Y0048307D01*
X0026017Y0051250D02*
Y0048307D01*
X0025927Y0051250D02*
Y0048307D01*
X0025837Y0051250D02*
Y0048307D01*
X0025747Y0051250D02*
Y0048307D01*
X0025657Y0051250D02*
Y0048307D01*
X0025567Y0051250D02*
Y0048307D01*
X0025477Y0051250D02*
Y0048307D01*
X0025387Y0051250D02*
Y0048307D01*
X0026500Y0048260D02*
X0026370D01*
X0026500Y0048170D02*
X0026370D01*
X0026500Y0048080D02*
X0026370D01*
X0026500Y0047990D02*
X0026370D01*
X0026500Y0047900D02*
X0026370D01*
X0026500Y0047810D02*
X0026370D01*
X0026500Y0047720D02*
X0026370D01*
X0026500Y0047630D02*
X0026370D01*
X0026500Y0047540D02*
X0026370D01*
X0026500Y0047450D02*
X0026370D01*
X0022327Y0044361D02*
Y0043763D01*
X0022237Y0044225D02*
Y0043900D01*
X0021427Y0044351D02*
Y0043773D01*
X0022472Y0043850D02*
X0022278D01*
X0022421Y0043760D02*
X0022329D01*
X0022392Y0043670D02*
X0022358D01*
X0022380Y0043580D02*
X0022370D01*
X0022385Y0043490D02*
X0022365D01*
X0022407Y0043400D02*
X0022343D01*
X0022449Y0043310D02*
X0022301D01*
X0022713Y0044030D02*
X0022037D01*
X0022555Y0043940D02*
X0022195D01*
X0021517Y0044220D02*
Y0043904D01*
X0021653Y0046370D02*
X0019507D01*
X0020527Y0045328D02*
Y0043078D01*
X0021402Y0045920D02*
X0021360D01*
X0022686Y0045020D02*
X0022064D01*
X0022327Y0045638D02*
Y0044763D01*
X0021656Y0045380D02*
X0021360D01*
X0021427Y0045627D02*
Y0044773D01*
X0022147Y0045411D02*
Y0044976D01*
X0022057Y0045363D02*
Y0045022D01*
X0021967Y0045336D02*
Y0045049D01*
X0022543Y0044930D02*
X0022206D01*
X0022465Y0044840D02*
X0022285D01*
X0022417Y0044750D02*
X0022333D01*
X0022390Y0044660D02*
X0022360D01*
X0022380Y0044570D02*
X0022370D01*
X0022387Y0044480D02*
X0022363D01*
X0022411Y0044390D02*
X0022339D01*
X0022455Y0044300D02*
X0022295D01*
X0022527Y0044210D02*
X0022223D01*
X0022653Y0044120D02*
X0022097D01*
X0021877Y0045328D02*
Y0045057D01*
X0021787Y0045336D02*
Y0045049D01*
X0023317Y0044340D02*
Y0043784D01*
X0022417Y0044374D02*
Y0043751D01*
X0023713Y0044030D02*
X0023037D01*
X0023555Y0043940D02*
X0023195D01*
X0023472Y0043850D02*
X0023278D01*
X0023421Y0043760D02*
X0023329D01*
X0023392Y0043670D02*
X0023358D01*
X0023380Y0043580D02*
X0023370D01*
X0023385Y0043490D02*
X0023365D01*
X0023407Y0043400D02*
X0023343D01*
X0023449Y0043310D02*
X0023301D01*
X0023227Y0044215D02*
Y0043910D01*
X0022597Y0044152D02*
Y0043972D01*
X0022507Y0044231D02*
Y0043894D01*
X0021527Y0046460D02*
X0019507D01*
X0023686Y0045020D02*
X0023064D01*
X0023543Y0044930D02*
X0023206D01*
X0023465Y0044840D02*
X0023285D01*
X0023417Y0044750D02*
X0023333D01*
X0023390Y0044660D02*
X0023360D01*
X0023380Y0044570D02*
X0023370D01*
X0023387Y0044480D02*
X0023363D01*
X0023411Y0044390D02*
X0023339D01*
X0023455Y0044300D02*
X0023295D01*
X0023527Y0044210D02*
X0023223D01*
X0023653Y0044120D02*
X0023097D01*
X0022532Y0045470D02*
X0022218D01*
X0023317Y0045614D02*
Y0044784D01*
X0022417Y0045653D02*
Y0044751D01*
X0023227Y0045479D02*
Y0044910D01*
X0023137Y0045405D02*
Y0044982D01*
X0023047Y0045359D02*
Y0045026D01*
X0022957Y0045335D02*
Y0045050D01*
X0022867Y0045328D02*
Y0045057D01*
X0022777Y0045338D02*
Y0045048D01*
X0023407Y0044400D02*
Y0043724D01*
X0024307Y0044321D02*
Y0043803D01*
X0024713Y0044030D02*
X0024037D01*
X0024555Y0043940D02*
X0024195D01*
X0024472Y0043850D02*
X0024278D01*
X0024421Y0043760D02*
X0024329D01*
X0024392Y0043670D02*
X0024358D01*
X0024380Y0043580D02*
X0024370D01*
X0024385Y0043490D02*
X0024365D01*
X0024407Y0043400D02*
X0024343D01*
X0024449Y0043310D02*
X0024301D01*
X0024217Y0044205D02*
Y0043920D01*
X0023587Y0044159D02*
Y0043965D01*
X0023497Y0044242D02*
Y0043882D01*
X0021455Y0046550D02*
X0019507D01*
X0024686Y0045020D02*
X0024064D01*
X0024543Y0044930D02*
X0024206D01*
X0024465Y0044840D02*
X0024285D01*
X0024417Y0044750D02*
X0024333D01*
X0024390Y0044660D02*
X0024360D01*
X0024380Y0044570D02*
X0024370D01*
X0024387Y0044480D02*
X0024363D01*
X0024411Y0044390D02*
X0024339D01*
X0024455Y0044300D02*
X0024295D01*
X0024527Y0044210D02*
X0024223D01*
X0024653Y0044120D02*
X0024097D01*
X0023532Y0045470D02*
X0023218D01*
X0023407Y0045685D02*
Y0044724D01*
X0024307Y0045593D02*
Y0044803D01*
X0024217Y0045469D02*
Y0044920D01*
X0024127Y0045398D02*
Y0044988D01*
X0024037Y0045356D02*
Y0045030D01*
X0023947Y0045333D02*
Y0045052D01*
X0023857Y0045328D02*
Y0045057D01*
X0023767Y0045340D02*
Y0045045D01*
X0024397Y0044432D02*
Y0043692D01*
X0025297Y0044304D02*
Y0043820D01*
X0025713Y0044030D02*
X0025037D01*
X0025555Y0043940D02*
X0025195D01*
X0025472Y0043850D02*
X0025278D01*
X0025421Y0043760D02*
X0025329D01*
X0025392Y0043670D02*
X0025358D01*
X0025380Y0043580D02*
X0025370D01*
X0025385Y0043490D02*
X0025365D01*
X0025407Y0043400D02*
X0025343D01*
X0025449Y0043310D02*
X0025301D01*
X0025207Y0044195D02*
Y0043929D01*
X0024577Y0044167D02*
Y0043958D01*
X0024487Y0044254D02*
Y0043870D01*
X0021411Y0046640D02*
X0019507D01*
X0025380Y0045020D02*
X0025064D01*
X0025380Y0044930D02*
X0025206D01*
X0025380Y0044840D02*
X0025285D01*
X0025380Y0044750D02*
X0025333D01*
X0025380Y0044660D02*
X0025360D01*
X0025380Y0044570D02*
X0025370D01*
X0025380Y0044480D02*
X0025363D01*
X0025380Y0044390D02*
X0025339D01*
X0025380Y0044300D02*
X0025295D01*
X0025380Y0044210D02*
X0025223D01*
X0025380Y0044120D02*
X0025097D01*
X0024532Y0045470D02*
X0024218D01*
X0024397Y0045730D02*
Y0044692D01*
X0025297Y0045574D02*
Y0044820D01*
X0025207Y0045459D02*
Y0044929D01*
X0025117Y0045393D02*
Y0044994D01*
X0025027Y0045352D02*
Y0045033D01*
X0024937Y0045332D02*
Y0045053D01*
X0024847Y0045328D02*
Y0045056D01*
X0024757Y0045342D02*
Y0045043D01*
X0026287Y0044067D02*
Y0043836D01*
X0026197Y0044067D02*
Y0043938D01*
X0026107Y0044067D02*
Y0043999D01*
X0026017Y0044067D02*
Y0044036D01*
X0025927Y0044067D02*
Y0044054D01*
X0025837Y0044067D02*
Y0044056D01*
X0025747Y0044067D02*
Y0044041D01*
X0025657Y0044067D02*
Y0044007D01*
X0025567Y0044067D02*
Y0043950D01*
X0025477Y0044067D02*
Y0043857D01*
X0025387Y0044067D02*
Y0043647D01*
X0026500Y0045470D02*
X0026218D01*
X0026500Y0044030D02*
X0026037D01*
X0026500Y0043940D02*
X0026195D01*
X0026500Y0043850D02*
X0026278D01*
X0026500Y0043760D02*
X0026329D01*
X0026500Y0043670D02*
X0026358D01*
X0026500Y0043580D02*
X0026370D01*
X0026500Y0043490D02*
X0026365D01*
X0026500Y0043400D02*
X0026343D01*
X0026500Y0043310D02*
X0026301D01*
X0026500Y0044120D02*
X0026370D01*
X0021387Y0046730D02*
X0019507D01*
X0025532Y0045470D02*
X0025218D01*
X0026287Y0045558D02*
Y0045057D01*
X0026197Y0045450D02*
Y0045057D01*
X0026107Y0045387D02*
Y0045057D01*
X0026017Y0045349D02*
Y0045057D01*
X0025927Y0045330D02*
Y0045057D01*
X0025837Y0045329D02*
Y0045057D01*
X0025747Y0045345D02*
Y0045057D01*
X0025657Y0045379D02*
Y0045057D01*
X0026500Y0043220D02*
X0026232D01*
X0026500Y0045020D02*
X0026370D01*
X0026500Y0044930D02*
X0026370D01*
X0026500Y0044840D02*
X0026370D01*
X0026500Y0044750D02*
X0026370D01*
X0026500Y0044660D02*
X0026370D01*
X0026500Y0044570D02*
X0026370D01*
X0026500Y0044480D02*
X0026370D01*
X0026500Y0044390D02*
X0026370D01*
X0026500Y0044300D02*
X0026370D01*
X0026500Y0044210D02*
X0026370D01*
X0026500Y0049880D02*
X0025170D01*
X0024580Y0050060D02*
X0024170D01*
X0026500Y0051250D02*
X0025020D01*
X0026500Y0049790D02*
X0025170D01*
X0026500Y0051230D02*
X0025058D01*
X0026500Y0051140D02*
X0025169D01*
X0024580Y0049970D02*
X0024170D01*
X0026500Y0049700D02*
X0025170D01*
X0026500Y0051050D02*
X0025235D01*
X0026500Y0050960D02*
X0025274D01*
X0026500Y0050870D02*
X0025293D01*
X0024577Y0051250D02*
Y0051236D01*
X0026500Y0050510D02*
X0025191D01*
X0024487Y0043254D02*
Y0043026D01*
X0024604Y0051250D02*
X0024020D01*
X0024566Y0051230D02*
X0024058D01*
X0024455Y0051140D02*
X0024169D01*
X0024433Y0050510D02*
X0024191D01*
X0024580Y0050150D02*
X0024170D01*
X0024390Y0051050D02*
X0024235D01*
X0024351Y0050960D02*
X0024274D01*
X0024331Y0050870D02*
X0024293D01*
X0024329Y0050780D02*
X0024296D01*
X0024343Y0050690D02*
X0024281D01*
X0023497Y0043242D02*
Y0043041D01*
X0024580Y0049250D02*
X0024170D01*
X0023604Y0051250D02*
X0023020D01*
X0023566Y0051230D02*
X0023058D01*
X0023455Y0051140D02*
X0023169D01*
X0023433Y0050510D02*
X0023191D01*
X0021580Y0049250D02*
X0021170D01*
X0023390Y0051050D02*
X0023235D01*
X0023351Y0050960D02*
X0023274D01*
X0023331Y0050870D02*
X0023293D01*
X0023329Y0050780D02*
X0023296D01*
X0022507Y0051250D02*
Y0051189D01*
X0026500Y0050690D02*
X0025281D01*
X0022147Y0051250D02*
Y0051163D01*
X0022057Y0051250D02*
Y0051230D01*
X0021517Y0051250D02*
Y0051197D01*
X0022329Y0050780D02*
X0022296D01*
X0022343Y0050690D02*
X0022281D01*
X0022455Y0051140D02*
X0022169D01*
X0022433Y0050510D02*
X0022191D01*
X0022237Y0050579D02*
Y0049065D01*
X0020580Y0049610D02*
X0020170D01*
X0021604Y0051250D02*
X0021020D01*
X0021566Y0051230D02*
X0021058D01*
X0021455Y0051140D02*
X0021169D01*
X0021390Y0051050D02*
X0021235D01*
X0021351Y0050960D02*
X0021274D01*
X0020527Y0051250D02*
Y0051204D01*
X0021427Y0050518D02*
Y0048899D01*
X0021343Y0050690D02*
X0021281D01*
X0021377Y0050600D02*
X0021248D01*
X0021433Y0050510D02*
X0021191D01*
X0020347Y0051250D02*
Y0050949D01*
X0019580Y0049700D02*
X0019170D01*
X0020604Y0051250D02*
X0020020D01*
X0020566Y0051230D02*
X0020058D01*
X0020455Y0051140D02*
X0020169D01*
X0020390Y0051050D02*
X0020235D01*
X0020351Y0050960D02*
X0020274D01*
X0019537Y0051250D02*
Y0051211D01*
X0020437Y0050505D02*
Y0048927D01*
X0020343Y0050690D02*
X0020281D01*
X0020377Y0050600D02*
X0020248D01*
X0020433Y0050510D02*
X0020191D01*
X0021337Y0051250D02*
Y0050909D01*
X0018580Y0049610D02*
X0018170D01*
X0019604Y0051250D02*
X0019020D01*
X0019566Y0051230D02*
X0019058D01*
X0019455Y0051140D02*
X0019169D01*
X0019390Y0051050D02*
X0019235D01*
X0019351Y0050960D02*
X0019274D01*
X0018547Y0051250D02*
Y0051218D01*
X0019447Y0050493D02*
Y0048956D01*
X0019343Y0050690D02*
X0019281D01*
X0019377Y0050600D02*
X0019248D01*
X0019433Y0050510D02*
X0019191D01*
X0020257Y0051250D02*
Y0051004D01*
X0026500Y0048350D02*
X0025137D01*
X0018580Y0049520D02*
X0018170D01*
X0018604Y0051250D02*
X0018020D01*
X0018566Y0051230D02*
X0018058D01*
X0018455Y0051140D02*
X0018169D01*
X0014317Y0051250D02*
Y0048913D01*
X0016207Y0051250D02*
Y0051093D01*
X0018390Y0051050D02*
X0018235D01*
X0018351Y0050960D02*
X0018274D01*
X0016477Y0051250D02*
Y0051163D01*
X0017377Y0051250D02*
Y0051026D01*
X0017467Y0048030D02*
Y0042993D01*
X0017604Y0051250D02*
X0017020D01*
X0017566Y0051230D02*
X0017058D01*
X0016387Y0051250D02*
Y0051045D01*
X0017287Y0051250D02*
Y0050909D01*
X0015397Y0051250D02*
Y0051063D01*
X0015487Y0051250D02*
Y0051172D01*
X0016567Y0051250D02*
Y0051230D01*
X0017197Y0051250D02*
Y0051107D01*
X0019447Y0048551D02*
Y0048470D01*
X0016604Y0051250D02*
X0016020D01*
X0017107D02*
Y0051197D01*
X0016117Y0051250D02*
Y0051189D01*
X0016343Y0050690D02*
X0016281D01*
X0016377Y0050600D02*
X0016248D01*
X0016433Y0050510D02*
X0016191D01*
X0015580Y0050330D02*
X0015170D01*
X0014407Y0051250D02*
Y0051078D01*
X0015217Y0051250D02*
Y0051078D01*
X0015127Y0051250D02*
Y0051181D01*
X0015037Y0051250D02*
Y0051242D01*
X0015307Y0051250D02*
Y0048941D01*
X0015604Y0051250D02*
X0015020D01*
X0015487Y0050453D02*
Y0049026D01*
X0015580Y0049700D02*
X0015170D01*
X0014604Y0051250D02*
X0014020D01*
X0014566Y0051230D02*
X0014058D01*
X0014455Y0051140D02*
X0014169D01*
X0014390Y0051050D02*
X0014235D01*
X0014351Y0050960D02*
X0014274D01*
X0014331Y0050870D02*
X0014293D01*
X0014377Y0050600D02*
X0014248D01*
X0014433Y0050510D02*
X0014191D01*
X0014580Y0049790D02*
X0014170D01*
X0013147Y0051250D02*
Y0051163D01*
X0010567Y0049250D02*
X0009187D01*
X0010567Y0049160D02*
X0009187D01*
X0014580Y0049700D02*
X0014170D01*
X0013604Y0051250D02*
X0013020D01*
X0013566Y0051230D02*
X0013058D01*
X0012427Y0051250D02*
Y0051107D01*
X0014329Y0050780D02*
X0014296D01*
X0013433Y0050510D02*
X0013191D01*
X0011580Y0041330D02*
X0011170D01*
X0013507Y0051250D02*
Y0051189D01*
X0010567Y0049520D02*
X0009187D01*
X0010433Y0050510D02*
X0009187D01*
X0010567Y0049340D02*
X0009187D01*
X0011347Y0051250D02*
Y0050949D01*
X0012247Y0051250D02*
Y0051026D01*
X0010567Y0049970D02*
X0009187D01*
X0012331Y0050870D02*
X0012293D01*
X0012329Y0050780D02*
X0012296D01*
X0012343Y0050690D02*
X0012281D01*
X0013528Y0050420D02*
X0013170D01*
X0012433Y0050510D02*
X0012191D01*
X0012697Y0040341D02*
Y0040250D01*
X0012067Y0051250D02*
Y0051224D01*
X0010357Y0051250D02*
Y0050979D01*
X0011077Y0051250D02*
Y0051218D01*
X0010567Y0049880D02*
X0009187D01*
X0010567Y0049790D02*
X0009187D01*
X0010423Y0048620D02*
X0009187D01*
X0011580Y0049160D02*
X0011128D01*
X0011604Y0051250D02*
X0011020D01*
X0011566Y0051230D02*
X0011058D01*
X0011455Y0051140D02*
X0011169D01*
X0011390Y0051050D02*
X0011235D01*
X0011351Y0050960D02*
X0011274D01*
X0011617Y0046370D02*
X0011368D01*
X0011329Y0050780D02*
X0011296D01*
X0011343Y0050690D02*
X0011281D01*
X0011377Y0050600D02*
X0011248D01*
X0011433Y0050510D02*
X0011191D01*
X0011528Y0050420D02*
X0011097D01*
X0024580Y0041240D02*
X0024170D01*
X0026500Y0041870D02*
X0025170D01*
X0024580Y0042320D02*
X0024170D01*
X0026500Y0040970D02*
X0025271D01*
X0026500Y0041150D02*
X0025170D01*
X0026500Y0041960D02*
X0025170D01*
X0026500Y0042050D02*
X0025170D01*
X0024577Y0042373D02*
Y0041236D01*
X0024487Y0042473D02*
Y0041172D01*
X0021387Y0044480D02*
X0019506D01*
X0023580Y0041870D02*
X0023170D01*
X0023580Y0041600D02*
X0023170D01*
X0026500Y0042140D02*
X0025170D01*
X0024580Y0041780D02*
X0024170D01*
X0026500Y0041240D02*
X0025170D01*
X0024580Y0041960D02*
X0024170D01*
X0023587Y0042365D02*
Y0041242D01*
X0023497Y0042459D02*
Y0041181D01*
X0024487Y0050453D02*
Y0049030D01*
X0026500Y0042590D02*
X0025318D01*
X0022580Y0042320D02*
X0022170D01*
X0023580Y0042230D02*
X0023170D01*
X0023580Y0041330D02*
X0023170D01*
X0023580Y0041420D02*
X0023170D01*
X0023580Y0041510D02*
X0023170D01*
X0024580Y0042050D02*
X0024170D01*
X0023580Y0041780D02*
X0023170D01*
X0022507Y0042446D02*
Y0041189D01*
X0022417Y0042648D02*
Y0041093D01*
X0022237Y0042439D02*
Y0041045D01*
X0026500Y0042500D02*
X0025279D01*
X0016580Y0041600D02*
X0016170D01*
X0022704Y0040340D02*
X0021921D01*
X0022396Y0041060D02*
X0022229D01*
X0022354Y0040970D02*
X0022271D01*
X0022580Y0041510D02*
X0022170D01*
X0022580Y0041600D02*
X0022170D01*
X0022580Y0041690D02*
X0022170D01*
X0021517Y0042433D02*
Y0041197D01*
X0021427Y0042604D02*
Y0041107D01*
X0026500Y0040610D02*
X0025253D01*
X0022580Y0042230D02*
X0022170D01*
X0018580Y0041690D02*
X0018170D01*
X0021396Y0041060D02*
X0021229D01*
X0021354Y0040970D02*
X0021271D01*
X0021332Y0040880D02*
X0021292D01*
X0021580Y0041510D02*
X0021170D01*
X0021580Y0041600D02*
X0021170D01*
X0021580Y0041690D02*
X0021170D01*
X0020527Y0042421D02*
Y0041204D01*
X0020437Y0042573D02*
Y0041119D01*
X0020580Y0049160D02*
X0020170D01*
X0021517Y0040428D02*
Y0040250D01*
X0021465Y0041150D02*
X0021170D01*
X0016580Y0041420D02*
X0016170D01*
X0020396Y0041060D02*
X0020229D01*
X0020354Y0040970D02*
X0020271D01*
X0020332Y0040880D02*
X0020292D01*
X0020328Y0040790D02*
X0020296D01*
X0020580Y0041510D02*
X0020170D01*
X0020580Y0041600D02*
X0020170D01*
X0019537Y0042411D02*
Y0041211D01*
X0019447Y0042548D02*
Y0041131D01*
X0019357Y0044052D02*
Y0040979D01*
X0020437Y0040505D02*
Y0040250D01*
X0021337Y0040716D02*
Y0040250D01*
X0019580Y0041420D02*
X0019170D01*
X0019580Y0041510D02*
X0019170D01*
X0019372Y0040610D02*
X0019253D01*
X0019426Y0040520D02*
X0019199D01*
X0019514Y0040430D02*
X0019110D01*
X0019580Y0041600D02*
X0019170D01*
X0019580Y0041690D02*
X0019170D01*
X0018547Y0042400D02*
Y0041218D01*
X0018457Y0042526D02*
Y0041142D01*
X0019580Y0049790D02*
X0019170D01*
X0018277Y0042497D02*
Y0040949D01*
X0019447Y0040493D02*
Y0040250D01*
X0018580Y0042371D02*
Y0041238D01*
X0018396Y0041060D02*
X0018229D01*
X0018354Y0040970D02*
X0018271D01*
X0018580Y0041510D02*
X0018170D01*
X0018580Y0041600D02*
X0018170D01*
X0017557Y0042391D02*
Y0041224D01*
X0017467Y0042507D02*
Y0041153D01*
X0018277Y0051250D02*
Y0050949D01*
X0018514Y0040430D02*
X0018110D01*
X0018187Y0042386D02*
Y0041119D01*
X0016580Y0041870D02*
X0016170D01*
X0016580Y0041240D02*
X0016170D01*
X0017287Y0042515D02*
Y0040909D01*
X0017197Y0042395D02*
Y0041107D01*
X0017328Y0040790D02*
X0017296D01*
X0017341Y0040700D02*
X0017284D01*
X0017372Y0040610D02*
X0017253D01*
X0017426Y0040520D02*
X0017199D01*
X0016477Y0042489D02*
Y0041163D01*
X0016387Y0043953D02*
Y0041045D01*
X0017467Y0040472D02*
Y0040250D01*
X0017704Y0040340D02*
X0016921D01*
X0015580Y0041780D02*
X0015170D01*
X0016207Y0042405D02*
Y0041093D01*
X0015580Y0041600D02*
X0015170D01*
X0011580Y0050060D02*
X0011057D01*
X0011580Y0049970D02*
X0011057D01*
X0011580Y0049880D02*
X0011057D01*
X0011580Y0049790D02*
X0011057D01*
X0011580Y0049700D02*
X0011057D01*
X0011580Y0049610D02*
X0011057D01*
X0016477Y0048495D02*
Y0048470D01*
X0015397Y0050562D02*
Y0048396D01*
X0015307Y0048559D02*
Y0048306D01*
X0015667Y0048030D02*
Y0045657D01*
X0015217Y0048416D02*
Y0048216D01*
X0015127Y0048340D02*
Y0048126D01*
X0015037Y0048295D02*
Y0048036D01*
X0014947Y0048271D02*
Y0047946D01*
X0014857Y0048266D02*
Y0047856D01*
X0014767Y0048278D02*
Y0047766D01*
X0021413Y0047990D02*
X0015613D01*
X0021462Y0047540D02*
X0015163D01*
X0021388Y0047900D02*
X0015523D01*
X0021380Y0047810D02*
X0015433D01*
X0011077Y0048312D02*
Y0046701D01*
X0010987Y0048279D02*
Y0046611D01*
X0010897Y0048266D02*
Y0046521D01*
X0010627Y0046030D02*
Y0045453D01*
X0011476Y0046100D02*
X0011098D01*
X0012099Y0046910D02*
X0011909D01*
X0012009Y0046820D02*
X0011819D01*
X0011685Y0046550D02*
X0011549D01*
X0011919Y0046730D02*
X0011729D01*
X0011631Y0046460D02*
X0011458D01*
X0012580Y0050240D02*
X0012170D01*
X0012580Y0050150D02*
X0012170D01*
X0012580Y0050060D02*
X0012170D01*
X0012580Y0049970D02*
X0012170D01*
X0012580Y0049880D02*
X0012170D01*
X0012580Y0049790D02*
X0012170D01*
X0012580Y0049700D02*
X0012170D01*
X0012580Y0049610D02*
X0012170D01*
X0012580Y0049520D02*
X0012170D01*
X0015397Y0047774D02*
Y0045657D01*
X0014317Y0046202D02*
Y0045657D01*
X0015847Y0048030D02*
Y0045657D01*
X0015757Y0048030D02*
Y0045657D01*
X0015577Y0047954D02*
Y0045657D01*
X0015487Y0047864D02*
Y0045657D01*
X0015217Y0047594D02*
Y0045657D01*
X0015127Y0047504D02*
Y0045657D01*
X0015037Y0047414D02*
Y0045657D01*
X0014947Y0047324D02*
Y0045657D01*
X0014857Y0047234D02*
Y0045657D01*
X0014407Y0046995D02*
Y0045657D01*
X0014767Y0047144D02*
Y0045657D01*
X0014677Y0047054D02*
Y0045657D01*
X0014227Y0046138D02*
Y0045657D01*
X0014137Y0046117D02*
Y0045657D01*
X0014047Y0046129D02*
Y0045657D01*
X0013957Y0046178D02*
Y0045657D01*
X0013867Y0046356D02*
Y0045657D01*
X0013417Y0046995D02*
Y0045657D01*
X0013327Y0046995D02*
Y0045657D01*
X0012427Y0046616D02*
Y0045657D01*
X0012337Y0046526D02*
Y0045657D01*
X0013507Y0046995D02*
Y0045657D01*
X0013237Y0046995D02*
Y0045657D01*
X0013147Y0046224D02*
Y0045657D01*
X0013057Y0046146D02*
Y0045657D01*
X0012967Y0046118D02*
Y0045657D01*
X0012877Y0046124D02*
Y0045657D01*
X0012787Y0046165D02*
Y0045657D01*
X0012697Y0046279D02*
Y0045657D01*
X0010567Y0049430D02*
X0009187D01*
X0012607Y0046798D02*
Y0045657D01*
X0014317Y0045217D02*
Y0042913D01*
X0020390Y0045560D02*
X0016126D01*
X0018367Y0040620D02*
Y0040250D01*
X0026500Y0045290D02*
X0016396D01*
X0026500Y0045200D02*
X0016486D01*
X0020390Y0045470D02*
X0016216D01*
X0020390Y0045380D02*
X0016306D01*
X0021686Y0045020D02*
X0016666D01*
X0017287Y0048030D02*
Y0042985D01*
X0020390Y0045650D02*
X0015994D01*
X0016117Y0048030D02*
Y0045568D01*
X0013226Y0048350D02*
X0013142D01*
X0013597Y0048099D02*
Y0047435D01*
X0013417Y0048648D02*
Y0048541D01*
X0013327Y0048622D02*
Y0048451D01*
X0014541Y0047540D02*
X0012913D01*
X0013775Y0048276D02*
X0013470Y0047971D01*
X0014901Y0047900D02*
X0013273D01*
X0016027Y0048030D02*
Y0045638D01*
X0014811Y0047810D02*
X0013183D01*
X0014631Y0047630D02*
X0013003D01*
X0015846Y0045217D02*
X0012313D01*
X0013147Y0048353D02*
Y0048341D01*
X0012607Y0048350D02*
Y0047856D01*
X0012517Y0048433D02*
Y0047766D01*
X0012427Y0048604D02*
Y0047676D01*
X0012157Y0048361D02*
Y0046968D01*
X0021580Y0050240D02*
X0021170D01*
X0021580Y0050150D02*
X0021170D01*
X0021580Y0050060D02*
X0021170D01*
X0021580Y0049970D02*
X0021170D01*
X0026500Y0050330D02*
X0025170D01*
X0012157Y0045061D02*
Y0043139D01*
X0011617Y0045110D02*
X0011532D01*
X0011626Y0045020D02*
X0011532D01*
X0021415Y0047630D02*
X0015253D01*
X0011347Y0046349D02*
Y0045971D01*
X0011437Y0046439D02*
Y0046061D01*
X0011527Y0046529D02*
Y0046151D01*
X0011257Y0046259D02*
Y0045881D01*
X0011617Y0046356D02*
Y0046241D01*
X0020390Y0045740D02*
X0011739D01*
X0012166Y0045650D02*
X0011648D01*
X0012067Y0046080D02*
Y0045593D01*
X0013777Y0048276D02*
Y0047435D01*
X0013687Y0048189D02*
Y0047435D01*
X0023580Y0050240D02*
X0023170D01*
X0023580Y0050150D02*
X0023170D01*
X0023580Y0050060D02*
X0023170D01*
X0023580Y0049970D02*
X0023170D01*
X0023580Y0049880D02*
X0023170D01*
X0015171Y0048170D02*
X0013668D01*
X0012337Y0048681D02*
Y0047586D01*
X0013011Y0048260D02*
X0012095D01*
X0012921Y0048170D02*
X0012095D01*
X0012230Y0047450D02*
X0012095D01*
X0013237Y0047864D02*
Y0047435D01*
X0012471Y0047720D02*
X0012095D01*
X0012217Y0047028D02*
X0011815Y0046626D01*
X0026500Y0043040D02*
X0025253D01*
X0025117Y0040436D02*
Y0040250D01*
X0024937Y0040344D02*
Y0040250D01*
X0024307Y0042559D02*
Y0040250D01*
X0023857Y0040330D02*
Y0040250D01*
X0011655Y0047540D02*
X0010576D01*
X0024580Y0042140D02*
X0024170D01*
X0024580Y0041600D02*
X0024170D01*
X0024580Y0041510D02*
X0024170D01*
X0024580Y0041420D02*
X0024170D01*
X0020580Y0049430D02*
X0020170D01*
X0020580Y0050240D02*
X0020170D01*
X0020580Y0050150D02*
X0020170D01*
X0020580Y0050060D02*
X0020170D01*
X0016584Y0050240D02*
X0016170D01*
X0016584Y0050150D02*
X0016170D01*
X0016584Y0050060D02*
X0016170D01*
X0016584Y0049970D02*
X0016170D01*
X0016584Y0049700D02*
X0016170D01*
X0016584Y0049610D02*
X0016170D01*
X0019580Y0042140D02*
X0019170D01*
X0019580Y0042050D02*
X0019170D01*
X0019580Y0041960D02*
X0019170D01*
X0019580Y0041870D02*
X0019170D01*
X0017580Y0041690D02*
X0017170D01*
X0017580Y0041600D02*
X0017170D01*
X0017580Y0041510D02*
X0017170D01*
X0017580Y0041420D02*
X0017170D01*
X0017580Y0041330D02*
X0017170D01*
X0017580Y0042230D02*
X0017170D01*
X0013580Y0042140D02*
X0013170D01*
X0013580Y0041960D02*
X0013170D01*
X0011580Y0042140D02*
X0011170D01*
X0011580Y0042050D02*
X0011170D01*
X0011580Y0041960D02*
X0011170D01*
X0011297Y0041297D02*
X0011170D01*
X0011580Y0041870D02*
X0011170D01*
X0011340Y0042186D02*
X0011170D01*
X0011580Y0041780D02*
X0011170D01*
X0011580Y0041690D02*
X0011170D01*
X0013580Y0050330D02*
X0013170D01*
X0013580Y0050240D02*
X0013170D01*
X0013580Y0050150D02*
X0013170D01*
X0013580Y0050060D02*
X0013170D01*
X0013580Y0049970D02*
X0013170D01*
X0013580Y0049880D02*
X0013170D01*
X0018580Y0042320D02*
X0018170D01*
X0018580Y0042140D02*
X0018170D01*
X0018580Y0042050D02*
X0018170D01*
X0018580Y0041960D02*
X0018170D01*
X0018580Y0041870D02*
X0018170D01*
X0019465Y0041150D02*
X0019170D01*
X0013465D02*
X0013170D01*
X0014580Y0042140D02*
X0014170D01*
X0012580Y0042050D02*
X0012170D01*
X0013580Y0041780D02*
X0013170D01*
X0012580Y0041690D02*
X0012170D01*
X0012580Y0041600D02*
X0012170D01*
X0012580Y0041510D02*
X0012170D01*
X0012580Y0041420D02*
X0012170D01*
X0012580Y0041330D02*
X0012170D01*
X0015580Y0050240D02*
X0015170D01*
X0015580Y0050150D02*
X0015170D01*
X0015580Y0050060D02*
X0015170D01*
X0015580Y0049970D02*
X0015170D01*
X0015580Y0049880D02*
X0015170D01*
X0017580Y0050240D02*
X0017174D01*
X0017580Y0050150D02*
X0017174D01*
X0017580Y0050060D02*
X0017174D01*
X0017580Y0049970D02*
X0017174D01*
X0017580Y0049880D02*
X0017174D01*
X0017580Y0049790D02*
X0017174D01*
X0022957Y0040350D02*
Y0040250D01*
X0023580Y0042140D02*
X0023170D01*
X0023580Y0042050D02*
X0023170D01*
X0023580Y0041960D02*
X0023170D01*
X0024580Y0041330D02*
X0024170D01*
X0019580Y0050240D02*
X0019170D01*
X0019580Y0050150D02*
X0019170D01*
X0019580Y0050060D02*
X0019170D01*
X0019580Y0049970D02*
X0019170D01*
X0019580Y0049880D02*
X0019170D01*
X0021580Y0042140D02*
X0021170D01*
X0021580Y0042050D02*
X0021170D01*
X0021580Y0041960D02*
X0021170D01*
X0021580Y0041870D02*
X0021170D01*
X0022580Y0042140D02*
X0022170D01*
X0022580Y0042050D02*
X0022170D01*
X0022580Y0041960D02*
X0022170D01*
X0018580Y0041240D02*
X0018170D01*
X0016580Y0041690D02*
X0016170D01*
X0015580Y0042140D02*
X0015170D01*
X0018580Y0049160D02*
X0018170D01*
X0018580Y0050240D02*
X0018170D01*
X0018580Y0050150D02*
X0018170D01*
X0018580Y0050060D02*
X0018170D01*
X0018580Y0049970D02*
X0018170D01*
X0018580Y0049880D02*
X0018170D01*
X0018580Y0049790D02*
X0018170D01*
X0018580Y0049700D02*
X0018170D01*
X0019580Y0049610D02*
X0019170D01*
X0026500Y0046280D02*
X0026002D01*
X0026500Y0046190D02*
X0026179D01*
X0026500Y0045830D02*
X0026359D01*
X0026500Y0046100D02*
X0026265D01*
X0026500Y0046010D02*
X0026317D01*
X0009727Y0051250D02*
Y0047403D01*
X0026500Y0045380D02*
X0026094D01*
X0026500Y0045740D02*
X0026354D01*
X0026500Y0045650D02*
X0026332D01*
X0026500Y0045560D02*
X0026289D01*
X0026287Y0046538D02*
Y0046067D01*
X0026197Y0046437D02*
Y0046174D01*
X0026107Y0046375D02*
Y0046238D01*
X0026017Y0046338D02*
Y0046276D01*
X0025927Y0046320D02*
Y0046294D01*
X0025837Y0046319D02*
Y0046295D01*
X0025747Y0046334D02*
Y0046280D01*
X0025657Y0046368D02*
Y0046245D01*
X0025567Y0046424D02*
Y0046187D01*
X0025477Y0046517D02*
Y0046089D01*
X0025748Y0046280D02*
X0025002D01*
X0025571Y0046190D02*
X0025179D01*
X0025391Y0045830D02*
X0025359D01*
X0025485Y0046100D02*
X0025265D01*
X0025432Y0046010D02*
X0025317D01*
X0025402Y0045920D02*
X0025347D01*
X0025656Y0045380D02*
X0025094D01*
X0025396Y0045740D02*
X0025354D01*
X0025418Y0045650D02*
X0025332D01*
X0025461Y0045560D02*
X0025289D01*
X0024397Y0046682D02*
Y0045894D01*
X0025297Y0046554D02*
Y0046050D01*
X0025207Y0046445D02*
Y0046165D01*
X0025117Y0046381D02*
Y0046232D01*
X0025027Y0046341D02*
Y0046272D01*
X0024937Y0046321D02*
Y0046293D01*
X0024847Y0046318D02*
Y0046296D01*
X0024757Y0046331D02*
Y0046282D01*
X0024667Y0046363D02*
Y0046250D01*
X0024577Y0046417D02*
Y0046195D01*
X0024487Y0046504D02*
Y0046103D01*
X0025477Y0045535D02*
Y0045057D01*
X0024748Y0046280D02*
X0024002D01*
X0024571Y0046190D02*
X0024179D01*
X0024391Y0045830D02*
X0024359D01*
X0024485Y0046100D02*
X0024265D01*
X0024432Y0046010D02*
X0024317D01*
X0024402Y0045920D02*
X0024347D01*
X0024656Y0045380D02*
X0024094D01*
X0024396Y0045740D02*
X0024354D01*
X0024418Y0045650D02*
X0024332D01*
X0024461Y0045560D02*
X0024289D01*
X0023407Y0046650D02*
Y0045939D01*
X0024307Y0046571D02*
Y0046031D01*
X0024217Y0046455D02*
Y0046155D01*
X0024127Y0046386D02*
Y0046226D01*
X0024037Y0046345D02*
Y0046269D01*
X0023947Y0046323D02*
Y0046291D01*
X0023857Y0046318D02*
Y0046297D01*
X0023767Y0046329D02*
Y0046285D01*
X0023677Y0046358D02*
Y0046255D01*
X0023587Y0046409D02*
Y0046202D01*
X0023497Y0046492D02*
Y0046116D01*
X0024487Y0045521D02*
Y0044870D01*
X0023748Y0046280D02*
X0023002D01*
X0023571Y0046190D02*
X0023179D01*
X0023391Y0045830D02*
X0023359D01*
X0023485Y0046100D02*
X0023265D01*
X0023432Y0046010D02*
X0023317D01*
X0023402Y0045920D02*
X0023347D01*
X0023656Y0045380D02*
X0023094D01*
X0023396Y0045740D02*
X0023354D01*
X0023418Y0045650D02*
X0023332D01*
X0023461Y0045560D02*
X0023289D01*
X0023317Y0046590D02*
Y0046010D01*
X0022417Y0046624D02*
Y0045972D01*
X0023227Y0046465D02*
Y0046145D01*
X0023137Y0046392D02*
Y0046220D01*
X0023047Y0046348D02*
Y0046265D01*
X0022957Y0046324D02*
Y0046290D01*
X0022867Y0046317D02*
Y0046297D01*
X0022777Y0046327D02*
Y0046287D01*
X0022687Y0046354D02*
Y0046259D01*
X0022597Y0046402D02*
Y0046209D01*
X0022507Y0046481D02*
Y0046128D01*
X0022571Y0046190D02*
X0022179D01*
X0023497Y0045508D02*
Y0044882D01*
X0022748Y0046280D02*
X0022002D01*
X0022391Y0045830D02*
X0022359D01*
G01X0023875Y0047317D02*
G03X0024370Y0047812I0000000J0000495D01*
G03X0024015Y0048287I0000495J0000000D01*
G01X0024380Y0046812D02*
G03X0024875Y0046317I0000495J0000000D01*
G03X0025370Y0046812I0000000J0000495D01*
G03X0024875Y0047307I0000495J0000000D01*
G03X0024380Y0046812I0000000J0000495D01*
Y0047812D02*
G03X0024875Y0047317I0000495J0000000D01*
G03X0025370Y0047812I0000000J0000495D01*
G03X0025009Y0048289I0000495J0000000D01*
G01X0025380Y0046812D02*
G03X0025875Y0046317I0000495J0000000D01*
G03X0026370Y0046812I0000000J0000495D01*
G03X0025875Y0047307I0000495J0000000D01*
G03X0025380Y0046812I0000000J0000495D01*
G01X0021380Y0043562D02*
G03X0021604Y0043148I0000495J0000000D01*
G01X0022370Y0043562D02*
G03X0021875Y0044057I0000495J0000000D01*
G03X0021380Y0043562I0000000J0000495D01*
Y0044562D02*
G03X0021875Y0044067I0000495J0000000D01*
G03X0022370Y0044562I0000000J0000495D01*
G03X0021875Y0045057I0000495J0000000D01*
G03X0021380Y0044562I0000000J0000495D01*
G01X0022380Y0043562D02*
G03X0022604Y0043148I0000495J0000000D01*
G01X0023370Y0043562D02*
G03X0022875Y0044057I0000495J0000000D01*
G03X0022380Y0043562I0000000J0000495D01*
Y0044562D02*
G03X0022875Y0044067I0000495J0000000D01*
G03X0023370Y0044562I0000000J0000495D01*
G03X0022875Y0045057I0000495J0000000D01*
G03X0022380Y0044562I0000000J0000495D01*
G01X0023380Y0043562D02*
G03X0023604Y0043148I0000495J0000000D01*
G01X0024370Y0043562D02*
G03X0023875Y0044057I0000495J0000000D01*
G03X0023380Y0043562I0000000J0000495D01*
Y0044562D02*
G03X0023875Y0044067I0000495J0000000D01*
G03X0024370Y0044562I0000000J0000495D01*
G03X0023875Y0045057I0000495J0000000D01*
G03X0023380Y0044562I0000000J0000495D01*
G01X0024380Y0043562D02*
G03X0024604Y0043148I0000495J0000000D01*
G01X0025370Y0043562D02*
G03X0024875Y0044057I0000495J0000000D01*
G03X0024380Y0043562I0000000J0000495D01*
Y0044562D02*
G03X0024875Y0044067I0000495J0000000D01*
G03X0025370Y0044562I0000000J0000495D01*
G03X0024875Y0045057I0000495J0000000D01*
G03X0024380Y0044562I0000000J0000495D01*
G01X0025380Y0043562D02*
G03X0025875Y0043067I0000495J0000000D01*
G03X0026370Y0043562I0000000J0000495D01*
G03X0025875Y0044057I0000495J0000000D01*
G03X0025380Y0043562I0000000J0000495D01*
G01X0024328Y0050812D02*
G03X0024580Y0050387I0000484J0000000D01*
G01X0025297Y0050812D02*
G03X0025020Y0051250I0000485J0000000D01*
G01X0024604D02*
G03X0024327Y0050812I0000208J0000438D01*
G01X0024297D02*
G03X0024020Y0051250I0000485J0000000D01*
G01X0022328Y0050812D02*
G03X0022580Y0050387I0000484J0000000D01*
G01X0023604Y0051250D02*
G03X0023327Y0050812I0000208J0000438D01*
G01X0023297D02*
G03X0023020Y0051250I0000485J0000000D01*
G01X0021328Y0050812D02*
G03X0021580Y0050387I0000484J0000000D01*
G01X0022297Y0050812D02*
G03X0022020Y0051250I0000485J0000000D01*
G01X0020328Y0050812D02*
G03X0020580Y0050387I0000484J0000000D01*
G01X0021604Y0051250D02*
G03X0021327Y0050812I0000208J0000438D01*
G01X0021297D02*
G03X0021020Y0051250I0000485J0000000D01*
G01X0019328Y0050812D02*
G03X0019580Y0050387I0000484J0000000D01*
G01X0020604Y0051250D02*
G03X0020327Y0050812I0000208J0000438D01*
G01X0020297D02*
G03X0020020Y0051250I0000485J0000000D01*
G01X0018328Y0050812D02*
G03X0018580Y0050387I0000484J0000000D01*
G01X0019604Y0051250D02*
G03X0019327Y0050812I0000208J0000438D01*
G01X0019297D02*
G03X0019020Y0051250I0000485J0000000D01*
G01X0017328Y0050812D02*
G03X0017580Y0050387I0000484J0000000D01*
G01X0018297Y0050812D02*
G03X0018020Y0051250I0000485J0000000D01*
G01X0016328Y0050812D02*
G03X0016584Y0050385I0000484J0000000D01*
G01X0017604Y0051250D02*
G03X0017327Y0050812I0000208J0000438D01*
G01X0017297D02*
G03X0017020Y0051250I0000485J0000000D01*
G01X0015328Y0050812D02*
G03X0015580Y0050387I0000484J0000000D01*
G01X0016604Y0051250D02*
G03X0016327Y0050812I0000208J0000438D01*
G01X0016297D02*
G03X0016020Y0051250I0000485J0000000D01*
G01X0014328Y0050812D02*
G03X0014580Y0050387I0000484J0000000D01*
G01X0015604Y0051250D02*
G03X0015327Y0050812I0000208J0000438D01*
G01X0015297D02*
G03X0015020Y0051250I0000485J0000000D01*
G01X0023328Y0050812D02*
G03X0023528Y0050419I0000484J0000000D01*
G01X0014604Y0051250D02*
G03X0014327Y0050812I0000208J0000438D01*
G01X0012328D02*
G03X0012580Y0050387I0000484J0000000D01*
G01X0013604Y0051250D02*
G03X0013327Y0050812I0000208J0000438D01*
G01X0013297D02*
G03X0013020Y0051250I0000485J0000000D01*
G01X0011328Y0050812D02*
G03X0011580Y0050387I0000484J0000000D01*
G01X0012297Y0050812D02*
G03X0012020Y0051250I0000485J0000000D01*
G01X0010328Y0050812D02*
G03X0010567Y0050394I0000484J0000000D01*
G01X0011297Y0050812D02*
G03X0011020Y0051250I0000485J0000000D01*
G01X0024328Y0040812D02*
G03X0024812Y0040328I0000484J0000000D01*
G03X0025296Y0040812I0000000J0000484D01*
G01X0025297D02*
G03X0025170Y0041139I0000485J0000000D01*
G01X0023328Y0040812D02*
G03X0023812Y0040328I0000484J0000000D01*
G03X0024296Y0040812I0000000J0000484D01*
G01X0024297D02*
G03X0024170Y0041139I0000485J0000000D01*
G01X0022328Y0040812D02*
G03X0022812Y0040328I0000484J0000000D01*
G03X0023296Y0040812I0000000J0000484D01*
G01X0023297D02*
G03X0023170Y0041139I0000485J0000000D01*
G01X0021328Y0040812D02*
G03X0021812Y0040328I0000484J0000000D01*
G03X0022296Y0040812I0000000J0000484D01*
G01X0022297D02*
G03X0022170Y0041139I0000485J0000000D01*
G01X0020328Y0040812D02*
G03X0020812Y0040328I0000484J0000000D01*
G03X0021296Y0040812I0000000J0000484D01*
G01X0021297D02*
G03X0021170Y0041139I0000485J0000000D01*
G01X0019328Y0040812D02*
G03X0019812Y0040328I0000484J0000000D01*
G03X0020296Y0040812I0000000J0000484D01*
G01X0020297D02*
G03X0020170Y0041139I0000485J0000000D01*
G01X0018328Y0040812D02*
G03X0018812Y0040328I0000484J0000000D01*
G03X0019296Y0040812I0000000J0000484D01*
G01X0019297D02*
G03X0019170Y0041139I0000485J0000000D01*
G01X0017328Y0040812D02*
G03X0017812Y0040328I0000484J0000000D01*
G03X0018296Y0040812I0000000J0000484D01*
G01X0018297D02*
G03X0018170Y0041139I0000485J0000000D01*
G01X0016328Y0040812D02*
G03X0016812Y0040328I0000484J0000000D01*
G03X0017296Y0040812I0000000J0000484D01*
G01X0017297D02*
G03X0017170Y0041139I0000485J0000000D01*
G01X0015328Y0040812D02*
G03X0015812Y0040328I0000484J0000000D01*
G03X0016296Y0040812I0000000J0000484D01*
G01X0016297D02*
G03X0016170Y0041139I0000485J0000000D01*
G01X0014328Y0040812D02*
G03X0014812Y0040328I0000484J0000000D01*
G03X0015296Y0040812I0000000J0000484D01*
G01X0015297D02*
G03X0015170Y0041139I0000485J0000000D01*
G01X0013328Y0040812D02*
G03X0013812Y0040328I0000484J0000000D01*
G03X0014296Y0040812I0000000J0000484D01*
G01X0012328D02*
G03X0012812Y0040328I0000484J0000000D01*
G03X0013296Y0040812I0000000J0000484D01*
G01X0013297D02*
G03X0013170Y0041139I0000485J0000000D01*
G01X0011328Y0040812D02*
G03X0011812Y0040328I0000484J0000000D01*
G03X0012296Y0040812I0000000J0000484D01*
G01X0012297D02*
G03X0012170Y0041139I0000485J0000000D01*
G01X0011057Y0050394D02*
G03X0011297Y0050812I0000245J0000418D01*
G01X0011340Y0048770D02*
G03X0011057Y0049197I0000465J0000000D01*
G01X0010410Y0048730D02*
G03X0010875Y0048265I0000465J0000000D01*
G03X0011340Y0048730I0000000J0000465D01*
G01X0012170Y0050485D02*
G03X0012297Y0050812I0000358J0000327D01*
G01X0012340Y0048770D02*
G03X0012170Y0049129I0000465J0000000D01*
G01X0011410Y0048730D02*
G03X0011655Y0048321I0000465J0000000D01*
G01X0013170Y0050485D02*
G03X0013297Y0050812I0000358J0000327D01*
G01X0013340Y0048770D02*
G03X0013170Y0049129I0000465J0000000D01*
G01X0012410Y0048730D02*
G03X0012875Y0048265I0000465J0000000D01*
G01X0014170Y0050485D02*
G03X0014297Y0050812I0000358J0000327D01*
G01X0013328D02*
G03X0013580Y0050387I0000484J0000000D01*
G01X0013875Y0048265D02*
G03X0014340Y0048730I0000000J0000465D01*
G01X0015170Y0050485D02*
G03X0015297Y0050812I0000358J0000327D01*
G01X0015340Y0048770D02*
G03X0015170Y0049129I0000465J0000000D01*
G01X0014410Y0048730D02*
G03X0014875Y0048265I0000465J0000000D01*
G03X0015340Y0048730I0000000J0000465D01*
G01X0016170Y0050485D02*
G03X0016297Y0050812I0000358J0000327D01*
G01X0016340Y0048770D02*
G03X0016170Y0049129I0000465J0000000D01*
G01X0017174Y0050489D02*
G03X0017297Y0050812I0000362J0000323D01*
G01X0017344Y0048770D02*
G03X0017174Y0049129I0000465J0000000D01*
G01X0016260Y0048470D02*
G03X0016340Y0048730I0000385J0000260D01*
G01X0016414D02*
G03X0016493Y0048470I0000465J0000000D01*
G01X0018170Y0050485D02*
G03X0018297Y0050812I0000358J0000327D01*
G01X0017264Y0048470D02*
G03X0017344Y0048730I0000385J0000260D01*
G01X0021741Y0048289D02*
G03X0021718Y0048282I0000134J0000477D01*
G01X0019170Y0050485D02*
G03X0019297Y0050812I0000358J0000327D01*
G01X0019340Y0048770D02*
G03X0019170Y0049129I0000465J0000000D01*
G01X0018260Y0048470D02*
G03X0018340Y0048730I0000385J0000260D01*
G01X0018410D02*
G03X0018490Y0048470I0000465J0000000D01*
G01X0020170Y0050485D02*
G03X0020297Y0050812I0000358J0000327D01*
G01X0020340Y0048773D02*
G03X0020170Y0049133I0000465J0000000D01*
G01X0019260Y0048470D02*
G03X0019340Y0048730I0000385J0000260D01*
G01X0019410Y0048734D02*
G03X0019492Y0048470I0000465J0000000D01*
G01X0021170Y0050485D02*
G03X0021297Y0050812I0000358J0000327D01*
G01X0021340Y0048770D02*
G03X0021170Y0049129I0000465J0000000D01*
G01X0020258Y0048470D02*
G03X0020340Y0048734I0000383J0000264D01*
G01X0020410Y0048730D02*
G03X0020490Y0048470I0000465J0000000D01*
G01X0022170Y0050485D02*
G03X0022297Y0050812I0000358J0000327D01*
G01X0022340Y0048773D02*
G03X0022170Y0049133I0000465J0000000D01*
G01X0021375Y0048030D02*
G03X0021434Y0048038I0000000J0000220D01*
G01X0023170Y0050485D02*
G03X0023297Y0050812I0000358J0000327D01*
G01X0023340Y0048770D02*
G03X0023170Y0049129I0000465J0000000D01*
G01X0022410Y0048730D02*
G03X0022735Y0048287I0000465J0000000D01*
G01X0023528Y0050419D02*
G03X0023580Y0050318I0000284J0000081D01*
G01X0024340Y0048770D02*
G03X0024170Y0049129I0000465J0000000D01*
G01X0023410Y0048730D02*
G03X0023735Y0048287I0000465J0000000D01*
G01X0025170Y0050485D02*
G03X0025297Y0050812I0000358J0000327D01*
G01X0025340Y0048773D02*
G03X0025170Y0049133I0000465J0000000D01*
G01X0024410Y0048734D02*
G03X0024741Y0048289I0000465J0000000D01*
G01X0025340Y0042770D02*
G03X0025145Y0043148I0000465J0000000D01*
G01X0024580Y0041238D02*
G03X0024327Y0040812I0000232J0000426D01*
G01X0024410Y0042730D02*
G03X0024580Y0042371I0000465J0000000D01*
G01X0024340Y0042770D02*
G03X0024145Y0043148I0000465J0000000D01*
G01X0023410Y0042730D02*
G03X0023580Y0042371I0000465J0000000D01*
G01X0023340Y0042770D02*
G03X0023145Y0043148I0000465J0000000D01*
G01X0022580Y0041238D02*
G03X0022327Y0040812I0000232J0000426D01*
G01X0022410Y0042730D02*
G03X0022580Y0042371I0000465J0000000D01*
G01X0022340Y0042770D02*
G03X0022145Y0043148I0000465J0000000D01*
G01X0021580Y0041238D02*
G03X0021327Y0040812I0000232J0000426D01*
G01X0021410Y0042730D02*
G03X0021580Y0042371I0000465J0000000D01*
G01X0021340Y0042770D02*
G03X0020875Y0043235I0000465J0000000D01*
G03X0020410Y0042770I0000000J0000465D01*
G01X0020580Y0041238D02*
G03X0020327Y0040812I0000232J0000426D01*
G01X0020410Y0042730D02*
G03X0020580Y0042371I0000465J0000000D01*
G01X0020340Y0042770D02*
G03X0019875Y0043235I0000465J0000000D01*
G03X0019410Y0042770I0000000J0000465D01*
G01X0019580Y0041238D02*
G03X0019327Y0040812I0000232J0000426D01*
G01X0019410Y0042730D02*
G03X0019580Y0042371I0000465J0000000D01*
G01X0019340Y0042770D02*
G03X0018875Y0043235I0000465J0000000D01*
G03X0018410Y0042770I0000000J0000465D01*
G01X0018580Y0041238D02*
G03X0018327Y0040812I0000232J0000426D01*
G01X0018410Y0042730D02*
G03X0018580Y0042371I0000465J0000000D01*
G01X0018340Y0042770D02*
G03X0017875Y0043235I0000465J0000000D01*
G03X0017410Y0042770I0000000J0000465D01*
G01X0017580Y0041238D02*
G03X0017327Y0040812I0000232J0000426D01*
G01X0017340Y0042770D02*
G03X0016875Y0043235I0000465J0000000D01*
G03X0016410Y0042770I0000000J0000465D01*
G01X0016580Y0041238D02*
G03X0016327Y0040812I0000232J0000426D01*
G01X0016410Y0042730D02*
G03X0016580Y0042371I0000465J0000000D01*
G01X0016340Y0042770D02*
G03X0015875Y0043235I0000465J0000000D01*
G03X0015410Y0042770I0000000J0000465D01*
G01X0015580Y0041238D02*
G03X0015327Y0040812I0000232J0000426D01*
G01X0015410Y0042730D02*
G03X0015580Y0042371I0000465J0000000D01*
G01X0015340Y0042770D02*
G03X0014875Y0043235I0000465J0000000D01*
G03X0014410Y0042770I0000000J0000465D01*
G01X0014580Y0041238D02*
G03X0014327Y0040812I0000232J0000426D01*
G01X0014410Y0042730D02*
G03X0014580Y0042371I0000465J0000000D01*
G01X0014340Y0042770D02*
G03X0013875Y0043235I0000465J0000000D01*
G03X0013410Y0042770I0000000J0000465D01*
G01X0013580Y0041238D02*
G03X0013327Y0040812I0000232J0000426D01*
G01X0014297D02*
G03X0014170Y0041139I0000485J0000000D01*
G01X0013340Y0042770D02*
G03X0012875Y0043235I0000465J0000000D01*
G03X0012410Y0042770I0000000J0000465D01*
Y0042730D02*
G03X0012580Y0042371I0000465J0000000D01*
G01X0012340Y0042770D02*
G03X0011875Y0043235I0000465J0000000D01*
G03X0011410Y0042770I0000000J0000465D01*
G01X0011580Y0041238D02*
G03X0011327Y0040812I0000232J0000426D01*
G01X0011410Y0042730D02*
G03X0011580Y0042371I0000465J0000000D01*
G01X0011617Y0045090D02*
G03X0011875Y0044832I0000258J0000000D01*
G01X0012222Y0045657D02*
G03X0012067Y0045593I0000000J0000220D01*
G01X0011875Y0044832D02*
G03X0012126Y0045030I0000000J0000258D01*
G01X0011875Y0043992D02*
G03X0012133Y0044250I0000000J0000258D01*
G01X0011624Y0044190D02*
G03X0011875Y0043992I0000251J0000060D01*
G01X0012133Y0044250D02*
G03X0011935Y0044501I0000258J0000000D01*
G01X0012095Y0048321D02*
G03X0012339Y0048730I0000220J0000409D01*
G01X0012133Y0047215D02*
G03X0012095Y0047350I0000258J0000000D01*
Y0046240D02*
G03X0012126Y0046315I0000220J0000135D01*
G01X0016117Y0044437D02*
G03X0016687Y0043867I0000570J0000000D01*
G03X0017257Y0044437I0000000J0000570D01*
G03X0016687Y0045007I0000570J0000000D01*
G01X0018367Y0044437D02*
G03X0018937Y0043867I0000570J0000000D01*
G03X0019507Y0044437I0000000J0000570D01*
G03X0018937Y0045007I0000570J0000000D01*
G03X0018367Y0044437I0000000J0000570D01*
G01X0009703Y0047250D02*
G03X0010187Y0046766I0000484J0000000D01*
Y0046765D02*
G03X0010672Y0047250I0000000J0000485D01*
G03X0010187Y0047735I0000485J0000000D01*
G03X0009702Y0047250I0000000J0000485D01*
G01X0009703Y0046250D02*
G03X0009967Y0045818I0000484J0000000D01*
G01X0010187Y0046735D02*
G03X0009702Y0046250I0000000J0000485D01*
G01X0009703Y0045250D02*
G03X0010187Y0044766I0000484J0000000D01*
Y0044765D02*
G03X0010672Y0045250I0000000J0000485D01*
G03X0010407Y0045682I0000485J0000000D01*
G01X0014125Y0046957D02*
G03X0014260Y0046995I0000000J0000258D01*
G01X0013990D02*
G03X0014125Y0046957I0000135J0000220D01*
G01X0013867Y0046375D02*
G03X0014125Y0046117I0000258J0000000D01*
G03X0014383Y0046375I0000000J0000258D01*
G03X0014125Y0046633I0000258J0000000D01*
G03X0013867Y0046375I0000000J0000258D01*
G01X0012679Y0047215D02*
G03X0012937Y0046957I0000258J0000000D01*
G03X0013073Y0046995I0000000J0000258D01*
G01X0012679Y0046375D02*
G03X0012937Y0046117I0000258J0000000D01*
G03X0013195Y0046375I0000000J0000258D01*
G01X0013196D02*
G03X0012937Y0046634I0000259J0000000D01*
Y0046633D02*
G03X0012679Y0046375I0000000J0000258D01*
G01X0022145Y0043148D02*
G03X0022369Y0043562I0000270J0000414D01*
G01X0018340Y0048770D02*
G03X0018170Y0049129I0000465J0000000D01*
G01X0014580D02*
G03X0014410Y0048770I0000295J0000359D01*
G01X0014297Y0050812D02*
G03X0014020Y0051250I0000485J0000000D01*
G01X0011580Y0049129D02*
G03X0011410Y0048770I0000295J0000359D01*
G01X0010567Y0049118D02*
G03X0010410Y0048770I0000308J0000348D01*
G01X0023735Y0048287D02*
G03X0023380Y0047812I0000140J0000475D01*
G01X0022735Y0048287D02*
G03X0022380Y0047812I0000140J0000475D01*
G01X0022604Y0043148D02*
G03X0022410Y0042770I0000271J0000378D01*
G01X0012170Y0042371D02*
G03X0012340Y0042730I0000295J0000359D01*
G01X0010407Y0045818D02*
G03X0010619Y0046030I0000220J0000432D01*
G01X0011815Y0046626D02*
G03X0011617Y0046375I0000060J0000251D01*
G01X0011092Y0044812D02*
G03X0011157Y0044657I0000220J0000000D01*
G01X0013073Y0047435D02*
G03X0012937Y0047474I0000136J0000220D01*
G01X0021375Y0048030D02*
G03X0021434Y0048038I0000000J0000220D01*
G01X0015497Y0048460D02*
G03X0015407Y0048405I0000065J0000210D01*
G01X0015410Y0048730D02*
G03X0015497Y0048460I0000465J0000000D01*
G01X0014527Y0046995D02*
G03X0014683Y0047059I0000000J0000220D01*
G01X0010937Y0046030D02*
G03X0011093Y0046094I0000000J0000220D01*
G01X0021434Y0048038D02*
G03X0021379Y0047812I0000441J0000226D01*
G01X0012030Y0046032D02*
G03X0012094Y0046187I0000155J0000155D01*
G01X0016093Y0045593D02*
G03X0015937Y0045658I0000156J0000156D01*
G01X0012222Y0045657D02*
G03X0012067Y0045593I0000000J0000220D01*
G01X0013775Y0048276D02*
G03X0013875Y0048265I0000100J0000454D01*
G01X0013312Y0047905D02*
G03X0013468Y0047969I0000000J0000220D01*
G01X0013410Y0048730D02*
G03X0013441Y0048564I0000465J0000000D01*
G01X0013312Y0047905D02*
G03X0013468Y0047969I0000000J0000220D01*
G01X0012875Y0048265D02*
G03X0013058Y0048303I0000000J0000465D01*
G03X0013032Y0048280I0000129J0000178D01*
G01X0012593Y0046782D02*
G03X0012657Y0046937I0000156J0000155D01*
G01X0012282Y0047530D02*
G03X0012218Y0047375I0000155J0000155D01*
G01X0011157Y0045781D02*
G03X0011092Y0045625I0000155J0000156D01*
Y0044812D02*
G03X0011157Y0044657I0000220J0000000D01*
G01X0011655Y0047350D02*
G03X0011618Y0047241I0000220J0000135D01*
G01X0012030Y0046032D02*
G03X0012094Y0046187I0000155J0000155D01*
G01X0024170Y0050437D02*
G03X0024167Y0050482I0000295J0000000D01*
G01X0020580Y0049129D02*
G03X0020410Y0048770I0000295J0000359D01*
G01X0024167Y0050482D02*
G03X0024297Y0050812I0000355J0000330D01*
G01X0023528Y0050419D02*
G03X0023580Y0050318I0000284J0000081D01*
G01X0012580Y0049129D02*
G03X0012410Y0048770I0000295J0000359D01*
G01X0014340D02*
G03X0014170Y0049129I0000465J0000000D01*
G01X0021410Y0048734D02*
G03X0021426Y0048612I0000465J0000000D01*
G01X0015497Y0048460D02*
G03X0015407Y0048405I0000065J0000210D01*
G01X0013058Y0048303D02*
G03X0013032Y0048280I0000129J0000178D01*
G01X0018170Y0042371D02*
G03X0018340Y0042730I0000295J0000359D01*
G01X0019170Y0042371D02*
G03X0019340Y0042730I0000295J0000359D01*
G01X0023580Y0041238D02*
G03X0023327Y0040812I0000232J0000426D01*
G01X0025390Y0045812D02*
G03X0025875Y0045327I0000485J0000000D01*
Y0045328D02*
G03X0026359Y0045812I0000000J0000484D01*
G01X0026360D02*
G03X0025875Y0046297I0000485J0000000D01*
G03X0025390Y0045812I0000000J0000485D01*
G01X0024390D02*
G03X0024875Y0045327I0000485J0000000D01*
Y0045328D02*
G03X0025359Y0045812I0000000J0000484D01*
G01X0025360D02*
G03X0024875Y0046297I0000485J0000000D01*
G03X0024390Y0045812I0000000J0000485D01*
G01X0023390D02*
G03X0023875Y0045327I0000485J0000000D01*
Y0045328D02*
G03X0024359Y0045812I0000000J0000484D01*
G01X0024360D02*
G03X0023875Y0046297I0000485J0000000D01*
G03X0023390Y0045812I0000000J0000485D01*
G01X0022390D02*
G03X0022875Y0045327I0000485J0000000D01*
Y0045328D02*
G03X0023359Y0045812I0000000J0000484D01*
G01X0023360D02*
G03X0022875Y0046297I0000485J0000000D01*
G03X0022390Y0045812I0000000J0000485D01*
G01X0021390D02*
G03X0021875Y0045327I0000485J0000000D01*
Y0045328D02*
G03X0022359Y0045812I0000000J0000484D01*
G01X0022360D02*
G03X0021875Y0046297I0000485J0000000D01*
G03X0021390Y0045812I0000000J0000485D01*
G01X0021380Y0046812D02*
G03X0021875Y0046317I0000495J0000000D01*
G03X0022370Y0046812I0000000J0000495D01*
G03X0021875Y0047307I0000495J0000000D01*
G03X0021380Y0046812I0000000J0000495D01*
Y0047812D02*
G03X0021875Y0047317I0000495J0000000D01*
G03X0022370Y0047812I0000000J0000495D01*
G03X0022009Y0048289I0000495J0000000D01*
G01X0022380Y0046812D02*
G03X0022875Y0046317I0000495J0000000D01*
G03X0023370Y0046812I0000000J0000495D01*
G03X0022875Y0047307I0000495J0000000D01*
G03X0022380Y0046812I0000000J0000495D01*
Y0047812D02*
G03X0022875Y0047317I0000495J0000000D01*
G03X0023370Y0047812I0000000J0000495D01*
G03X0023015Y0048287I0000495J0000000D01*
G01X0023380Y0046812D02*
G03X0023875Y0046317I0000495J0000000D01*
G03X0024370Y0046812I0000000J0000495D01*
G03X0023875Y0047307I0000495J0000000D01*
G03X0023380Y0046812I0000000J0000495D01*
Y0047812D02*
G03X0023875Y0047317I0000495J0000000D01*
G01X0013410Y0042730D02*
G03X0013580Y0042371I0000465J0000000D01*
G01X0011976Y0046977D02*
G03X0012134Y0047215I0000101J0000238D01*
G01X0013580Y0049129D02*
G03X0013410Y0048770I0000295J0000359D01*
G01X0012604Y0051250D02*
G03X0012327Y0050812I0000208J0000438D01*
G01X0010604Y0051250D02*
G03X0010327Y0050812I0000208J0000438D01*
G01X0014170Y0042371D02*
G03X0014340Y0042730I0000295J0000359D01*
G01X0024604Y0043148D02*
G03X0024410Y0042770I0000271J0000378D01*
G01X0024741Y0048289D02*
G03X0024380Y0047812I0000134J0000477D01*
G01X0025145Y0043148D02*
G03X0025369Y0043562I0000270J0000414D01*
G01X0023604Y0043148D02*
G03X0023410Y0042770I0000271J0000378D01*
G01X0024145Y0043148D02*
G03X0024369Y0043562I0000270J0000414D01*
G01X0023145Y0043148D02*
G03X0023369Y0043562I0000270J0000414D01*
G01X0021260Y0048470D02*
G03X0021340Y0048730I0000385J0000260D01*
G01X0017410Y0042730D02*
G03X0017580Y0042371I0000465J0000000D01*
G01X0016170D02*
G03X0016340Y0042730I0000295J0000359D01*
G01X0015170Y0042371D02*
G03X0015340Y0042730I0000295J0000359D01*
G01X0014125Y0047473D02*
G03X0013990Y0047435I0000000J0000258D01*
G01X0012282Y0047530D02*
G03X0012218Y0047375I0000155J0000155D01*
G01X0024580Y0049133D02*
G03X0024410Y0048773I0000295J0000360D01*
G01X0010619Y0046470D02*
G03X0010187Y0046735I0000432J0000220D01*
G01X0014260Y0047435D02*
G03X0014125Y0047473I0000135J0000220D01*
G01X0013187Y0048345D02*
G03X0013118Y0048334I0000000J0000220D01*
G01X0021604Y0043148D02*
G03X0021410Y0042770I0000271J0000378D01*
G01X0022009Y0048289D02*
G03X0022340Y0048734I0000134J0000445D01*
G01X0023015Y0048287D02*
G03X0023340Y0048730I0000140J0000443D01*
G01X0024015Y0048287D02*
G03X0024340Y0048730I0000140J0000443D01*
G01X0025009Y0048289D02*
G03X0025340Y0048734I0000134J0000445D01*
G01X0023580Y0049129D02*
G03X0023410Y0048770I0000295J0000359D01*
G01X0022604Y0051250D02*
G03X0022327Y0050812I0000208J0000438D01*
G01X0021729Y0048293D02*
G03X0021741Y0048289I0000146J0000441D01*
G01X0021580Y0049133D02*
G03X0021410Y0048773I0000295J0000360D01*
G01X0011815Y0045341D02*
G03X0011617Y0045090I0000060J0000251D01*
G01X0025170Y0042371D02*
G03X0025340Y0042730I0000295J0000359D01*
G01X0011604Y0051250D02*
G03X0011327Y0050812I0000208J0000438D01*
G01X0024170Y0042371D02*
G03X0024340Y0042730I0000295J0000359D01*
G01X0023170Y0042371D02*
G03X0023340Y0042730I0000295J0000359D01*
G01X0022170Y0042371D02*
G03X0022340Y0042730I0000295J0000359D01*
G01X0015580Y0049129D02*
G03X0015410Y0048770I0000295J0000359D01*
G01X0017410Y0048730D02*
G03X0017490Y0048470I0000465J0000000D01*
G01X0014527Y0046995D02*
G03X0014683Y0047059I0000000J0000220D01*
G01X0012937Y0047473D02*
G03X0012817Y0047444I0000000J0000258D01*
G01X0011617Y0046375D02*
G03X0011641Y0046265I0000258J0000000D01*
G01X0016255Y0044809D02*
G03X0016117Y0044437I0000432J0000372D01*
G01X0013118Y0048334D02*
G03X0013340Y0048730I0000243J0000396D01*
G01X0012709Y0047335D02*
G03X0012679Y0047215I0000228J0000120D01*
G01X0022580Y0049129D02*
G03X0022410Y0048770I0000295J0000359D01*
G01X0009967Y0045682D02*
G03X0009702Y0045250I0000220J0000432D01*
G01X0012580Y0041238D02*
G03X0012327Y0040812I0000232J0000426D01*
G01X0013170Y0042371D02*
G03X0013340Y0042730I0000295J0000359D01*
G01X0019580Y0049133D02*
G03X0019410Y0048773I0000295J0000360D01*
G01X0016584Y0049129D02*
G03X0016414Y0048770I0000295J0000359D01*
G01X0020170Y0042371D02*
G03X0020340Y0042730I0000295J0000359D01*
G01X0018580Y0049129D02*
G03X0018410Y0048770I0000295J0000359D01*
G01X0017170Y0042371D02*
G03X0017340Y0042730I0000295J0000359D01*
G01X0021170Y0042371D02*
G03X0021340Y0042730I0000295J0000359D01*
G01X0018604Y0051250D02*
G03X0018327Y0050812I0000208J0000438D01*
G01X0017580Y0049129D02*
G03X0017410Y0048770I0000295J0000359D01*
G54D23*
G01X0021812Y0050812D02*
X0021875Y0050750D01*
Y0048754D01*
X0011812Y0050812D02*
X0011875Y0050750D01*
Y0048750D01*
X0020812Y0050812D02*
X0020875Y0050750D01*
Y0048750D01*
X0024812Y0050812D02*
X0024875Y0050750D01*
Y0048754D01*
X0022812Y0050812D02*
X0022875Y0050750D01*
Y0048750D01*
X0023875D02*
Y0050437D01*
X0023812Y0050500D01*
Y0050812D01*
X0013812D02*
X0013875Y0050750D01*
Y0048750D01*
X0024875Y0042750D02*
Y0040875D01*
X0024812Y0040812D01*
X0023875Y0042750D02*
Y0040875D01*
X0023812Y0040812D01*
X0019812Y0050812D02*
X0019875Y0050750D01*
Y0048754D01*
X0015812Y0050812D02*
X0015875Y0050750D01*
Y0048750D01*
X0018875Y0042750D02*
Y0040875D01*
X0018812Y0040812D01*
X0016875Y0042750D02*
Y0040875D01*
X0016812Y0040812D01*
X0013875Y0042750D02*
Y0040875D01*
X0013812Y0040812D01*
X0012875Y0042750D02*
Y0040875D01*
X0012812Y0040812D01*
X0010875Y0042750D02*
Y0040875D01*
X0010812Y0040812D01*
X0012812Y0050812D02*
X0012875Y0050750D01*
Y0048750D01*
X0017875Y0042750D02*
Y0040875D01*
X0017812Y0040812D01*
X0019875Y0042750D02*
Y0040875D01*
X0019812Y0040812D01*
X0011875Y0042750D02*
Y0040875D01*
X0011812Y0040812D01*
X0014812Y0050812D02*
X0014875Y0050750D01*
Y0048750D01*
X0016812Y0050812D02*
X0016879Y0050746D01*
Y0048750D01*
X0022875Y0042750D02*
Y0040875D01*
X0022812Y0040812D01*
X0018812Y0050812D02*
X0018875Y0050750D01*
Y0048750D01*
X0020875Y0042750D02*
Y0040875D01*
X0020812Y0040812D01*
X0021875Y0042750D02*
Y0040875D01*
X0021812Y0040812D01*
X0015875Y0042750D02*
Y0040875D01*
X0015812Y0040812D01*
X0014875Y0042750D02*
Y0040875D01*
X0014812Y0040812D01*
X0017812Y0050812D02*
X0017875Y0050750D01*
Y0048750D01*
G54D24*
G01X0010812Y0050812D02*
Y0048812D01*
X0010875Y0048750D01*
G54D13*
X0021875Y0045812D03*
X0022875D03*
X0023875D03*
X0024875D03*
X0025875D03*
X0010812Y0050812D03*
X0011812D03*
X0012812D03*
X0013812D03*
X0014812D03*
X0015812D03*
X0016812D03*
X0017812D03*
X0018812D03*
X0019812D03*
X0020812D03*
X0021812D03*
X0022812D03*
X0023812D03*
X0024812D03*
X0011812Y0040812D03*
X0012812D03*
X0013812D03*
X0014812D03*
X0015812D03*
X0016812D03*
X0017812D03*
X0018812D03*
X0019812D03*
X0020812D03*
X0021812D03*
X0022812D03*
X0023812D03*
X0024812D03*
X0010187Y0045250D03*
Y0046250D03*
Y0047250D03*
G54D14*
X0020875Y0045812D03*
X0010812Y0040812D03*
X0010187Y0044250D03*
G54D15*
X0016687Y0044437D03*
X0018937D03*
G54D16*
X0016687Y0046437D03*
X0018937D03*
G54D17*
X0011875Y0042750D03*
X0012875D03*
X0013875D03*
X0014875D03*
X0015875D03*
X0016875D03*
X0017875D03*
X0018875D03*
X0019875D03*
X0020875D03*
X0021875D03*
X0022875D03*
X0023875D03*
X0024875D03*
Y0048754D03*
X0023875Y0048750D03*
X0022875D03*
X0021875Y0048754D03*
X0020875Y0048750D03*
X0019875Y0048754D03*
X0018875Y0048750D03*
X0017875D03*
X0016879D03*
X0015875D03*
X0014875D03*
X0013875D03*
X0012875D03*
X0011875D03*
X0010875D03*
G54D18*
Y0042750D03*
G54D19*
X0025875Y0046812D03*
X0024875Y0047812D03*
Y0046812D03*
X0023875Y0047812D03*
Y0046812D03*
X0022875Y0047812D03*
Y0046812D03*
X0021875Y0047812D03*
Y0046812D03*
X0025875Y0043562D03*
X0024875Y0044562D03*
Y0043562D03*
X0023875Y0044562D03*
Y0043562D03*
X0022875Y0044562D03*
Y0043562D03*
X0021875Y0044562D03*
Y0043562D03*
G54D20*
X0025875Y0047812D03*
Y0044562D03*
G54D22*
X0011875Y0044250D03*
Y0045090D03*
Y0046375D03*
Y0047215D03*
X0014125Y0046375D03*
Y0047215D03*
X0012937Y0046375D03*
Y0047215D03*
M02*
