*
G04 Mass Parameters ***
*
G04 Image ***
*
%INC:\USERS\RAJ\DOCUMENTS\CATAGORIES\SENSORS, MODULES\OPA381 LIGHT SENSOR\EL\LAYOUT\FINAL.SST*%
%ICAS*%
%MOIN*%
%IPPOS*%
%ASAXBY*%
G74*%FSLAN2X34Y34*%
*
G04 Aperture Definitions ***
*
%ADD10R,0.0500X0.0500*%
%ADD11O,0.0600X0.0160*%
%ADD12R,0.0600X0.0160*%
%ADD13O,0.0630X0.0630*%
%ADD14R,0.0630X0.0630*%
%ADD15C,0.0800*%
%ADD16R,0.0800X0.0800*%
%ADD17O,0.0590X0.0630*%
%ADD18R,0.0590X0.0787*%
%ADD19C,0.0650*%
%ADD20R,0.0650X0.0650*%
%ADD21C,0.0100*%
%ADD22C,0.0177*%
%ADD23C,0.0250*%
%ADD24C,0.0150*%
%ADD25C,0.0900*%
%ADD26R,0.0900X0.0900*%
%ADD27C,0.0118*%
%ADD28C,0.0059*%
%ADD29C,0.0079*%
%ADD30C,0.0050*%
%ADD31C,0.0039*%
%ADD32C,0.0080*%
%ADD33C,0.0047*%
%ADD34C,0.0060*%
*
G04 Plot Data ***
*
G54D21*
G01X0016037Y0044887D02*
Y0044837D01*
X0017337D01*
Y0046187D01*
X0016037D01*
Y0044887D01*
X0015787Y0044437D02*
X0017587D01*
Y0046437D01*
X0015787D01*
Y0044437D01*
X0014702Y0043915D02*
X0013532D01*
Y0045085D01*
X0014702D01*
Y0043915D01*
Y0044125D02*
X0013532D01*
X0018037Y0044437D02*
X0019837D01*
Y0046437D01*
X0018037D01*
Y0044437D01*
X0018287Y0044887D02*
Y0044837D01*
X0019587D01*
Y0046187D01*
X0018287D01*
Y0044887D01*
X0010687Y0045500D02*
Y0045000D01*
X0010437Y0044750D01*
X0009937D01*
X0009687Y0045000D01*
Y0045500D01*
X0009937Y0045750D01*
X0010437D01*
X0010687Y0045500D01*
Y0044500D02*
Y0044000D01*
X0010437Y0043750D01*
X0009937D01*
X0009687Y0044000D01*
Y0044500D01*
X0009937Y0044750D01*
X0010437D01*
X0010687Y0044500D01*
Y0047500D02*
Y0047000D01*
X0010437Y0046750D01*
X0009937D01*
X0009687Y0047000D01*
Y0047500D01*
X0009937Y0047750D01*
X0010437D01*
X0010687Y0047500D01*
Y0046500D02*
Y0046000D01*
X0010437Y0045750D01*
X0009937D01*
X0009687Y0046000D01*
Y0046500D01*
X0009937Y0046750D01*
X0010437D01*
X0010687Y0046500D01*
X0020062Y0050312D02*
X0019562D01*
X0019312Y0050562D01*
Y0051062D01*
X0019562Y0051312D01*
X0020062D01*
X0020312Y0051062D01*
Y0050562D01*
X0020062Y0050312D01*
X0021062D02*
X0020562D01*
X0020312Y0050562D01*
Y0051062D01*
X0020562Y0051312D01*
X0021062D01*
X0021312Y0051062D01*
Y0050562D01*
X0021062Y0050312D01*
X0023062D02*
X0022562D01*
X0022312Y0050562D01*
Y0051062D01*
X0022562Y0051312D01*
X0023062D01*
X0023312Y0051062D01*
Y0050562D01*
X0023062Y0050312D01*
X0024062D02*
X0023562D01*
X0023312Y0050562D01*
Y0051062D01*
X0023562Y0051312D01*
X0024062D01*
X0024312Y0051062D01*
Y0050562D01*
X0024062Y0050312D01*
X0022062D02*
X0022312Y0050562D01*
Y0051062D01*
X0022062Y0051312D01*
X0021562D01*
X0021312Y0051062D01*
Y0050562D01*
X0021562Y0050312D01*
X0022062D01*
X0025062D02*
X0025312Y0050562D01*
Y0051062D01*
X0025062Y0051312D01*
X0024562D01*
X0024312Y0051062D01*
Y0050562D01*
X0024562Y0050312D01*
X0025062D01*
X0018062D02*
X0017562D01*
X0017312Y0050562D01*
Y0051062D01*
X0017562Y0051312D01*
X0018062D01*
X0018312Y0051062D01*
Y0050562D01*
X0018062Y0050312D01*
X0011062D02*
X0010562D01*
X0010312Y0050562D01*
Y0051062D01*
X0010562Y0051312D01*
X0011062D01*
X0011312Y0051062D01*
Y0050562D01*
X0011062Y0050312D01*
X0012062D02*
X0011562D01*
X0011312Y0050562D01*
Y0051062D01*
X0011562Y0051312D01*
X0012062D01*
X0012312Y0051062D01*
Y0050562D01*
X0012062Y0050312D01*
X0019062D02*
X0018562D01*
X0018312Y0050562D01*
Y0051062D01*
X0018562Y0051312D01*
X0019062D01*
X0019312Y0051062D01*
Y0050562D01*
X0019062Y0050312D01*
X0014062D02*
X0013562D01*
X0013312Y0050562D01*
Y0051062D01*
X0013562Y0051312D01*
X0014062D01*
X0014312Y0051062D01*
Y0050562D01*
X0014062Y0050312D01*
X0015062D02*
X0014562D01*
X0014312Y0050562D01*
Y0051062D01*
X0014562Y0051312D01*
X0015062D01*
X0015312Y0051062D01*
Y0050562D01*
X0015062Y0050312D01*
X0013062D02*
X0013312Y0050562D01*
Y0051062D01*
X0013062Y0051312D01*
X0012562D01*
X0012312Y0051062D01*
Y0050562D01*
X0012562Y0050312D01*
X0013062D01*
X0016062D02*
X0015562D01*
X0015312Y0050562D01*
Y0051062D01*
X0015562Y0051312D01*
X0016062D01*
X0016312Y0051062D01*
Y0050562D01*
X0016062Y0050312D01*
X0017062D02*
X0016562D01*
X0016312Y0050562D01*
Y0051062D01*
X0016562Y0051312D01*
X0017062D01*
X0017312Y0051062D01*
Y0050562D01*
X0017062Y0050312D01*
X0021062Y0040312D02*
X0020562D01*
X0020312Y0040562D01*
Y0041062D01*
X0020562Y0041312D01*
X0021062D01*
X0021312Y0041062D01*
Y0040562D01*
X0021062Y0040312D01*
X0022062D02*
X0021562D01*
X0021312Y0040562D01*
Y0041062D01*
X0021562Y0041312D01*
X0022062D01*
X0022312Y0041062D01*
Y0040562D01*
X0022062Y0040312D01*
X0024062D02*
X0023562D01*
X0023312Y0040562D01*
Y0041062D01*
X0023562Y0041312D01*
X0024062D01*
X0024312Y0041062D01*
Y0040562D01*
X0024062Y0040312D01*
X0025062D02*
X0024562D01*
X0024312Y0040562D01*
Y0041062D01*
X0024562Y0041312D01*
X0025062D01*
X0025312Y0041062D01*
Y0040562D01*
X0025062Y0040312D01*
X0023062D02*
X0023312Y0040562D01*
Y0041062D01*
X0023062Y0041312D01*
X0022562D01*
X0022312Y0041062D01*
Y0040562D01*
X0022562Y0040312D01*
X0023062D01*
X0019062D02*
X0018562D01*
X0018312Y0040562D01*
Y0041062D01*
X0018562Y0041312D01*
X0019062D01*
X0019312Y0041062D01*
Y0040562D01*
X0019062Y0040312D01*
X0020062D02*
X0019562D01*
X0019312Y0040562D01*
Y0041062D01*
X0019562Y0041312D01*
X0020062D01*
X0020312Y0041062D01*
Y0040562D01*
X0020062Y0040312D01*
X0012062D02*
X0011562D01*
X0011312Y0040562D01*
Y0041062D01*
X0011562Y0041312D01*
X0012062D01*
X0012312Y0041062D01*
Y0040562D01*
X0012062Y0040312D01*
X0013062D02*
X0012562D01*
X0012312Y0040562D01*
Y0041062D01*
X0012562Y0041312D01*
X0013062D01*
X0013312Y0041062D01*
Y0040562D01*
X0013062Y0040312D01*
X0011062D02*
X0011312Y0040562D01*
Y0041062D01*
X0011062Y0041312D01*
X0010562D01*
X0010312Y0041062D01*
Y0040562D01*
X0010562Y0040312D01*
X0011062D01*
X0015062D02*
X0014562D01*
X0014312Y0040562D01*
Y0041062D01*
X0014562Y0041312D01*
X0015062D01*
X0015312Y0041062D01*
Y0040562D01*
X0015062Y0040312D01*
X0016062D02*
X0015562D01*
X0015312Y0040562D01*
Y0041062D01*
X0015562Y0041312D01*
X0016062D01*
X0016312Y0041062D01*
Y0040562D01*
X0016062Y0040312D01*
X0014062D02*
X0014312Y0040562D01*
Y0041062D01*
X0014062Y0041312D01*
X0013562D01*
X0013312Y0041062D01*
Y0040562D01*
X0013562Y0040312D01*
X0014062D01*
X0017062D02*
X0016562D01*
X0016312Y0040562D01*
Y0041062D01*
X0016562Y0041312D01*
X0017062D01*
X0017312Y0041062D01*
Y0040562D01*
X0017062Y0040312D01*
X0018062D02*
X0017562D01*
X0017312Y0040562D01*
Y0041062D01*
X0017562Y0041312D01*
X0018062D01*
X0018312Y0041062D01*
Y0040562D01*
X0018062Y0040312D01*
G54D27*
G01X0009387Y0045513D02*
X0009505Y0045631D01*
Y0046151D01*
X0009383Y0046273D01*
X0012693Y0049250D02*
X0026320Y0049245D01*
X0009363D01*
Y0042262D01*
X0026281Y0042258D01*
X0026328D01*
Y0049250D01*
X0012693D01*
G54D28*
G01X0011253Y0042266D02*
Y0043242D01*
X0010481D01*
Y0042262D01*
G54D29*
G01X0012217Y0043908D02*
Y0045439D01*
X0011529D01*
Y0043904D01*
X0012213D01*
X0012217Y0043908D01*
Y0046033D02*
Y0047564D01*
X0011529D01*
Y0046029D01*
X0012213D01*
X0012217Y0046033D01*
X0014467D02*
Y0047564D01*
X0013779D01*
Y0046029D01*
X0014463D01*
X0014467Y0046033D01*
X0013280D02*
Y0047564D01*
X0012591D01*
Y0046029D01*
X0013276D01*
X0013280Y0046033D01*
G54D30*
G01X0010367Y0042926D02*
X0010133Y0042809D01*
Y0042926D02*
X0010367Y0042809D01*
Y0042593D02*
X0010133D01*
Y0042670D02*
Y0042515D01*
X0011559Y0042922D02*
X0011326Y0042805D01*
Y0042922D02*
X0011559Y0042805D01*
X0011442Y0042608D02*
X0011559Y0042666D01*
X0011442Y0042511D02*
Y0042628D01*
X0011404Y0042666D01*
X0011365D01*
X0011326Y0042628D01*
Y0042511D01*
X0011559D01*
X0012543Y0043080D02*
X0012310D01*
Y0043157D02*
Y0043002D01*
X0012349Y0042882D02*
X0012310Y0042863D01*
Y0042746D01*
X0012349Y0042727D01*
X0012388D01*
X0012427Y0042746D01*
Y0042863D01*
X0012466Y0042882D01*
X0012505D01*
X0012543Y0042863D01*
Y0042746D01*
X0012505Y0042727D01*
X0012427Y0042549D02*
X0012543Y0042607D01*
X0012427Y0042452D02*
Y0042569D01*
X0012388Y0042607D01*
X0012349D01*
X0012310Y0042569D01*
Y0042452D01*
X0012543D01*
X0014524Y0042949D02*
Y0042794D01*
X0014368Y0042949D01*
X0014329D01*
X0014290Y0042930D01*
Y0042813D01*
X0014329Y0042794D01*
X0014524Y0042538D02*
X0014290D01*
X0014524Y0042519D02*
Y0042636D01*
X0014446Y0042674D01*
X0014368D01*
X0014290Y0042636D01*
Y0042519D01*
X0015314Y0043122D02*
X0015547Y0043006D01*
X0015508Y0042711D02*
X0015547Y0042750D01*
Y0042828D01*
X0015508Y0042867D01*
X0015469D01*
X0015392Y0042789D01*
X0015314Y0042867D01*
Y0042711D01*
X0015547Y0042456D02*
X0015314D01*
X0015547Y0042436D02*
Y0042553D01*
X0015469Y0042592D01*
X0015392D01*
X0015314Y0042553D01*
Y0042436D01*
X0016450Y0042949D02*
Y0042794D01*
X0016294Y0042872D01*
Y0042911D01*
X0016528D01*
Y0042538D02*
X0016294D01*
X0016528Y0042519D02*
Y0042636D01*
X0016450Y0042674D01*
X0016372D01*
X0016294Y0042636D01*
Y0042519D01*
X0017314Y0043118D02*
X0017547Y0043002D01*
X0017508Y0042707D02*
X0017547Y0042727D01*
Y0042843D01*
X0017508Y0042863D01*
X0017431D01*
X0017392Y0042824D01*
Y0042707D01*
X0017314D01*
Y0042863D01*
X0017547Y0042452D02*
X0017314D01*
X0017547Y0042432D02*
Y0042549D01*
X0017469Y0042588D01*
X0017392D01*
X0017314Y0042549D01*
Y0042432D01*
X0018294Y0043130D02*
X0018527Y0043013D01*
X0018411Y0042738D02*
Y0042855D01*
X0018449Y0042875D01*
X0018488D01*
X0018527Y0042855D01*
Y0042738D01*
X0018488Y0042719D01*
X0018449D01*
X0018294Y0042797D01*
X0018527Y0042463D02*
X0018294D01*
X0018527Y0042444D02*
Y0042561D01*
X0018449Y0042600D01*
X0018372D01*
X0018294Y0042561D01*
Y0042444D01*
X0019527Y0042825D02*
X0019294Y0042942D01*
Y0042786D01*
X0019527Y0042530D02*
X0019294D01*
X0019527Y0042511D02*
Y0042628D01*
X0019450Y0042667D01*
X0019372D01*
X0019294Y0042628D01*
Y0042511D01*
X0020423Y0042891D02*
X0020384Y0042910D01*
X0020345D01*
X0020306Y0042891D01*
Y0042774D01*
X0020345Y0042755D01*
X0020384D01*
X0020423Y0042774D01*
Y0042891D01*
X0020461Y0042910D01*
X0020500D01*
X0020539Y0042891D01*
Y0042774D01*
X0020500Y0042755D01*
X0020461D01*
X0020423Y0042774D01*
X0020539Y0042499D02*
X0020306D01*
X0020539Y0042480D02*
Y0042596D01*
X0020461Y0042635D01*
X0020384D01*
X0020306Y0042596D01*
Y0042480D01*
X0021306Y0042926D02*
X0021539Y0042809D01*
X0021422Y0042651D02*
Y0042534D01*
X0021384Y0042515D01*
X0021345D01*
X0021306Y0042534D01*
Y0042651D01*
X0021345Y0042670D01*
X0021384D01*
X0021539Y0042593D01*
X0022306Y0043016D02*
X0022539Y0042900D01*
Y0042663D02*
X0022500Y0042625D01*
X0022461Y0042605D01*
X0022384D01*
X0022345Y0042625D01*
X0022306Y0042663D01*
Y0042702D01*
X0022345Y0042741D01*
X0022384Y0042761D01*
X0022461D01*
X0022500Y0042741D01*
X0022539Y0042702D01*
Y0042663D01*
Y0042486D02*
Y0042408D01*
Y0042447D02*
X0022306D01*
X0022345Y0042408D01*
X0023274Y0042978D02*
X0023508Y0042861D01*
Y0042722D02*
Y0042644D01*
Y0042683D02*
X0023274D01*
X0023313Y0042644D01*
X0023508Y0042486D02*
Y0042408D01*
Y0042447D02*
X0023274D01*
X0023313Y0042408D01*
X0024504Y0043071D02*
Y0042916D01*
X0024348Y0043071D01*
X0024309D01*
X0024270Y0043052D01*
Y0042935D01*
X0024309Y0042916D01*
X0024504Y0042796D02*
Y0042719D01*
Y0042757D02*
X0024270D01*
X0024309Y0042719D01*
X0024504Y0042424D02*
X0024270D01*
X0024504Y0042405D02*
Y0042521D01*
X0024426Y0042560D01*
X0024348D01*
X0024270Y0042521D01*
Y0042405D01*
X0013543Y0043013D02*
X0013310D01*
X0013543Y0042994D02*
Y0043111D01*
X0013466Y0043150D01*
X0013388D01*
X0013310Y0043111D01*
Y0042994D01*
Y0042875D02*
X0013543D01*
X0013505Y0042836D01*
X0013349Y0042758D01*
X0013310Y0042719D01*
X0013543D01*
X0013427Y0042522D02*
Y0042600D01*
X0013505D01*
X0013543Y0042580D01*
Y0042463D01*
X0013505Y0042444D01*
X0013349D01*
X0013310Y0042463D01*
Y0042580D01*
X0013349Y0042600D01*
X0010354Y0048905D02*
X0010587D01*
X0010548Y0048867D01*
X0010392Y0048789D01*
X0010354Y0048750D01*
X0010587D01*
X0010354Y0048630D02*
X0010431D01*
X0010587Y0048553D01*
X0010431Y0048475D01*
X0010354D01*
X0011532Y0048824D02*
X0011298D01*
X0011532Y0048805D02*
Y0048921D01*
X0011454Y0048960D01*
X0011376D01*
X0011298Y0048921D01*
Y0048805D01*
X0011415Y0048607D02*
Y0048685D01*
X0011493D01*
X0011532Y0048666D01*
Y0048549D01*
X0011493Y0048530D01*
X0011337D01*
X0011298Y0048549D01*
Y0048666D01*
X0011337Y0048685D01*
X0012380Y0048984D02*
X0012341Y0048965D01*
Y0048848D01*
X0012380Y0048829D01*
X0012419D01*
X0012458Y0048848D01*
Y0048965D01*
X0012497Y0048984D01*
X0012536D01*
X0012575Y0048965D01*
Y0048848D01*
X0012536Y0048829D01*
X0012458Y0048651D02*
X0012575Y0048709D01*
X0012458Y0048554D02*
Y0048670D01*
X0012419Y0048709D01*
X0012380D01*
X0012341Y0048670D01*
Y0048554D01*
X0012575D01*
X0013302Y0049024D02*
X0013380D01*
X0013535Y0048946D01*
X0013380Y0048868D01*
X0013302D01*
X0013497Y0048593D02*
X0013535Y0048612D01*
Y0048729D01*
X0013497Y0048749D01*
X0013419D01*
X0013380Y0048710D01*
Y0048593D01*
X0013302D01*
Y0048749D01*
X0014535Y0048938D02*
X0014302Y0049055D01*
Y0048900D01*
X0014458Y0048780D02*
Y0048625D01*
X0014535Y0048780D02*
X0014419D01*
X0014302Y0048722D01*
Y0048683D01*
X0014419Y0048625D01*
X0014535D01*
X0012078Y0044565D02*
X0011945D01*
X0012078Y0044699D01*
Y0044732D01*
X0012062Y0044765D01*
X0011962D01*
X0011945Y0044732D01*
X0011828Y0044599D02*
X0011812Y0044565D01*
X0011712D01*
X0011695Y0044599D01*
Y0044732D01*
X0011712Y0044765D01*
X0011812D01*
X0011828Y0044732D01*
X0011945Y0046724D02*
X0011978Y0046690D01*
X0012045D01*
X0012078Y0046724D01*
Y0046757D01*
X0012012Y0046824D01*
X0012078Y0046890D01*
X0011945D01*
X0011828Y0046724D02*
X0011812Y0046690D01*
X0011712D01*
X0011695Y0046724D01*
Y0046857D01*
X0011712Y0046890D01*
X0011812D01*
X0011828Y0046857D01*
X0014295Y0046690D02*
X0014228D01*
X0014262D02*
Y0046890D01*
X0014228Y0046857D01*
X0014078Y0046724D02*
X0014062Y0046690D01*
X0013962D01*
X0013945Y0046724D01*
Y0046857D01*
X0013962Y0046890D01*
X0014062D01*
X0014078Y0046857D01*
X0013108Y0046690D02*
X0013041D01*
X0013074D02*
Y0046890D01*
X0013041Y0046857D01*
X0012841Y0046790D02*
X0012891Y0046690D01*
X0012758Y0046790D02*
X0012858D01*
X0012891Y0046824D01*
Y0046857D01*
X0012858Y0046890D01*
X0012758D01*
Y0046690D01*
X0015411Y0048876D02*
Y0048992D01*
X0015450Y0049012D01*
X0015489D01*
X0015528Y0048992D01*
Y0048876D01*
X0015489Y0048856D01*
X0015450D01*
X0015294Y0048934D01*
X0015450Y0048737D02*
Y0048581D01*
X0015528Y0048737D02*
X0015411D01*
X0015294Y0048678D01*
Y0048640D01*
X0015411Y0048581D01*
X0015528D01*
X0016508Y0048856D02*
X0016547Y0048875D01*
Y0048992D01*
X0016508Y0049011D01*
X0016430D01*
X0016392Y0048973D01*
Y0048856D01*
X0016314D01*
Y0049011D01*
X0016469Y0048736D02*
Y0048581D01*
X0016547Y0048736D02*
X0016430D01*
X0016314Y0048678D01*
Y0048639D01*
X0016430Y0048581D01*
X0016547D01*
X0017469Y0049031D02*
Y0048876D01*
X0017314Y0048953D01*
Y0048992D01*
X0017547D01*
X0017469Y0048756D02*
Y0048601D01*
X0017547Y0048756D02*
X0017430D01*
X0017314Y0048698D01*
Y0048659D01*
X0017430Y0048601D01*
X0017547D01*
X0018504Y0048836D02*
X0018543Y0048875D01*
Y0048953D01*
X0018504Y0048992D01*
X0018465D01*
X0018388Y0048914D01*
X0018310Y0048992D01*
Y0048836D01*
X0018465Y0048717D02*
Y0048561D01*
X0018543Y0048717D02*
X0018426D01*
X0018310Y0048659D01*
Y0048620D01*
X0018426Y0048561D01*
X0018543D01*
X0019520Y0048988D02*
Y0048833D01*
X0019364Y0048988D01*
X0019325D01*
X0019286Y0048969D01*
Y0048852D01*
X0019325Y0048833D01*
X0019442Y0048713D02*
Y0048558D01*
X0019520Y0048713D02*
X0019403D01*
X0019286Y0048655D01*
Y0048616D01*
X0019403Y0048558D01*
X0019520D01*
X0020508Y0048973D02*
Y0048895D01*
Y0048934D02*
X0020274D01*
X0020313Y0048895D01*
X0020430Y0048737D02*
Y0048581D01*
X0020508Y0048737D02*
X0020391D01*
X0020274Y0048678D01*
Y0048640D01*
X0020391Y0048581D01*
X0020508D01*
X0021543Y0048938D02*
X0021504Y0048899D01*
X0021465Y0048880D01*
X0021387D01*
X0021348Y0048899D01*
X0021310Y0048938D01*
Y0048977D01*
X0021348Y0049016D01*
X0021387Y0049035D01*
X0021465D01*
X0021504Y0049016D01*
X0021543Y0048977D01*
Y0048938D01*
X0021465Y0048760D02*
Y0048605D01*
X0021543Y0048760D02*
X0021426D01*
X0021310Y0048702D01*
Y0048663D01*
X0021426Y0048605D01*
X0021543D01*
X0022430Y0049118D02*
Y0049001D01*
X0022547D02*
X0022314D01*
Y0049157D01*
X0022430Y0048823D02*
X0022547Y0048882D01*
X0022430Y0048726D02*
Y0048843D01*
X0022391Y0048882D01*
X0022352D01*
X0022314Y0048843D01*
Y0048726D01*
X0022547D01*
X0022469Y0048607D02*
Y0048451D01*
X0022547Y0048607D02*
X0022430D01*
X0022314Y0048548D01*
Y0048510D01*
X0022430Y0048451D01*
X0022547D01*
X0023321Y0048968D02*
X0023399D01*
X0023555Y0048890D01*
X0023399Y0048813D01*
X0023321D01*
X0023516Y0048538D02*
X0023555Y0048577D01*
Y0048654D01*
X0023516Y0048693D01*
X0023477D01*
X0023399Y0048615D01*
X0023321Y0048693D01*
Y0048538D01*
X0024480Y0048962D02*
X0024519Y0049001D01*
Y0049079D01*
X0024480Y0049118D01*
X0024441D01*
X0024364Y0049040D01*
X0024286Y0049118D01*
Y0048962D01*
X0024519Y0048843D02*
Y0048765D01*
Y0048804D02*
X0024286D01*
X0024325Y0048765D01*
X0024519Y0048471D02*
X0024286D01*
X0024519Y0048451D02*
Y0048568D01*
X0024441Y0048607D01*
X0024364D01*
X0024286Y0048568D01*
Y0048451D01*
X0018783Y0050031D02*
X0018744Y0050070D01*
X0018667D01*
X0018628Y0050031D01*
Y0049992D01*
X0018706Y0049914D01*
X0018628Y0049836D01*
X0018783D01*
X0018903Y0049992D02*
X0019058D01*
X0018903Y0050070D02*
Y0049953D01*
X0018961Y0049836D01*
X0019000D01*
X0019058Y0049953D01*
Y0050070D01*
X0017632Y0050031D02*
X0017787D01*
X0017710Y0049876D01*
X0017671D01*
Y0050109D01*
X0017907Y0050031D02*
X0018062D01*
X0017907Y0050109D02*
Y0049992D01*
X0017965Y0049876D01*
X0018004D01*
X0018062Y0049992D01*
Y0050109D01*
X0016850Y0050050D02*
X0016830Y0050089D01*
X0016714D01*
X0016694Y0050050D01*
Y0049973D01*
X0016733Y0049934D01*
X0016850D01*
Y0049856D01*
X0016694D01*
X0016969Y0050011D02*
X0017125D01*
X0016969Y0050089D02*
Y0049973D01*
X0017028Y0049856D01*
X0017067D01*
X0017125Y0049973D01*
Y0050089D01*
X0015811Y0049973D02*
X0015694D01*
X0015675Y0050012D01*
Y0050051D01*
X0015694Y0050090D01*
X0015811D01*
X0015831Y0050051D01*
Y0050012D01*
X0015753Y0049856D01*
X0015950Y0050012D02*
X0016106D01*
X0015950Y0050090D02*
Y0049973D01*
X0016008Y0049856D01*
X0016047D01*
X0016106Y0049973D01*
Y0050090D01*
X0014737Y0050133D02*
X0014620Y0049900D01*
X0014776D01*
X0014895Y0050055D02*
X0015051D01*
X0014895Y0050133D02*
Y0050016D01*
X0014953Y0049900D01*
X0014992D01*
X0015051Y0050016D01*
Y0050133D01*
X0013620Y0049931D02*
Y0050008D01*
X0013698Y0050164D01*
X0013776Y0050008D01*
Y0049931D01*
X0014051Y0050125D02*
X0014031Y0050164D01*
X0013915D01*
X0013895Y0050125D01*
Y0050047D01*
X0013934Y0050008D01*
X0014051D01*
Y0049931D01*
X0013895D01*
X0012659Y0049930D02*
X0012679Y0049891D01*
X0012796D01*
X0012815Y0049930D01*
Y0049969D01*
X0012796Y0050008D01*
X0012679D01*
X0012659Y0050047D01*
Y0050086D01*
X0012679Y0050124D01*
X0012796D01*
X0012815Y0050086D01*
X0012993Y0050008D02*
X0012934Y0050124D01*
X0013090Y0050008D02*
X0012973D01*
X0012934Y0049969D01*
Y0049930D01*
X0012973Y0049891D01*
X0013090D01*
Y0050124D01*
X0011752Y0050101D02*
Y0049867D01*
X0011772Y0050101D02*
X0011655D01*
X0011616Y0050023D01*
Y0049945D01*
X0011655Y0049867D01*
X0011772D01*
X0011969Y0049984D02*
X0011891D01*
Y0050062D01*
X0011911Y0050101D01*
X0012027D01*
X0012047Y0050062D01*
Y0049906D01*
X0012027Y0049867D01*
X0011911D01*
X0011891Y0049906D01*
X0024711Y0050046D02*
X0024672Y0050085D01*
X0024594D01*
X0024555Y0050046D01*
Y0050007D01*
X0024633Y0049929D01*
X0024555Y0049851D01*
X0024711D01*
X0024830Y0050085D02*
X0024908D01*
X0024869D02*
Y0049851D01*
X0024908Y0049890D01*
X0025203Y0050085D02*
Y0049851D01*
X0025222Y0050085D02*
X0025105D01*
X0025066Y0050007D01*
Y0049929D01*
X0025105Y0049851D01*
X0025222D01*
X0023702Y0049875D02*
Y0049953D01*
X0023780Y0050109D01*
X0023858Y0049953D01*
Y0049875D01*
X0024133Y0050070D02*
X0024094Y0050109D01*
X0024016D01*
X0023977Y0050070D01*
Y0050031D01*
X0024055Y0049953D01*
X0023977Y0049875D01*
X0024133D01*
X0022583Y0050030D02*
X0022700D01*
Y0050147D02*
Y0049914D01*
X0022544D01*
X0022877Y0050030D02*
X0022819Y0050147D01*
X0022975Y0050030D02*
X0022858D01*
X0022819Y0049992D01*
Y0049953D01*
X0022858Y0049914D01*
X0022975D01*
Y0050147D01*
X0023094Y0050069D02*
X0023250D01*
X0023094Y0050147D02*
Y0050030D01*
X0023152Y0049914D01*
X0023191D01*
X0023250Y0050030D01*
Y0050147D01*
X0021725Y0050113D02*
X0021764Y0050074D01*
X0021783Y0050035D01*
Y0049958D01*
X0021764Y0049919D01*
X0021725Y0049880D01*
X0021686D01*
X0021647Y0049919D01*
X0021628Y0049958D01*
Y0050035D01*
X0021647Y0050074D01*
X0021686Y0050113D01*
X0021725D01*
X0021903Y0050035D02*
X0022058D01*
X0021903Y0050113D02*
Y0049996D01*
X0021961Y0049880D01*
X0022000D01*
X0022058Y0049996D01*
Y0050113D01*
X0020694Y0050090D02*
X0020772D01*
X0020733D02*
Y0049856D01*
X0020772Y0049895D01*
X0020930Y0050012D02*
X0021086D01*
X0020930Y0050090D02*
Y0049973D01*
X0020988Y0049856D01*
X0021027D01*
X0021086Y0049973D01*
Y0050090D01*
X0019667Y0050066D02*
X0019822D01*
X0019667Y0049910D01*
Y0049871D01*
X0019686Y0049833D01*
X0019803D01*
X0019822Y0049871D01*
X0019942Y0049988D02*
X0020097D01*
X0019942Y0050066D02*
Y0049949D01*
X0020000Y0049833D01*
X0020039D01*
X0020097Y0049949D01*
Y0050066D01*
X0010672Y0049875D02*
Y0050108D01*
X0010711Y0050069D01*
X0010788Y0049914D01*
X0010827Y0049875D01*
Y0050108D01*
X0010947Y0049875D02*
Y0049953D01*
X0011024Y0050108D01*
X0011102Y0049953D01*
Y0049875D01*
X0019958Y0041526D02*
X0020075Y0041760D01*
X0019919D01*
X0019663Y0041526D02*
Y0041760D01*
X0019644Y0041526D02*
X0019761D01*
X0019800Y0041604D01*
Y0041682D01*
X0019761Y0041760D01*
X0019644D01*
X0019205Y0041755D02*
X0019088Y0041522D01*
X0018813Y0041638D02*
X0018930D01*
X0018949Y0041600D01*
Y0041561D01*
X0018930Y0041522D01*
X0018813D01*
X0018794Y0041561D01*
Y0041600D01*
X0018872Y0041755D01*
X0018538Y0041522D02*
Y0041755D01*
X0018519Y0041522D02*
X0018636D01*
X0018674Y0041600D01*
Y0041677D01*
X0018636Y0041755D01*
X0018519D01*
X0018225Y0041743D02*
X0018108Y0041510D01*
X0017814Y0041549D02*
X0017833Y0041510D01*
X0017950D01*
X0017969Y0041549D01*
Y0041627D01*
X0017931Y0041666D01*
X0017814D01*
Y0041743D01*
X0017969D01*
X0017558Y0041510D02*
Y0041743D01*
X0017539Y0041510D02*
X0017656D01*
X0017694Y0041588D01*
Y0041666D01*
X0017656Y0041743D01*
X0017539D01*
X0017075Y0041549D02*
X0016919D01*
X0016997Y0041705D01*
X0017036D01*
Y0041472D01*
X0016664D02*
Y0041705D01*
X0016644Y0041472D02*
X0016761D01*
X0016800Y0041549D01*
Y0041627D01*
X0016761Y0041705D01*
X0016644D01*
X0016287Y0041747D02*
X0016171Y0041514D01*
X0015876Y0041553D02*
X0015915Y0041514D01*
X0015993D01*
X0016032Y0041553D01*
Y0041592D01*
X0015954Y0041670D01*
X0016032Y0041747D01*
X0015876D01*
X0015621Y0041514D02*
Y0041747D01*
X0015601Y0041514D02*
X0015718D01*
X0015757Y0041592D01*
Y0041670D01*
X0015718Y0041747D01*
X0015601D01*
X0015071Y0041472D02*
X0014915D01*
X0015071Y0041627D01*
Y0041666D01*
X0015051Y0041705D01*
X0014935D01*
X0014915Y0041666D01*
X0014660Y0041472D02*
Y0041705D01*
X0014640Y0041472D02*
X0014757D01*
X0014796Y0041549D01*
Y0041627D01*
X0014757Y0041705D01*
X0014640D01*
X0014042Y0041459D02*
Y0041693D01*
X0014023Y0041459D02*
X0014139D01*
X0014178Y0041537D01*
Y0041615D01*
X0014139Y0041693D01*
X0014023D01*
X0013903D02*
Y0041459D01*
X0013864Y0041498D01*
X0013786Y0041654D01*
X0013748Y0041693D01*
Y0041459D01*
X0013550Y0041576D02*
X0013628D01*
Y0041498D01*
X0013609Y0041459D01*
X0013492D01*
X0013473Y0041498D01*
Y0041654D01*
X0013492Y0041693D01*
X0013609D01*
X0013628Y0041654D01*
X0013163Y0041467D02*
Y0041700D01*
X0013241D02*
X0013085D01*
X0012966Y0041662D02*
X0012946Y0041700D01*
X0012829D01*
X0012810Y0041662D01*
Y0041623D01*
X0012829Y0041584D01*
X0012946D01*
X0012966Y0041545D01*
Y0041506D01*
X0012946Y0041467D01*
X0012829D01*
X0012810Y0041506D01*
X0012632Y0041584D02*
X0012691Y0041467D01*
X0012535Y0041584D02*
X0012652D01*
X0012691Y0041623D01*
Y0041662D01*
X0012652Y0041700D01*
X0012535D01*
Y0041467D01*
X0012087Y0041464D02*
X0011970Y0041697D01*
X0012087D02*
X0011970Y0041464D01*
X0011773Y0041580D02*
X0011831Y0041464D01*
X0011676Y0041580D02*
X0011792D01*
X0011831Y0041619D01*
Y0041658D01*
X0011792Y0041697D01*
X0011676D01*
Y0041464D01*
X0011019Y0041468D02*
X0010903Y0041701D01*
X0011019D02*
X0010903Y0041468D01*
X0010686D02*
Y0041701D01*
X0010764D02*
X0010608D01*
X0025162Y0041482D02*
X0025006D01*
X0025162Y0041638D01*
Y0041677D01*
X0025142Y0041716D01*
X0025026D01*
X0025006Y0041677D01*
X0024887Y0041482D02*
X0024809D01*
X0024848D02*
Y0041716D01*
X0024809Y0041677D01*
X0024515Y0041482D02*
Y0041716D01*
X0024495Y0041482D02*
X0024612D01*
X0024651Y0041560D01*
Y0041638D01*
X0024612Y0041716D01*
X0024495D01*
X0024170Y0041743D02*
X0024053Y0041510D01*
X0023915D02*
X0023837D01*
X0023876D02*
Y0041743D01*
X0023837Y0041704D01*
X0023679Y0041510D02*
X0023601D01*
X0023640D02*
Y0041743D01*
X0023601Y0041704D01*
X0023115Y0041743D02*
X0022999Y0041509D01*
X0022763D02*
X0022724Y0041548D01*
X0022704Y0041587D01*
Y0041665D01*
X0022724Y0041704D01*
X0022763Y0041743D01*
X0022802D01*
X0022840Y0041704D01*
X0022860Y0041665D01*
Y0041587D01*
X0022840Y0041548D01*
X0022802Y0041509D01*
X0022763D01*
X0022585D02*
X0022507D01*
X0022546D02*
Y0041743D01*
X0022507Y0041704D01*
X0022067Y0041701D02*
X0021950Y0041468D01*
X0021792Y0041584D02*
X0021675D01*
X0021656Y0041623D01*
Y0041662D01*
X0021675Y0041701D01*
X0021792D01*
X0021811Y0041662D01*
Y0041623D01*
X0021733Y0041468D01*
X0021004Y0041611D02*
X0021024Y0041650D01*
Y0041689D01*
X0021004Y0041728D01*
X0020888D01*
X0020868Y0041689D01*
Y0041650D01*
X0020888Y0041611D01*
X0021004D01*
X0021024Y0041573D01*
Y0041534D01*
X0021004Y0041495D01*
X0020888D01*
X0020868Y0041534D01*
Y0041573D01*
X0020888Y0041611D01*
X0020613Y0041495D02*
Y0041728D01*
X0020593Y0041495D02*
X0020710D01*
X0020749Y0041573D01*
Y0041650D01*
X0020710Y0041728D01*
X0020593D01*
G54D31*
G01X0026228Y0045499D02*
X0026071D01*
X0026228Y0045486D02*
Y0045565D01*
X0026202Y0045591D01*
X0026176D01*
X0026150Y0045578D01*
Y0045499D02*
Y0045578D01*
X0026123Y0045591D01*
X0026097D01*
X0026071Y0045565D01*
Y0045486D01*
X0026097Y0045394D02*
X0026071Y0045381D01*
Y0045302D01*
X0026097Y0045289D01*
X0026123D01*
X0026150Y0045302D01*
Y0045381D01*
X0026176Y0045394D01*
X0026202D01*
X0026228Y0045381D01*
Y0045302D01*
X0026202Y0045289D01*
X0026071Y0045198D02*
X0026202D01*
X0026228Y0045184D01*
Y0045106D01*
X0026202Y0045093D01*
X0026071D01*
G54D32*
G01X0011257Y0046432D02*
X0010824D01*
X0011257Y0046396D02*
Y0046613D01*
X0011112Y0046685D01*
X0010968D01*
X0010824Y0046613D01*
Y0046396D01*
X0011040Y0046055D02*
Y0046200D01*
X0011185D01*
X0011257Y0046164D01*
Y0045947D01*
X0011185Y0045911D01*
X0010896D01*
X0010824Y0045947D01*
Y0046164D01*
X0010896Y0046200D01*
Y0044305D02*
X0011185D01*
X0011040Y0044450D02*
Y0044161D01*
X0020860Y0047840D02*
Y0048207D01*
X0020799Y0048146D01*
X0020738Y0048024D01*
X0020677Y0048146D01*
X0020616Y0048207D01*
Y0047840D01*
X0020211D02*
X0020181Y0047901D01*
Y0048146D01*
X0020211Y0048207D01*
X0020395D01*
X0020425Y0048146D01*
Y0047901D01*
X0020395Y0047840D01*
X0020211D01*
X0019990Y0047901D02*
X0019960Y0047840D01*
X0019776D01*
X0019746Y0047901D01*
Y0048146D01*
X0019776Y0048207D01*
X0019960D01*
X0019990Y0048146D01*
X0019494Y0047840D02*
X0019555D01*
Y0047901D01*
X0019494D01*
Y0047840D01*
X0019029D02*
Y0048207D01*
X0018998Y0047840D02*
X0019181D01*
X0019243Y0047901D01*
Y0047962D01*
X0019212Y0048024D01*
X0019029D02*
X0019212D01*
X0019243Y0048085D01*
Y0048146D01*
X0019181Y0048207D01*
X0018998D01*
X0018808Y0047962D02*
X0018563D01*
X0018808Y0047840D02*
Y0048024D01*
X0018716Y0048207D01*
X0018655D01*
X0018563Y0048024D01*
Y0047840D01*
X0018373D02*
X0018159D01*
Y0048207D01*
X0017968Y0048024D02*
X0017724D01*
X0017533Y0048146D02*
X0017503Y0048207D01*
X0017319D01*
X0017289Y0048146D01*
Y0048085D01*
X0017319Y0048024D01*
X0017503D01*
X0017533Y0047962D01*
Y0047901D01*
X0017503Y0047840D01*
X0017319D01*
X0017289Y0047901D01*
X0017098D02*
X0017068Y0047840D01*
X0016884D01*
X0016854Y0047901D01*
Y0048146D01*
X0016884Y0048207D01*
X0017068D01*
X0017098Y0048146D01*
X0016663Y0047840D02*
X0016541D01*
X0016602D02*
Y0048207D01*
X0016663D02*
X0016541D01*
X0016289D02*
Y0047840D01*
X0016228Y0047901D01*
X0016106Y0048146D01*
X0016045Y0048207D01*
Y0047840D01*
X0015640D02*
X0015610Y0047901D01*
Y0048146D01*
X0015640Y0048207D01*
X0015824D01*
X0015854Y0048146D01*
Y0047901D01*
X0015824Y0047840D01*
X0015640D01*
X0015328Y0048024D02*
X0015419Y0047840D01*
X0015175Y0048024D02*
X0015358D01*
X0015419Y0048085D01*
Y0048146D01*
X0015358Y0048207D01*
X0015175D01*
Y0047840D01*
X0014862D02*
Y0048207D01*
X0014984D02*
X0014740D01*
X0014549Y0047901D02*
X0014519Y0047840D01*
X0014335D01*
X0014305Y0047901D01*
Y0048146D01*
X0014335Y0048207D01*
X0014519D01*
X0014549Y0048146D01*
X0014053Y0048024D02*
X0013870D01*
X0014114Y0047840D02*
X0013870D01*
Y0048207D01*
X0014114D01*
X0013679Y0047840D02*
X0013465D01*
Y0048207D01*
X0013214Y0048024D02*
X0013030D01*
X0013275Y0047840D02*
X0013030D01*
Y0048207D01*
X0013275D01*
X0011040Y0047459D02*
Y0047675D01*
X0010968Y0047747D01*
X0010896D01*
X0010824Y0047675D01*
Y0047459D01*
X0011257D01*
Y0047010D02*
X0011185Y0046974D01*
X0010896D01*
X0010824Y0047010D01*
Y0047226D01*
X0010896Y0047262D01*
X0011185D01*
X0011257Y0047226D01*
Y0047010D01*
Y0045432D02*
X0010824D01*
X0011257Y0045396D02*
Y0045613D01*
X0011112Y0045685D01*
X0010968D01*
X0010824Y0045613D01*
Y0045396D01*
X0011040Y0045055D02*
Y0045200D01*
X0011185D01*
X0011257Y0045164D01*
Y0044947D01*
X0011185Y0044911D01*
X0010896D01*
X0010824Y0044947D01*
Y0045164D01*
X0010896Y0045200D01*
G54D33*
G01X0018697Y0045797D02*
X0018566Y0045928D01*
X0018697Y0046059D01*
X0018522D02*
Y0045797D01*
X0014480Y0044472D02*
X0014375D01*
X0014427D02*
Y0044787D01*
X0014375Y0044735D01*
X0014202Y0044787D02*
Y0044525D01*
X0014176Y0044472D01*
X0014018D01*
X0013992Y0044525D01*
Y0044787D01*
G54D34*
G01X0016896Y0045373D02*
X0016946Y0045323D01*
X0017046D01*
X0017096Y0045373D01*
Y0045423D01*
X0016996Y0045523D01*
X0017096Y0045623D01*
X0016896D01*
X0016576Y0045323D02*
Y0045623D01*
X0016551Y0045323D02*
X0016701D01*
X0016751Y0045423D01*
Y0045523D01*
X0016701Y0045623D01*
X0016551D01*
X0016406Y0045323D02*
X0016256D01*
X0016406Y0045623D01*
X0016256D01*
X0019226Y0045323D02*
X0019126D01*
X0019176D02*
Y0045623D01*
X0019126Y0045573D01*
X0018756Y0045323D02*
Y0045623D01*
X0018731Y0045323D02*
X0018881D01*
X0018931Y0045423D01*
Y0045523D01*
X0018881Y0045623D01*
X0018731D01*
M02*
