%
T1C0.0098F200S100
X011875Y044250
X011875Y045090
X011875Y046375
X011875Y047215
X012937Y046375
X012937Y047215
X014125Y046375
X014125Y047215
T3C0.0394F200S100
X010187Y044250
X010187Y045250
X010187Y046250
X010187Y047250
X010812Y040812
X010812Y050812
X010875Y042750
X011812Y040812
X010875Y048750
X011812Y050812
X011875Y042750
X012812Y040812
X011875Y048750
X012812Y050812
X012875Y042750
X013812Y040812
X012875Y048750
X013812Y050812
X013875Y042750
X014812Y040812
X013875Y048750
X014812Y050812
X014875Y042750
X015812Y040812
X014875Y048750
X015812Y050812
X015875Y042750
X016812Y040812
X015875Y048750
X016812Y050812
X016875Y042750
X016879Y048750
X017812Y040812
X017875Y042750
X017875Y048750
X017812Y050812
X018812Y040812
X018875Y042750
X018875Y048750
X018812Y050812
X019812Y040812
X019875Y042750
X019875Y048754
X019812Y050812
X020812Y040812
X020875Y042750
X020875Y045812
X020875Y048750
X020812Y050812
X021812Y040812
X021875Y042750
X021875Y043562
X021875Y044562
X021875Y045812
X021875Y046812
X021875Y047812
X021875Y048754
X021812Y050812
X022812Y040812
X022875Y042750
X022875Y043562
X022875Y044562
X022875Y045812
X022875Y046812
X022875Y047812
X022875Y048750
X022812Y050812
X023812Y040812
X023875Y042750
X023875Y043562
X023875Y044562
X023875Y045812
X023875Y046812
X023875Y047812
X023875Y048750
X023812Y050812
X024812Y040812
X024875Y042750
X024875Y043562
X024875Y044562
X024875Y045812
X024875Y046812
X024875Y047812
X024875Y048754
X024812Y050812
X025875Y043562
X025875Y044562
X025875Y045812
X025875Y046812
X025875Y047812
T2C0.0315F200S100
X016687Y044437
X016687Y046437
X018937Y044437
X018937Y046437
M30
